G04 #@! TF.GenerationSoftware,KiCad,Pcbnew,5.1.4*
G04 #@! TF.CreationDate,2019-10-29T06:47:26+01:00*
G04 #@! TF.ProjectId,MediaKeys,4d656469-614b-4657-9973-2e6b69636164,rev?*
G04 #@! TF.SameCoordinates,Original*
G04 #@! TF.FileFunction,Legend,Top*
G04 #@! TF.FilePolarity,Positive*
%FSLAX46Y46*%
G04 Gerber Fmt 4.6, Leading zero omitted, Abs format (unit mm)*
G04 Created by KiCad (PCBNEW 5.1.4) date 2019-10-29 06:47:26*
%MOMM*%
%LPD*%
G04 APERTURE LIST*
%ADD10C,0.150000*%
%ADD11C,0.300000*%
%ADD12C,0.304800*%
%ADD13C,0.120000*%
%ADD14C,0.010000*%
G04 APERTURE END LIST*
D10*
X62804523Y-118896190D02*
X63711666Y-118896190D01*
X63893095Y-118956666D01*
X64014047Y-119077619D01*
X64074523Y-119259047D01*
X64074523Y-119380000D01*
X64074523Y-117686666D02*
X64074523Y-118291428D01*
X62804523Y-118291428D01*
X63953571Y-116537619D02*
X64014047Y-116598095D01*
X64074523Y-116779523D01*
X64074523Y-116900476D01*
X64014047Y-117081904D01*
X63893095Y-117202857D01*
X63772142Y-117263333D01*
X63530238Y-117323809D01*
X63348809Y-117323809D01*
X63106904Y-117263333D01*
X62985952Y-117202857D01*
X62865000Y-117081904D01*
X62804523Y-116900476D01*
X62804523Y-116779523D01*
X62865000Y-116598095D01*
X62925476Y-116537619D01*
X62804523Y-115630476D02*
X63711666Y-115630476D01*
X63893095Y-115690952D01*
X64014047Y-115811904D01*
X64074523Y-115993333D01*
X64074523Y-116114285D01*
X64074523Y-114420952D02*
X64074523Y-115025714D01*
X62804523Y-115025714D01*
X63953571Y-113271904D02*
X64014047Y-113332380D01*
X64074523Y-113513809D01*
X64074523Y-113634761D01*
X64014047Y-113816190D01*
X63893095Y-113937142D01*
X63772142Y-113997619D01*
X63530238Y-114058095D01*
X63348809Y-114058095D01*
X63106904Y-113997619D01*
X62985952Y-113937142D01*
X62865000Y-113816190D01*
X62804523Y-113634761D01*
X62804523Y-113513809D01*
X62865000Y-113332380D01*
X62925476Y-113271904D01*
X62804523Y-112364761D02*
X63711666Y-112364761D01*
X63893095Y-112425238D01*
X64014047Y-112546190D01*
X64074523Y-112727619D01*
X64074523Y-112848571D01*
X64074523Y-111155238D02*
X64074523Y-111760000D01*
X62804523Y-111760000D01*
X63953571Y-110006190D02*
X64014047Y-110066666D01*
X64074523Y-110248095D01*
X64074523Y-110369047D01*
X64014047Y-110550476D01*
X63893095Y-110671428D01*
X63772142Y-110731904D01*
X63530238Y-110792380D01*
X63348809Y-110792380D01*
X63106904Y-110731904D01*
X62985952Y-110671428D01*
X62865000Y-110550476D01*
X62804523Y-110369047D01*
X62804523Y-110248095D01*
X62865000Y-110066666D01*
X62925476Y-110006190D01*
X62804523Y-109099047D02*
X63711666Y-109099047D01*
X63893095Y-109159523D01*
X64014047Y-109280476D01*
X64074523Y-109461904D01*
X64074523Y-109582857D01*
X64074523Y-107889523D02*
X64074523Y-108494285D01*
X62804523Y-108494285D01*
X63953571Y-106740476D02*
X64014047Y-106800952D01*
X64074523Y-106982380D01*
X64074523Y-107103333D01*
X64014047Y-107284761D01*
X63893095Y-107405714D01*
X63772142Y-107466190D01*
X63530238Y-107526666D01*
X63348809Y-107526666D01*
X63106904Y-107466190D01*
X62985952Y-107405714D01*
X62865000Y-107284761D01*
X62804523Y-107103333D01*
X62804523Y-106982380D01*
X62865000Y-106800952D01*
X62925476Y-106740476D01*
D11*
X58392857Y-66718571D02*
X58392857Y-65218571D01*
X58964285Y-65218571D01*
X59107142Y-65290000D01*
X59178571Y-65361428D01*
X59250000Y-65504285D01*
X59250000Y-65718571D01*
X59178571Y-65861428D01*
X59107142Y-65932857D01*
X58964285Y-66004285D01*
X58392857Y-66004285D01*
X59892857Y-66718571D02*
X59892857Y-65718571D01*
X59892857Y-66004285D02*
X59964285Y-65861428D01*
X60035714Y-65790000D01*
X60178571Y-65718571D01*
X60321428Y-65718571D01*
X61035714Y-66718571D02*
X60892857Y-66647142D01*
X60821428Y-66575714D01*
X60750000Y-66432857D01*
X60750000Y-66004285D01*
X60821428Y-65861428D01*
X60892857Y-65790000D01*
X61035714Y-65718571D01*
X61250000Y-65718571D01*
X61392857Y-65790000D01*
X61464285Y-65861428D01*
X61535714Y-66004285D01*
X61535714Y-66432857D01*
X61464285Y-66575714D01*
X61392857Y-66647142D01*
X61250000Y-66718571D01*
X61035714Y-66718571D01*
X63321428Y-66718571D02*
X63321428Y-65218571D01*
X63821428Y-66290000D01*
X64321428Y-65218571D01*
X64321428Y-66718571D01*
X65035714Y-66718571D02*
X65035714Y-65718571D01*
X65035714Y-65218571D02*
X64964285Y-65290000D01*
X65035714Y-65361428D01*
X65107142Y-65290000D01*
X65035714Y-65218571D01*
X65035714Y-65361428D01*
X66392857Y-66647142D02*
X66250000Y-66718571D01*
X65964285Y-66718571D01*
X65821428Y-66647142D01*
X65750000Y-66575714D01*
X65678571Y-66432857D01*
X65678571Y-66004285D01*
X65750000Y-65861428D01*
X65821428Y-65790000D01*
X65964285Y-65718571D01*
X66250000Y-65718571D01*
X66392857Y-65790000D01*
X67035714Y-66718571D02*
X67035714Y-65718571D01*
X67035714Y-66004285D02*
X67107142Y-65861428D01*
X67178571Y-65790000D01*
X67321428Y-65718571D01*
X67464285Y-65718571D01*
X68178571Y-66718571D02*
X68035714Y-66647142D01*
X67964285Y-66575714D01*
X67892857Y-66432857D01*
X67892857Y-66004285D01*
X67964285Y-65861428D01*
X68035714Y-65790000D01*
X68178571Y-65718571D01*
X68392857Y-65718571D01*
X68535714Y-65790000D01*
X68607142Y-65861428D01*
X68678571Y-66004285D01*
X68678571Y-66432857D01*
X68607142Y-66575714D01*
X68535714Y-66647142D01*
X68392857Y-66718571D01*
X68178571Y-66718571D01*
D12*
X64370857Y-145699238D02*
X64370857Y-143667238D01*
X64854666Y-143667238D01*
X65144952Y-143764000D01*
X65338476Y-143957523D01*
X65435238Y-144151047D01*
X65532000Y-144538095D01*
X65532000Y-144828380D01*
X65435238Y-145215428D01*
X65338476Y-145408952D01*
X65144952Y-145602476D01*
X64854666Y-145699238D01*
X64370857Y-145699238D01*
X67370476Y-145699238D02*
X66402857Y-145699238D01*
X66402857Y-143667238D01*
X69015428Y-143667238D02*
X68047809Y-143667238D01*
X67951047Y-144634857D01*
X68047809Y-144538095D01*
X68241333Y-144441333D01*
X68725142Y-144441333D01*
X68918666Y-144538095D01*
X69015428Y-144634857D01*
X69112190Y-144828380D01*
X69112190Y-145312190D01*
X69015428Y-145505714D01*
X68918666Y-145602476D01*
X68725142Y-145699238D01*
X68241333Y-145699238D01*
X68047809Y-145602476D01*
X67951047Y-145505714D01*
X70950666Y-145699238D02*
X69983047Y-145699238D01*
X69983047Y-143667238D01*
X72982666Y-145892761D02*
X72789142Y-145796000D01*
X72595619Y-145602476D01*
X72305333Y-145312190D01*
X72111809Y-145215428D01*
X71918285Y-145215428D01*
X72015047Y-145699238D02*
X71821523Y-145602476D01*
X71628000Y-145408952D01*
X71531238Y-145021904D01*
X71531238Y-144344571D01*
X71628000Y-143957523D01*
X71821523Y-143764000D01*
X72015047Y-143667238D01*
X72402095Y-143667238D01*
X72595619Y-143764000D01*
X72789142Y-143957523D01*
X72885904Y-144344571D01*
X72885904Y-145021904D01*
X72789142Y-145408952D01*
X72595619Y-145602476D01*
X72402095Y-145699238D01*
X72015047Y-145699238D01*
D13*
X43815000Y-99695000D02*
X43815000Y-85725000D01*
X57785000Y-99695000D02*
X43815000Y-99695000D01*
X57785000Y-85725000D02*
X57785000Y-99695000D01*
X43815000Y-85725000D02*
X57785000Y-85725000D01*
D14*
G36*
X55983910Y-142022348D02*
G01*
X56062454Y-142022778D01*
X56119298Y-142023942D01*
X56158105Y-142026207D01*
X56182538Y-142029940D01*
X56196262Y-142035506D01*
X56202940Y-142043273D01*
X56206236Y-142053605D01*
X56206556Y-142054943D01*
X56211562Y-142079079D01*
X56220829Y-142126701D01*
X56233392Y-142192741D01*
X56248287Y-142272128D01*
X56264551Y-142359796D01*
X56265119Y-142362875D01*
X56281410Y-142448789D01*
X56296652Y-142524696D01*
X56309861Y-142586045D01*
X56320054Y-142628282D01*
X56326248Y-142646855D01*
X56326543Y-142647184D01*
X56344788Y-142656253D01*
X56382405Y-142671367D01*
X56431271Y-142689262D01*
X56431543Y-142689358D01*
X56493093Y-142712493D01*
X56565657Y-142741965D01*
X56634057Y-142771597D01*
X56637294Y-142773062D01*
X56748702Y-142823626D01*
X56995399Y-142655160D01*
X57071077Y-142603803D01*
X57139631Y-142557889D01*
X57197088Y-142520030D01*
X57239476Y-142492837D01*
X57262825Y-142478921D01*
X57265042Y-142477889D01*
X57282010Y-142482484D01*
X57313701Y-142504655D01*
X57361352Y-142545447D01*
X57426198Y-142605905D01*
X57492397Y-142670227D01*
X57556214Y-142733612D01*
X57613329Y-142791451D01*
X57660305Y-142840175D01*
X57693703Y-142876210D01*
X57710085Y-142895984D01*
X57710694Y-142897002D01*
X57712505Y-142910572D01*
X57705683Y-142932733D01*
X57688540Y-142966478D01*
X57659393Y-143014800D01*
X57616555Y-143080692D01*
X57559448Y-143165517D01*
X57508766Y-143240177D01*
X57463461Y-143307140D01*
X57426150Y-143362516D01*
X57399452Y-143402420D01*
X57385985Y-143422962D01*
X57385137Y-143424356D01*
X57386781Y-143444038D01*
X57399245Y-143482293D01*
X57420048Y-143531889D01*
X57427462Y-143547728D01*
X57459814Y-143618290D01*
X57494328Y-143698353D01*
X57522365Y-143767629D01*
X57542568Y-143819045D01*
X57558615Y-143858119D01*
X57567888Y-143878541D01*
X57569041Y-143880114D01*
X57586096Y-143882721D01*
X57626298Y-143889863D01*
X57684302Y-143900523D01*
X57754763Y-143913685D01*
X57832335Y-143928333D01*
X57911672Y-143943449D01*
X57987431Y-143958018D01*
X58054264Y-143971022D01*
X58106828Y-143981445D01*
X58139776Y-143988270D01*
X58147857Y-143990199D01*
X58156205Y-143994962D01*
X58162506Y-144005718D01*
X58167045Y-144026098D01*
X58170104Y-144059734D01*
X58171967Y-144110255D01*
X58172918Y-144181292D01*
X58173240Y-144276476D01*
X58173257Y-144315492D01*
X58173257Y-144632799D01*
X58097057Y-144647839D01*
X58054663Y-144655995D01*
X57991400Y-144667899D01*
X57914962Y-144682116D01*
X57833043Y-144697210D01*
X57810400Y-144701355D01*
X57734806Y-144716053D01*
X57668953Y-144730505D01*
X57618366Y-144743375D01*
X57588574Y-144753322D01*
X57583612Y-144756287D01*
X57571426Y-144777283D01*
X57553953Y-144817967D01*
X57534577Y-144870322D01*
X57530734Y-144881600D01*
X57505339Y-144951523D01*
X57473817Y-145030418D01*
X57442969Y-145101266D01*
X57442817Y-145101595D01*
X57391447Y-145212733D01*
X57560399Y-145461253D01*
X57729352Y-145709772D01*
X57512429Y-145927058D01*
X57446819Y-145991726D01*
X57386979Y-146048733D01*
X57336267Y-146095033D01*
X57298046Y-146127584D01*
X57275675Y-146143343D01*
X57272466Y-146144343D01*
X57253626Y-146136469D01*
X57215180Y-146114578D01*
X57161330Y-146081267D01*
X57096276Y-146039131D01*
X57025940Y-145991943D01*
X56954555Y-145943810D01*
X56890908Y-145901928D01*
X56839041Y-145868871D01*
X56802995Y-145847218D01*
X56786867Y-145839543D01*
X56767189Y-145846037D01*
X56729875Y-145863150D01*
X56682621Y-145887326D01*
X56677612Y-145890013D01*
X56613977Y-145921927D01*
X56570341Y-145937579D01*
X56543202Y-145937745D01*
X56529057Y-145923204D01*
X56528975Y-145923000D01*
X56521905Y-145905779D01*
X56505042Y-145864899D01*
X56479695Y-145803525D01*
X56447171Y-145724819D01*
X56408778Y-145631947D01*
X56365822Y-145528072D01*
X56324222Y-145427502D01*
X56278504Y-145316516D01*
X56236526Y-145213703D01*
X56199548Y-145122215D01*
X56168827Y-145045201D01*
X56145622Y-144985815D01*
X56131190Y-144947209D01*
X56126743Y-144932800D01*
X56137896Y-144916272D01*
X56167069Y-144889930D01*
X56205971Y-144860887D01*
X56316757Y-144769039D01*
X56403351Y-144663759D01*
X56464716Y-144547266D01*
X56499815Y-144421776D01*
X56507608Y-144289507D01*
X56501943Y-144228457D01*
X56471078Y-144101795D01*
X56417920Y-143989941D01*
X56345767Y-143894001D01*
X56257917Y-143815076D01*
X56157665Y-143754270D01*
X56048310Y-143712687D01*
X55933147Y-143691428D01*
X55815475Y-143691599D01*
X55698590Y-143714301D01*
X55585789Y-143760638D01*
X55480369Y-143831713D01*
X55436368Y-143871911D01*
X55351979Y-143975129D01*
X55293222Y-144087925D01*
X55259704Y-144207010D01*
X55251035Y-144329095D01*
X55266823Y-144450893D01*
X55306678Y-144569116D01*
X55370207Y-144680475D01*
X55457021Y-144781684D01*
X55554029Y-144860887D01*
X55594437Y-144891162D01*
X55622982Y-144917219D01*
X55633257Y-144932825D01*
X55627877Y-144949843D01*
X55612575Y-144990500D01*
X55588612Y-145051642D01*
X55557244Y-145130119D01*
X55519732Y-145222780D01*
X55477333Y-145326472D01*
X55435663Y-145427526D01*
X55389690Y-145538607D01*
X55347107Y-145641541D01*
X55309221Y-145733165D01*
X55277340Y-145810316D01*
X55252771Y-145869831D01*
X55236820Y-145908544D01*
X55230910Y-145923000D01*
X55216948Y-145937685D01*
X55189940Y-145937642D01*
X55146413Y-145922099D01*
X55082890Y-145890284D01*
X55082388Y-145890013D01*
X55034560Y-145865323D01*
X54995897Y-145847338D01*
X54974095Y-145839614D01*
X54973133Y-145839543D01*
X54956721Y-145847378D01*
X54920487Y-145869165D01*
X54868474Y-145902328D01*
X54804725Y-145944291D01*
X54734060Y-145991943D01*
X54662116Y-146040191D01*
X54597274Y-146082151D01*
X54543735Y-146115227D01*
X54505697Y-146136821D01*
X54487533Y-146144343D01*
X54470808Y-146134457D01*
X54437180Y-146106826D01*
X54390010Y-146064495D01*
X54332658Y-146010505D01*
X54268484Y-145947899D01*
X54247497Y-145926983D01*
X54030499Y-145709623D01*
X54195668Y-145467220D01*
X54245864Y-145392781D01*
X54289919Y-145325972D01*
X54325362Y-145270665D01*
X54349719Y-145230729D01*
X54360522Y-145210036D01*
X54360838Y-145208563D01*
X54355143Y-145189058D01*
X54339826Y-145149822D01*
X54317537Y-145097430D01*
X54301893Y-145062355D01*
X54272641Y-144995201D01*
X54245094Y-144927358D01*
X54223737Y-144870034D01*
X54217935Y-144852572D01*
X54201452Y-144805938D01*
X54185340Y-144769905D01*
X54176490Y-144756287D01*
X54156960Y-144747952D01*
X54114334Y-144736137D01*
X54054145Y-144722181D01*
X53981922Y-144707422D01*
X53949600Y-144701355D01*
X53867522Y-144686273D01*
X53788795Y-144671669D01*
X53721109Y-144658980D01*
X53672160Y-144649642D01*
X53662943Y-144647839D01*
X53586743Y-144632799D01*
X53586743Y-144315492D01*
X53586914Y-144211154D01*
X53587616Y-144132213D01*
X53589134Y-144075038D01*
X53591749Y-144035999D01*
X53595746Y-144011465D01*
X53601409Y-143997805D01*
X53609020Y-143991389D01*
X53612143Y-143990199D01*
X53630978Y-143985980D01*
X53672588Y-143977562D01*
X53731630Y-143965961D01*
X53802757Y-143952195D01*
X53880625Y-143937280D01*
X53959887Y-143922232D01*
X54035198Y-143908069D01*
X54101213Y-143895806D01*
X54152587Y-143886461D01*
X54183975Y-143881050D01*
X54190959Y-143880114D01*
X54197285Y-143867596D01*
X54211290Y-143834246D01*
X54230355Y-143786377D01*
X54237634Y-143767629D01*
X54266996Y-143695195D01*
X54301571Y-143615170D01*
X54332537Y-143547728D01*
X54355323Y-143496159D01*
X54370482Y-143453785D01*
X54375542Y-143427834D01*
X54374736Y-143424356D01*
X54364041Y-143407936D01*
X54339620Y-143371417D01*
X54304095Y-143318687D01*
X54260087Y-143253635D01*
X54210217Y-143180151D01*
X54200356Y-143165645D01*
X54142492Y-143079704D01*
X54099956Y-143014261D01*
X54071054Y-142966304D01*
X54054090Y-142932820D01*
X54047367Y-142910795D01*
X54049190Y-142897217D01*
X54049236Y-142897131D01*
X54063586Y-142879297D01*
X54095323Y-142844817D01*
X54141010Y-142797268D01*
X54197204Y-142740222D01*
X54260468Y-142677255D01*
X54267602Y-142670227D01*
X54347330Y-142593020D01*
X54408857Y-142536330D01*
X54453421Y-142499110D01*
X54482257Y-142480315D01*
X54494958Y-142477889D01*
X54513494Y-142488471D01*
X54551961Y-142512916D01*
X54606386Y-142548612D01*
X54672798Y-142592947D01*
X54747225Y-142643311D01*
X54764601Y-142655160D01*
X55011297Y-142823626D01*
X55122706Y-142773062D01*
X55190457Y-142743595D01*
X55263183Y-142713959D01*
X55325703Y-142690330D01*
X55328457Y-142689358D01*
X55377360Y-142671457D01*
X55415057Y-142656320D01*
X55433425Y-142647210D01*
X55433456Y-142647184D01*
X55439285Y-142630717D01*
X55449192Y-142590219D01*
X55462195Y-142530242D01*
X55477309Y-142455340D01*
X55493552Y-142370064D01*
X55494881Y-142362875D01*
X55511175Y-142275014D01*
X55526133Y-142195260D01*
X55538791Y-142128681D01*
X55548186Y-142080347D01*
X55553354Y-142055325D01*
X55553444Y-142054943D01*
X55556589Y-142044299D01*
X55562704Y-142036262D01*
X55575453Y-142030467D01*
X55598500Y-142026547D01*
X55635509Y-142024135D01*
X55690144Y-142022865D01*
X55766067Y-142022371D01*
X55866944Y-142022286D01*
X55880000Y-142022286D01*
X55983910Y-142022348D01*
X55983910Y-142022348D01*
G37*
X55983910Y-142022348D02*
X56062454Y-142022778D01*
X56119298Y-142023942D01*
X56158105Y-142026207D01*
X56182538Y-142029940D01*
X56196262Y-142035506D01*
X56202940Y-142043273D01*
X56206236Y-142053605D01*
X56206556Y-142054943D01*
X56211562Y-142079079D01*
X56220829Y-142126701D01*
X56233392Y-142192741D01*
X56248287Y-142272128D01*
X56264551Y-142359796D01*
X56265119Y-142362875D01*
X56281410Y-142448789D01*
X56296652Y-142524696D01*
X56309861Y-142586045D01*
X56320054Y-142628282D01*
X56326248Y-142646855D01*
X56326543Y-142647184D01*
X56344788Y-142656253D01*
X56382405Y-142671367D01*
X56431271Y-142689262D01*
X56431543Y-142689358D01*
X56493093Y-142712493D01*
X56565657Y-142741965D01*
X56634057Y-142771597D01*
X56637294Y-142773062D01*
X56748702Y-142823626D01*
X56995399Y-142655160D01*
X57071077Y-142603803D01*
X57139631Y-142557889D01*
X57197088Y-142520030D01*
X57239476Y-142492837D01*
X57262825Y-142478921D01*
X57265042Y-142477889D01*
X57282010Y-142482484D01*
X57313701Y-142504655D01*
X57361352Y-142545447D01*
X57426198Y-142605905D01*
X57492397Y-142670227D01*
X57556214Y-142733612D01*
X57613329Y-142791451D01*
X57660305Y-142840175D01*
X57693703Y-142876210D01*
X57710085Y-142895984D01*
X57710694Y-142897002D01*
X57712505Y-142910572D01*
X57705683Y-142932733D01*
X57688540Y-142966478D01*
X57659393Y-143014800D01*
X57616555Y-143080692D01*
X57559448Y-143165517D01*
X57508766Y-143240177D01*
X57463461Y-143307140D01*
X57426150Y-143362516D01*
X57399452Y-143402420D01*
X57385985Y-143422962D01*
X57385137Y-143424356D01*
X57386781Y-143444038D01*
X57399245Y-143482293D01*
X57420048Y-143531889D01*
X57427462Y-143547728D01*
X57459814Y-143618290D01*
X57494328Y-143698353D01*
X57522365Y-143767629D01*
X57542568Y-143819045D01*
X57558615Y-143858119D01*
X57567888Y-143878541D01*
X57569041Y-143880114D01*
X57586096Y-143882721D01*
X57626298Y-143889863D01*
X57684302Y-143900523D01*
X57754763Y-143913685D01*
X57832335Y-143928333D01*
X57911672Y-143943449D01*
X57987431Y-143958018D01*
X58054264Y-143971022D01*
X58106828Y-143981445D01*
X58139776Y-143988270D01*
X58147857Y-143990199D01*
X58156205Y-143994962D01*
X58162506Y-144005718D01*
X58167045Y-144026098D01*
X58170104Y-144059734D01*
X58171967Y-144110255D01*
X58172918Y-144181292D01*
X58173240Y-144276476D01*
X58173257Y-144315492D01*
X58173257Y-144632799D01*
X58097057Y-144647839D01*
X58054663Y-144655995D01*
X57991400Y-144667899D01*
X57914962Y-144682116D01*
X57833043Y-144697210D01*
X57810400Y-144701355D01*
X57734806Y-144716053D01*
X57668953Y-144730505D01*
X57618366Y-144743375D01*
X57588574Y-144753322D01*
X57583612Y-144756287D01*
X57571426Y-144777283D01*
X57553953Y-144817967D01*
X57534577Y-144870322D01*
X57530734Y-144881600D01*
X57505339Y-144951523D01*
X57473817Y-145030418D01*
X57442969Y-145101266D01*
X57442817Y-145101595D01*
X57391447Y-145212733D01*
X57560399Y-145461253D01*
X57729352Y-145709772D01*
X57512429Y-145927058D01*
X57446819Y-145991726D01*
X57386979Y-146048733D01*
X57336267Y-146095033D01*
X57298046Y-146127584D01*
X57275675Y-146143343D01*
X57272466Y-146144343D01*
X57253626Y-146136469D01*
X57215180Y-146114578D01*
X57161330Y-146081267D01*
X57096276Y-146039131D01*
X57025940Y-145991943D01*
X56954555Y-145943810D01*
X56890908Y-145901928D01*
X56839041Y-145868871D01*
X56802995Y-145847218D01*
X56786867Y-145839543D01*
X56767189Y-145846037D01*
X56729875Y-145863150D01*
X56682621Y-145887326D01*
X56677612Y-145890013D01*
X56613977Y-145921927D01*
X56570341Y-145937579D01*
X56543202Y-145937745D01*
X56529057Y-145923204D01*
X56528975Y-145923000D01*
X56521905Y-145905779D01*
X56505042Y-145864899D01*
X56479695Y-145803525D01*
X56447171Y-145724819D01*
X56408778Y-145631947D01*
X56365822Y-145528072D01*
X56324222Y-145427502D01*
X56278504Y-145316516D01*
X56236526Y-145213703D01*
X56199548Y-145122215D01*
X56168827Y-145045201D01*
X56145622Y-144985815D01*
X56131190Y-144947209D01*
X56126743Y-144932800D01*
X56137896Y-144916272D01*
X56167069Y-144889930D01*
X56205971Y-144860887D01*
X56316757Y-144769039D01*
X56403351Y-144663759D01*
X56464716Y-144547266D01*
X56499815Y-144421776D01*
X56507608Y-144289507D01*
X56501943Y-144228457D01*
X56471078Y-144101795D01*
X56417920Y-143989941D01*
X56345767Y-143894001D01*
X56257917Y-143815076D01*
X56157665Y-143754270D01*
X56048310Y-143712687D01*
X55933147Y-143691428D01*
X55815475Y-143691599D01*
X55698590Y-143714301D01*
X55585789Y-143760638D01*
X55480369Y-143831713D01*
X55436368Y-143871911D01*
X55351979Y-143975129D01*
X55293222Y-144087925D01*
X55259704Y-144207010D01*
X55251035Y-144329095D01*
X55266823Y-144450893D01*
X55306678Y-144569116D01*
X55370207Y-144680475D01*
X55457021Y-144781684D01*
X55554029Y-144860887D01*
X55594437Y-144891162D01*
X55622982Y-144917219D01*
X55633257Y-144932825D01*
X55627877Y-144949843D01*
X55612575Y-144990500D01*
X55588612Y-145051642D01*
X55557244Y-145130119D01*
X55519732Y-145222780D01*
X55477333Y-145326472D01*
X55435663Y-145427526D01*
X55389690Y-145538607D01*
X55347107Y-145641541D01*
X55309221Y-145733165D01*
X55277340Y-145810316D01*
X55252771Y-145869831D01*
X55236820Y-145908544D01*
X55230910Y-145923000D01*
X55216948Y-145937685D01*
X55189940Y-145937642D01*
X55146413Y-145922099D01*
X55082890Y-145890284D01*
X55082388Y-145890013D01*
X55034560Y-145865323D01*
X54995897Y-145847338D01*
X54974095Y-145839614D01*
X54973133Y-145839543D01*
X54956721Y-145847378D01*
X54920487Y-145869165D01*
X54868474Y-145902328D01*
X54804725Y-145944291D01*
X54734060Y-145991943D01*
X54662116Y-146040191D01*
X54597274Y-146082151D01*
X54543735Y-146115227D01*
X54505697Y-146136821D01*
X54487533Y-146144343D01*
X54470808Y-146134457D01*
X54437180Y-146106826D01*
X54390010Y-146064495D01*
X54332658Y-146010505D01*
X54268484Y-145947899D01*
X54247497Y-145926983D01*
X54030499Y-145709623D01*
X54195668Y-145467220D01*
X54245864Y-145392781D01*
X54289919Y-145325972D01*
X54325362Y-145270665D01*
X54349719Y-145230729D01*
X54360522Y-145210036D01*
X54360838Y-145208563D01*
X54355143Y-145189058D01*
X54339826Y-145149822D01*
X54317537Y-145097430D01*
X54301893Y-145062355D01*
X54272641Y-144995201D01*
X54245094Y-144927358D01*
X54223737Y-144870034D01*
X54217935Y-144852572D01*
X54201452Y-144805938D01*
X54185340Y-144769905D01*
X54176490Y-144756287D01*
X54156960Y-144747952D01*
X54114334Y-144736137D01*
X54054145Y-144722181D01*
X53981922Y-144707422D01*
X53949600Y-144701355D01*
X53867522Y-144686273D01*
X53788795Y-144671669D01*
X53721109Y-144658980D01*
X53672160Y-144649642D01*
X53662943Y-144647839D01*
X53586743Y-144632799D01*
X53586743Y-144315492D01*
X53586914Y-144211154D01*
X53587616Y-144132213D01*
X53589134Y-144075038D01*
X53591749Y-144035999D01*
X53595746Y-144011465D01*
X53601409Y-143997805D01*
X53609020Y-143991389D01*
X53612143Y-143990199D01*
X53630978Y-143985980D01*
X53672588Y-143977562D01*
X53731630Y-143965961D01*
X53802757Y-143952195D01*
X53880625Y-143937280D01*
X53959887Y-143922232D01*
X54035198Y-143908069D01*
X54101213Y-143895806D01*
X54152587Y-143886461D01*
X54183975Y-143881050D01*
X54190959Y-143880114D01*
X54197285Y-143867596D01*
X54211290Y-143834246D01*
X54230355Y-143786377D01*
X54237634Y-143767629D01*
X54266996Y-143695195D01*
X54301571Y-143615170D01*
X54332537Y-143547728D01*
X54355323Y-143496159D01*
X54370482Y-143453785D01*
X54375542Y-143427834D01*
X54374736Y-143424356D01*
X54364041Y-143407936D01*
X54339620Y-143371417D01*
X54304095Y-143318687D01*
X54260087Y-143253635D01*
X54210217Y-143180151D01*
X54200356Y-143165645D01*
X54142492Y-143079704D01*
X54099956Y-143014261D01*
X54071054Y-142966304D01*
X54054090Y-142932820D01*
X54047367Y-142910795D01*
X54049190Y-142897217D01*
X54049236Y-142897131D01*
X54063586Y-142879297D01*
X54095323Y-142844817D01*
X54141010Y-142797268D01*
X54197204Y-142740222D01*
X54260468Y-142677255D01*
X54267602Y-142670227D01*
X54347330Y-142593020D01*
X54408857Y-142536330D01*
X54453421Y-142499110D01*
X54482257Y-142480315D01*
X54494958Y-142477889D01*
X54513494Y-142488471D01*
X54551961Y-142512916D01*
X54606386Y-142548612D01*
X54672798Y-142592947D01*
X54747225Y-142643311D01*
X54764601Y-142655160D01*
X55011297Y-142823626D01*
X55122706Y-142773062D01*
X55190457Y-142743595D01*
X55263183Y-142713959D01*
X55325703Y-142690330D01*
X55328457Y-142689358D01*
X55377360Y-142671457D01*
X55415057Y-142656320D01*
X55433425Y-142647210D01*
X55433456Y-142647184D01*
X55439285Y-142630717D01*
X55449192Y-142590219D01*
X55462195Y-142530242D01*
X55477309Y-142455340D01*
X55493552Y-142370064D01*
X55494881Y-142362875D01*
X55511175Y-142275014D01*
X55526133Y-142195260D01*
X55538791Y-142128681D01*
X55548186Y-142080347D01*
X55553354Y-142055325D01*
X55553444Y-142054943D01*
X55556589Y-142044299D01*
X55562704Y-142036262D01*
X55575453Y-142030467D01*
X55598500Y-142026547D01*
X55635509Y-142024135D01*
X55690144Y-142022865D01*
X55766067Y-142022371D01*
X55866944Y-142022286D01*
X55880000Y-142022286D01*
X55983910Y-142022348D01*
G36*
X59033595Y-146746966D02*
G01*
X59091021Y-146784497D01*
X59118719Y-146818096D01*
X59140662Y-146879064D01*
X59142405Y-146927308D01*
X59138457Y-146991816D01*
X58989686Y-147056934D01*
X58917349Y-147090202D01*
X58870084Y-147116964D01*
X58845507Y-147140144D01*
X58841237Y-147162667D01*
X58854889Y-147187455D01*
X58869943Y-147203886D01*
X58913746Y-147230235D01*
X58961389Y-147232081D01*
X59005145Y-147211546D01*
X59037289Y-147170752D01*
X59043038Y-147156347D01*
X59070576Y-147111356D01*
X59102258Y-147092182D01*
X59145714Y-147075779D01*
X59145714Y-147137966D01*
X59141872Y-147180283D01*
X59126823Y-147215969D01*
X59095280Y-147256943D01*
X59090592Y-147262267D01*
X59055506Y-147298720D01*
X59025347Y-147318283D01*
X58987615Y-147327283D01*
X58956335Y-147330230D01*
X58900385Y-147330965D01*
X58860555Y-147321660D01*
X58835708Y-147307846D01*
X58796656Y-147277467D01*
X58769625Y-147244613D01*
X58752517Y-147203294D01*
X58743238Y-147147521D01*
X58739693Y-147071305D01*
X58739410Y-147032622D01*
X58740372Y-146986247D01*
X58828007Y-146986247D01*
X58829023Y-147011126D01*
X58831556Y-147015200D01*
X58848274Y-147009665D01*
X58884249Y-146995017D01*
X58932331Y-146974190D01*
X58942386Y-146969714D01*
X59003152Y-146938814D01*
X59036632Y-146911657D01*
X59043990Y-146886220D01*
X59026391Y-146860481D01*
X59011856Y-146849109D01*
X58959410Y-146826364D01*
X58910322Y-146830122D01*
X58869227Y-146857884D01*
X58840758Y-146907152D01*
X58831631Y-146946257D01*
X58828007Y-146986247D01*
X58740372Y-146986247D01*
X58741285Y-146942249D01*
X58748196Y-146875384D01*
X58761884Y-146826695D01*
X58784096Y-146790849D01*
X58816574Y-146762513D01*
X58830733Y-146753355D01*
X58895053Y-146729507D01*
X58965473Y-146728006D01*
X59033595Y-146746966D01*
X59033595Y-146746966D01*
G37*
X59033595Y-146746966D02*
X59091021Y-146784497D01*
X59118719Y-146818096D01*
X59140662Y-146879064D01*
X59142405Y-146927308D01*
X59138457Y-146991816D01*
X58989686Y-147056934D01*
X58917349Y-147090202D01*
X58870084Y-147116964D01*
X58845507Y-147140144D01*
X58841237Y-147162667D01*
X58854889Y-147187455D01*
X58869943Y-147203886D01*
X58913746Y-147230235D01*
X58961389Y-147232081D01*
X59005145Y-147211546D01*
X59037289Y-147170752D01*
X59043038Y-147156347D01*
X59070576Y-147111356D01*
X59102258Y-147092182D01*
X59145714Y-147075779D01*
X59145714Y-147137966D01*
X59141872Y-147180283D01*
X59126823Y-147215969D01*
X59095280Y-147256943D01*
X59090592Y-147262267D01*
X59055506Y-147298720D01*
X59025347Y-147318283D01*
X58987615Y-147327283D01*
X58956335Y-147330230D01*
X58900385Y-147330965D01*
X58860555Y-147321660D01*
X58835708Y-147307846D01*
X58796656Y-147277467D01*
X58769625Y-147244613D01*
X58752517Y-147203294D01*
X58743238Y-147147521D01*
X58739693Y-147071305D01*
X58739410Y-147032622D01*
X58740372Y-146986247D01*
X58828007Y-146986247D01*
X58829023Y-147011126D01*
X58831556Y-147015200D01*
X58848274Y-147009665D01*
X58884249Y-146995017D01*
X58932331Y-146974190D01*
X58942386Y-146969714D01*
X59003152Y-146938814D01*
X59036632Y-146911657D01*
X59043990Y-146886220D01*
X59026391Y-146860481D01*
X59011856Y-146849109D01*
X58959410Y-146826364D01*
X58910322Y-146830122D01*
X58869227Y-146857884D01*
X58840758Y-146907152D01*
X58831631Y-146946257D01*
X58828007Y-146986247D01*
X58740372Y-146986247D01*
X58741285Y-146942249D01*
X58748196Y-146875384D01*
X58761884Y-146826695D01*
X58784096Y-146790849D01*
X58816574Y-146762513D01*
X58830733Y-146753355D01*
X58895053Y-146729507D01*
X58965473Y-146728006D01*
X59033595Y-146746966D01*
G36*
X58532600Y-146738752D02*
G01*
X58549948Y-146746334D01*
X58591356Y-146779128D01*
X58626765Y-146826547D01*
X58648664Y-146877151D01*
X58652229Y-146902098D01*
X58640279Y-146936927D01*
X58614067Y-146955357D01*
X58585964Y-146966516D01*
X58573095Y-146968572D01*
X58566829Y-146953649D01*
X58554456Y-146921175D01*
X58549028Y-146906502D01*
X58518590Y-146855744D01*
X58474520Y-146830427D01*
X58418010Y-146831206D01*
X58413825Y-146832203D01*
X58383655Y-146846507D01*
X58361476Y-146874393D01*
X58346327Y-146919287D01*
X58337250Y-146984615D01*
X58333286Y-147073804D01*
X58332914Y-147121261D01*
X58332730Y-147196071D01*
X58331522Y-147247069D01*
X58328309Y-147279471D01*
X58322109Y-147298495D01*
X58311940Y-147309356D01*
X58296819Y-147317272D01*
X58295946Y-147317670D01*
X58266828Y-147329981D01*
X58252403Y-147334514D01*
X58250186Y-147320809D01*
X58248289Y-147282925D01*
X58246847Y-147225715D01*
X58245998Y-147154027D01*
X58245829Y-147101565D01*
X58246692Y-147000047D01*
X58250070Y-146923032D01*
X58257142Y-146866023D01*
X58269088Y-146824526D01*
X58287090Y-146794043D01*
X58312327Y-146770080D01*
X58337247Y-146753355D01*
X58397171Y-146731097D01*
X58466911Y-146726076D01*
X58532600Y-146738752D01*
X58532600Y-146738752D01*
G37*
X58532600Y-146738752D02*
X58549948Y-146746334D01*
X58591356Y-146779128D01*
X58626765Y-146826547D01*
X58648664Y-146877151D01*
X58652229Y-146902098D01*
X58640279Y-146936927D01*
X58614067Y-146955357D01*
X58585964Y-146966516D01*
X58573095Y-146968572D01*
X58566829Y-146953649D01*
X58554456Y-146921175D01*
X58549028Y-146906502D01*
X58518590Y-146855744D01*
X58474520Y-146830427D01*
X58418010Y-146831206D01*
X58413825Y-146832203D01*
X58383655Y-146846507D01*
X58361476Y-146874393D01*
X58346327Y-146919287D01*
X58337250Y-146984615D01*
X58333286Y-147073804D01*
X58332914Y-147121261D01*
X58332730Y-147196071D01*
X58331522Y-147247069D01*
X58328309Y-147279471D01*
X58322109Y-147298495D01*
X58311940Y-147309356D01*
X58296819Y-147317272D01*
X58295946Y-147317670D01*
X58266828Y-147329981D01*
X58252403Y-147334514D01*
X58250186Y-147320809D01*
X58248289Y-147282925D01*
X58246847Y-147225715D01*
X58245998Y-147154027D01*
X58245829Y-147101565D01*
X58246692Y-147000047D01*
X58250070Y-146923032D01*
X58257142Y-146866023D01*
X58269088Y-146824526D01*
X58287090Y-146794043D01*
X58312327Y-146770080D01*
X58337247Y-146753355D01*
X58397171Y-146731097D01*
X58466911Y-146726076D01*
X58532600Y-146738752D01*
G36*
X58024876Y-146736335D02*
G01*
X58066667Y-146755344D01*
X58099469Y-146778378D01*
X58123503Y-146804133D01*
X58140097Y-146837358D01*
X58150577Y-146882800D01*
X58156271Y-146945207D01*
X58158507Y-147029327D01*
X58158743Y-147084721D01*
X58158743Y-147300826D01*
X58121774Y-147317670D01*
X58092656Y-147329981D01*
X58078231Y-147334514D01*
X58075472Y-147321025D01*
X58073282Y-147284653D01*
X58071942Y-147231542D01*
X58071657Y-147189372D01*
X58070434Y-147128447D01*
X58067136Y-147080115D01*
X58062321Y-147050518D01*
X58058496Y-147044229D01*
X58032783Y-147050652D01*
X57992418Y-147067125D01*
X57945679Y-147089458D01*
X57900845Y-147113457D01*
X57866193Y-147134930D01*
X57850002Y-147149685D01*
X57849938Y-147149845D01*
X57851330Y-147177152D01*
X57863818Y-147203219D01*
X57885743Y-147224392D01*
X57917743Y-147231474D01*
X57945092Y-147230649D01*
X57983826Y-147230042D01*
X58004158Y-147239116D01*
X58016369Y-147263092D01*
X58017909Y-147267613D01*
X58023203Y-147301806D01*
X58009047Y-147322568D01*
X57972148Y-147332462D01*
X57932289Y-147334292D01*
X57860562Y-147320727D01*
X57823432Y-147301355D01*
X57777576Y-147255845D01*
X57753256Y-147199983D01*
X57751073Y-147140957D01*
X57771629Y-147085953D01*
X57802549Y-147051486D01*
X57833420Y-147032189D01*
X57881942Y-147007759D01*
X57938485Y-146982985D01*
X57947910Y-146979199D01*
X58010019Y-146951791D01*
X58045822Y-146927634D01*
X58057337Y-146903619D01*
X58046580Y-146876635D01*
X58028114Y-146855543D01*
X57984469Y-146829572D01*
X57936446Y-146827624D01*
X57892406Y-146847637D01*
X57860709Y-146887551D01*
X57856549Y-146897848D01*
X57832327Y-146935724D01*
X57796965Y-146963842D01*
X57752343Y-146986917D01*
X57752343Y-146921485D01*
X57754969Y-146881506D01*
X57766230Y-146849997D01*
X57791199Y-146816378D01*
X57815169Y-146790484D01*
X57852441Y-146753817D01*
X57881401Y-146734121D01*
X57912505Y-146726220D01*
X57947713Y-146724914D01*
X58024876Y-146736335D01*
X58024876Y-146736335D01*
G37*
X58024876Y-146736335D02*
X58066667Y-146755344D01*
X58099469Y-146778378D01*
X58123503Y-146804133D01*
X58140097Y-146837358D01*
X58150577Y-146882800D01*
X58156271Y-146945207D01*
X58158507Y-147029327D01*
X58158743Y-147084721D01*
X58158743Y-147300826D01*
X58121774Y-147317670D01*
X58092656Y-147329981D01*
X58078231Y-147334514D01*
X58075472Y-147321025D01*
X58073282Y-147284653D01*
X58071942Y-147231542D01*
X58071657Y-147189372D01*
X58070434Y-147128447D01*
X58067136Y-147080115D01*
X58062321Y-147050518D01*
X58058496Y-147044229D01*
X58032783Y-147050652D01*
X57992418Y-147067125D01*
X57945679Y-147089458D01*
X57900845Y-147113457D01*
X57866193Y-147134930D01*
X57850002Y-147149685D01*
X57849938Y-147149845D01*
X57851330Y-147177152D01*
X57863818Y-147203219D01*
X57885743Y-147224392D01*
X57917743Y-147231474D01*
X57945092Y-147230649D01*
X57983826Y-147230042D01*
X58004158Y-147239116D01*
X58016369Y-147263092D01*
X58017909Y-147267613D01*
X58023203Y-147301806D01*
X58009047Y-147322568D01*
X57972148Y-147332462D01*
X57932289Y-147334292D01*
X57860562Y-147320727D01*
X57823432Y-147301355D01*
X57777576Y-147255845D01*
X57753256Y-147199983D01*
X57751073Y-147140957D01*
X57771629Y-147085953D01*
X57802549Y-147051486D01*
X57833420Y-147032189D01*
X57881942Y-147007759D01*
X57938485Y-146982985D01*
X57947910Y-146979199D01*
X58010019Y-146951791D01*
X58045822Y-146927634D01*
X58057337Y-146903619D01*
X58046580Y-146876635D01*
X58028114Y-146855543D01*
X57984469Y-146829572D01*
X57936446Y-146827624D01*
X57892406Y-146847637D01*
X57860709Y-146887551D01*
X57856549Y-146897848D01*
X57832327Y-146935724D01*
X57796965Y-146963842D01*
X57752343Y-146986917D01*
X57752343Y-146921485D01*
X57754969Y-146881506D01*
X57766230Y-146849997D01*
X57791199Y-146816378D01*
X57815169Y-146790484D01*
X57852441Y-146753817D01*
X57881401Y-146734121D01*
X57912505Y-146726220D01*
X57947713Y-146724914D01*
X58024876Y-146736335D01*
G36*
X57659833Y-146738663D02*
G01*
X57662048Y-146776850D01*
X57663784Y-146834886D01*
X57664899Y-146908180D01*
X57665257Y-146985055D01*
X57665257Y-147245196D01*
X57619326Y-147291127D01*
X57587675Y-147319429D01*
X57559890Y-147330893D01*
X57521915Y-147330168D01*
X57506840Y-147328321D01*
X57459726Y-147322948D01*
X57420756Y-147319869D01*
X57411257Y-147319585D01*
X57379233Y-147321445D01*
X57333432Y-147326114D01*
X57315674Y-147328321D01*
X57272057Y-147331735D01*
X57242745Y-147324320D01*
X57213680Y-147301427D01*
X57203188Y-147291127D01*
X57157257Y-147245196D01*
X57157257Y-146758602D01*
X57194226Y-146741758D01*
X57226059Y-146729282D01*
X57244683Y-146724914D01*
X57249458Y-146738718D01*
X57253921Y-146777286D01*
X57257775Y-146836356D01*
X57260722Y-146911663D01*
X57262143Y-146975286D01*
X57266114Y-147225657D01*
X57300759Y-147230556D01*
X57332268Y-147227131D01*
X57347708Y-147216041D01*
X57352023Y-147195308D01*
X57355708Y-147151145D01*
X57358469Y-147089146D01*
X57360012Y-147014909D01*
X57360235Y-146976706D01*
X57360457Y-146756783D01*
X57406166Y-146740849D01*
X57438518Y-146730015D01*
X57456115Y-146724962D01*
X57456623Y-146724914D01*
X57458388Y-146738648D01*
X57460329Y-146776730D01*
X57462282Y-146834482D01*
X57464084Y-146907227D01*
X57465343Y-146975286D01*
X57469314Y-147225657D01*
X57556400Y-147225657D01*
X57560396Y-146997240D01*
X57564392Y-146768822D01*
X57606847Y-146746868D01*
X57638192Y-146731793D01*
X57656744Y-146724951D01*
X57657279Y-146724914D01*
X57659833Y-146738663D01*
X57659833Y-146738663D01*
G37*
X57659833Y-146738663D02*
X57662048Y-146776850D01*
X57663784Y-146834886D01*
X57664899Y-146908180D01*
X57665257Y-146985055D01*
X57665257Y-147245196D01*
X57619326Y-147291127D01*
X57587675Y-147319429D01*
X57559890Y-147330893D01*
X57521915Y-147330168D01*
X57506840Y-147328321D01*
X57459726Y-147322948D01*
X57420756Y-147319869D01*
X57411257Y-147319585D01*
X57379233Y-147321445D01*
X57333432Y-147326114D01*
X57315674Y-147328321D01*
X57272057Y-147331735D01*
X57242745Y-147324320D01*
X57213680Y-147301427D01*
X57203188Y-147291127D01*
X57157257Y-147245196D01*
X57157257Y-146758602D01*
X57194226Y-146741758D01*
X57226059Y-146729282D01*
X57244683Y-146724914D01*
X57249458Y-146738718D01*
X57253921Y-146777286D01*
X57257775Y-146836356D01*
X57260722Y-146911663D01*
X57262143Y-146975286D01*
X57266114Y-147225657D01*
X57300759Y-147230556D01*
X57332268Y-147227131D01*
X57347708Y-147216041D01*
X57352023Y-147195308D01*
X57355708Y-147151145D01*
X57358469Y-147089146D01*
X57360012Y-147014909D01*
X57360235Y-146976706D01*
X57360457Y-146756783D01*
X57406166Y-146740849D01*
X57438518Y-146730015D01*
X57456115Y-146724962D01*
X57456623Y-146724914D01*
X57458388Y-146738648D01*
X57460329Y-146776730D01*
X57462282Y-146834482D01*
X57464084Y-146907227D01*
X57465343Y-146975286D01*
X57469314Y-147225657D01*
X57556400Y-147225657D01*
X57560396Y-146997240D01*
X57564392Y-146768822D01*
X57606847Y-146746868D01*
X57638192Y-146731793D01*
X57656744Y-146724951D01*
X57657279Y-146724914D01*
X57659833Y-146738663D01*
G36*
X57070117Y-146845358D02*
G01*
X57069933Y-146953837D01*
X57069219Y-147037287D01*
X57067675Y-147099704D01*
X57065001Y-147145085D01*
X57060894Y-147177429D01*
X57055055Y-147200733D01*
X57047182Y-147218995D01*
X57041221Y-147229418D01*
X56991855Y-147285945D01*
X56929264Y-147321377D01*
X56860013Y-147334090D01*
X56790668Y-147322463D01*
X56749375Y-147301568D01*
X56706025Y-147265422D01*
X56676481Y-147221276D01*
X56658655Y-147163462D01*
X56650463Y-147086313D01*
X56649302Y-147029714D01*
X56649458Y-147025647D01*
X56750857Y-147025647D01*
X56751476Y-147090550D01*
X56754314Y-147133514D01*
X56760840Y-147161622D01*
X56772523Y-147181953D01*
X56786483Y-147197288D01*
X56833365Y-147226890D01*
X56883701Y-147229419D01*
X56931276Y-147204705D01*
X56934979Y-147201356D01*
X56950783Y-147183935D01*
X56960693Y-147163209D01*
X56966058Y-147132362D01*
X56968228Y-147084577D01*
X56968571Y-147031748D01*
X56967827Y-146965381D01*
X56964748Y-146921106D01*
X56958061Y-146892009D01*
X56946496Y-146871173D01*
X56937013Y-146860107D01*
X56892960Y-146832198D01*
X56842224Y-146828843D01*
X56793796Y-146850159D01*
X56784450Y-146858073D01*
X56768540Y-146875647D01*
X56758610Y-146896587D01*
X56753278Y-146927782D01*
X56751163Y-146976122D01*
X56750857Y-147025647D01*
X56649458Y-147025647D01*
X56652810Y-146938568D01*
X56664726Y-146870086D01*
X56687135Y-146818600D01*
X56722124Y-146778443D01*
X56749375Y-146757861D01*
X56798907Y-146735625D01*
X56856316Y-146725304D01*
X56909682Y-146728067D01*
X56939543Y-146739212D01*
X56951261Y-146742383D01*
X56959037Y-146730557D01*
X56964465Y-146698866D01*
X56968571Y-146650593D01*
X56973067Y-146596829D01*
X56979313Y-146564482D01*
X56990676Y-146545985D01*
X57010528Y-146533770D01*
X57023000Y-146528362D01*
X57070171Y-146508601D01*
X57070117Y-146845358D01*
X57070117Y-146845358D01*
G37*
X57070117Y-146845358D02*
X57069933Y-146953837D01*
X57069219Y-147037287D01*
X57067675Y-147099704D01*
X57065001Y-147145085D01*
X57060894Y-147177429D01*
X57055055Y-147200733D01*
X57047182Y-147218995D01*
X57041221Y-147229418D01*
X56991855Y-147285945D01*
X56929264Y-147321377D01*
X56860013Y-147334090D01*
X56790668Y-147322463D01*
X56749375Y-147301568D01*
X56706025Y-147265422D01*
X56676481Y-147221276D01*
X56658655Y-147163462D01*
X56650463Y-147086313D01*
X56649302Y-147029714D01*
X56649458Y-147025647D01*
X56750857Y-147025647D01*
X56751476Y-147090550D01*
X56754314Y-147133514D01*
X56760840Y-147161622D01*
X56772523Y-147181953D01*
X56786483Y-147197288D01*
X56833365Y-147226890D01*
X56883701Y-147229419D01*
X56931276Y-147204705D01*
X56934979Y-147201356D01*
X56950783Y-147183935D01*
X56960693Y-147163209D01*
X56966058Y-147132362D01*
X56968228Y-147084577D01*
X56968571Y-147031748D01*
X56967827Y-146965381D01*
X56964748Y-146921106D01*
X56958061Y-146892009D01*
X56946496Y-146871173D01*
X56937013Y-146860107D01*
X56892960Y-146832198D01*
X56842224Y-146828843D01*
X56793796Y-146850159D01*
X56784450Y-146858073D01*
X56768540Y-146875647D01*
X56758610Y-146896587D01*
X56753278Y-146927782D01*
X56751163Y-146976122D01*
X56750857Y-147025647D01*
X56649458Y-147025647D01*
X56652810Y-146938568D01*
X56664726Y-146870086D01*
X56687135Y-146818600D01*
X56722124Y-146778443D01*
X56749375Y-146757861D01*
X56798907Y-146735625D01*
X56856316Y-146725304D01*
X56909682Y-146728067D01*
X56939543Y-146739212D01*
X56951261Y-146742383D01*
X56959037Y-146730557D01*
X56964465Y-146698866D01*
X56968571Y-146650593D01*
X56973067Y-146596829D01*
X56979313Y-146564482D01*
X56990676Y-146545985D01*
X57010528Y-146533770D01*
X57023000Y-146528362D01*
X57070171Y-146508601D01*
X57070117Y-146845358D01*
G36*
X56409926Y-146729755D02*
G01*
X56475858Y-146754084D01*
X56529273Y-146797117D01*
X56550164Y-146827409D01*
X56572939Y-146882994D01*
X56572466Y-146923186D01*
X56548562Y-146950217D01*
X56539717Y-146954813D01*
X56501530Y-146969144D01*
X56482028Y-146965472D01*
X56475422Y-146941407D01*
X56475086Y-146928114D01*
X56462992Y-146879210D01*
X56431471Y-146844999D01*
X56387659Y-146828476D01*
X56338695Y-146832634D01*
X56298894Y-146854227D01*
X56285450Y-146866544D01*
X56275921Y-146881487D01*
X56269485Y-146904075D01*
X56265317Y-146939328D01*
X56262597Y-146992266D01*
X56260502Y-147067907D01*
X56259960Y-147091857D01*
X56257981Y-147173790D01*
X56255731Y-147231455D01*
X56252357Y-147269608D01*
X56247006Y-147293004D01*
X56238824Y-147306398D01*
X56226959Y-147314545D01*
X56219362Y-147318144D01*
X56187102Y-147330452D01*
X56168111Y-147334514D01*
X56161836Y-147320948D01*
X56158006Y-147279934D01*
X56156600Y-147210999D01*
X56157598Y-147113669D01*
X56157908Y-147098657D01*
X56160101Y-147009859D01*
X56162693Y-146945019D01*
X56166382Y-146899067D01*
X56171864Y-146866935D01*
X56179835Y-146843553D01*
X56190993Y-146823852D01*
X56196830Y-146815410D01*
X56230296Y-146778057D01*
X56267727Y-146749003D01*
X56272309Y-146746467D01*
X56339426Y-146726443D01*
X56409926Y-146729755D01*
X56409926Y-146729755D01*
G37*
X56409926Y-146729755D02*
X56475858Y-146754084D01*
X56529273Y-146797117D01*
X56550164Y-146827409D01*
X56572939Y-146882994D01*
X56572466Y-146923186D01*
X56548562Y-146950217D01*
X56539717Y-146954813D01*
X56501530Y-146969144D01*
X56482028Y-146965472D01*
X56475422Y-146941407D01*
X56475086Y-146928114D01*
X56462992Y-146879210D01*
X56431471Y-146844999D01*
X56387659Y-146828476D01*
X56338695Y-146832634D01*
X56298894Y-146854227D01*
X56285450Y-146866544D01*
X56275921Y-146881487D01*
X56269485Y-146904075D01*
X56265317Y-146939328D01*
X56262597Y-146992266D01*
X56260502Y-147067907D01*
X56259960Y-147091857D01*
X56257981Y-147173790D01*
X56255731Y-147231455D01*
X56252357Y-147269608D01*
X56247006Y-147293004D01*
X56238824Y-147306398D01*
X56226959Y-147314545D01*
X56219362Y-147318144D01*
X56187102Y-147330452D01*
X56168111Y-147334514D01*
X56161836Y-147320948D01*
X56158006Y-147279934D01*
X56156600Y-147210999D01*
X56157598Y-147113669D01*
X56157908Y-147098657D01*
X56160101Y-147009859D01*
X56162693Y-146945019D01*
X56166382Y-146899067D01*
X56171864Y-146866935D01*
X56179835Y-146843553D01*
X56190993Y-146823852D01*
X56196830Y-146815410D01*
X56230296Y-146778057D01*
X56267727Y-146749003D01*
X56272309Y-146746467D01*
X56339426Y-146726443D01*
X56409926Y-146729755D01*
G36*
X55919744Y-146730968D02*
G01*
X55976616Y-146752087D01*
X55977267Y-146752493D01*
X56012440Y-146778380D01*
X56038407Y-146808633D01*
X56056670Y-146848058D01*
X56068732Y-146901462D01*
X56076096Y-146973651D01*
X56080264Y-147069432D01*
X56080629Y-147083078D01*
X56085876Y-147288842D01*
X56041716Y-147311678D01*
X56009763Y-147327110D01*
X55990470Y-147334423D01*
X55989578Y-147334514D01*
X55986239Y-147321022D01*
X55983587Y-147284626D01*
X55981956Y-147231452D01*
X55981600Y-147188393D01*
X55981592Y-147118641D01*
X55978403Y-147074837D01*
X55967288Y-147053944D01*
X55943501Y-147052925D01*
X55902296Y-147068741D01*
X55840086Y-147097815D01*
X55794341Y-147121963D01*
X55770813Y-147142913D01*
X55763896Y-147165747D01*
X55763886Y-147166877D01*
X55775299Y-147206212D01*
X55809092Y-147227462D01*
X55860809Y-147230539D01*
X55898061Y-147230006D01*
X55917703Y-147240735D01*
X55929952Y-147266505D01*
X55937002Y-147299337D01*
X55926842Y-147317966D01*
X55923017Y-147320632D01*
X55887001Y-147331340D01*
X55836566Y-147332856D01*
X55784626Y-147325759D01*
X55747822Y-147312788D01*
X55696938Y-147269585D01*
X55668014Y-147209446D01*
X55662286Y-147162462D01*
X55666657Y-147120082D01*
X55682475Y-147085488D01*
X55713797Y-147054763D01*
X55764678Y-147023990D01*
X55839176Y-146989252D01*
X55843714Y-146987288D01*
X55910821Y-146956287D01*
X55952232Y-146930862D01*
X55969981Y-146908014D01*
X55966107Y-146884745D01*
X55942643Y-146858056D01*
X55935627Y-146851914D01*
X55888630Y-146828100D01*
X55839933Y-146829103D01*
X55797522Y-146852451D01*
X55769384Y-146895675D01*
X55766769Y-146904160D01*
X55741308Y-146945308D01*
X55709001Y-146965128D01*
X55662286Y-146984770D01*
X55662286Y-146933950D01*
X55676496Y-146860082D01*
X55718675Y-146792327D01*
X55740624Y-146769661D01*
X55790517Y-146740569D01*
X55853967Y-146727400D01*
X55919744Y-146730968D01*
X55919744Y-146730968D01*
G37*
X55919744Y-146730968D02*
X55976616Y-146752087D01*
X55977267Y-146752493D01*
X56012440Y-146778380D01*
X56038407Y-146808633D01*
X56056670Y-146848058D01*
X56068732Y-146901462D01*
X56076096Y-146973651D01*
X56080264Y-147069432D01*
X56080629Y-147083078D01*
X56085876Y-147288842D01*
X56041716Y-147311678D01*
X56009763Y-147327110D01*
X55990470Y-147334423D01*
X55989578Y-147334514D01*
X55986239Y-147321022D01*
X55983587Y-147284626D01*
X55981956Y-147231452D01*
X55981600Y-147188393D01*
X55981592Y-147118641D01*
X55978403Y-147074837D01*
X55967288Y-147053944D01*
X55943501Y-147052925D01*
X55902296Y-147068741D01*
X55840086Y-147097815D01*
X55794341Y-147121963D01*
X55770813Y-147142913D01*
X55763896Y-147165747D01*
X55763886Y-147166877D01*
X55775299Y-147206212D01*
X55809092Y-147227462D01*
X55860809Y-147230539D01*
X55898061Y-147230006D01*
X55917703Y-147240735D01*
X55929952Y-147266505D01*
X55937002Y-147299337D01*
X55926842Y-147317966D01*
X55923017Y-147320632D01*
X55887001Y-147331340D01*
X55836566Y-147332856D01*
X55784626Y-147325759D01*
X55747822Y-147312788D01*
X55696938Y-147269585D01*
X55668014Y-147209446D01*
X55662286Y-147162462D01*
X55666657Y-147120082D01*
X55682475Y-147085488D01*
X55713797Y-147054763D01*
X55764678Y-147023990D01*
X55839176Y-146989252D01*
X55843714Y-146987288D01*
X55910821Y-146956287D01*
X55952232Y-146930862D01*
X55969981Y-146908014D01*
X55966107Y-146884745D01*
X55942643Y-146858056D01*
X55935627Y-146851914D01*
X55888630Y-146828100D01*
X55839933Y-146829103D01*
X55797522Y-146852451D01*
X55769384Y-146895675D01*
X55766769Y-146904160D01*
X55741308Y-146945308D01*
X55709001Y-146965128D01*
X55662286Y-146984770D01*
X55662286Y-146933950D01*
X55676496Y-146860082D01*
X55718675Y-146792327D01*
X55740624Y-146769661D01*
X55790517Y-146740569D01*
X55853967Y-146727400D01*
X55919744Y-146730968D01*
G36*
X55255886Y-146631289D02*
G01*
X55260139Y-146690613D01*
X55265025Y-146725572D01*
X55271795Y-146740820D01*
X55281702Y-146741015D01*
X55284914Y-146739195D01*
X55327644Y-146726015D01*
X55383227Y-146726785D01*
X55439737Y-146740333D01*
X55475082Y-146757861D01*
X55511321Y-146785861D01*
X55537813Y-146817549D01*
X55555999Y-146857813D01*
X55567322Y-146911543D01*
X55573222Y-146983626D01*
X55575143Y-147078951D01*
X55575177Y-147097237D01*
X55575200Y-147302646D01*
X55529491Y-147318580D01*
X55497027Y-147329420D01*
X55479215Y-147334468D01*
X55478691Y-147334514D01*
X55476937Y-147320828D01*
X55475444Y-147283076D01*
X55474326Y-147226224D01*
X55473697Y-147155234D01*
X55473600Y-147112073D01*
X55473398Y-147026973D01*
X55472358Y-146965981D01*
X55469831Y-146924177D01*
X55465164Y-146896642D01*
X55457707Y-146878456D01*
X55446811Y-146864698D01*
X55440007Y-146858073D01*
X55393272Y-146831375D01*
X55342272Y-146829375D01*
X55296001Y-146851955D01*
X55287444Y-146860107D01*
X55274893Y-146875436D01*
X55266188Y-146893618D01*
X55260631Y-146919909D01*
X55257526Y-146959562D01*
X55256176Y-147017832D01*
X55255886Y-147098173D01*
X55255886Y-147302646D01*
X55210177Y-147318580D01*
X55177713Y-147329420D01*
X55159901Y-147334468D01*
X55159377Y-147334514D01*
X55158037Y-147320623D01*
X55156828Y-147281439D01*
X55155801Y-147220700D01*
X55155002Y-147142141D01*
X55154481Y-147049498D01*
X55154286Y-146946509D01*
X55154286Y-146549342D01*
X55201457Y-146529444D01*
X55248629Y-146509547D01*
X55255886Y-146631289D01*
X55255886Y-146631289D01*
G37*
X55255886Y-146631289D02*
X55260139Y-146690613D01*
X55265025Y-146725572D01*
X55271795Y-146740820D01*
X55281702Y-146741015D01*
X55284914Y-146739195D01*
X55327644Y-146726015D01*
X55383227Y-146726785D01*
X55439737Y-146740333D01*
X55475082Y-146757861D01*
X55511321Y-146785861D01*
X55537813Y-146817549D01*
X55555999Y-146857813D01*
X55567322Y-146911543D01*
X55573222Y-146983626D01*
X55575143Y-147078951D01*
X55575177Y-147097237D01*
X55575200Y-147302646D01*
X55529491Y-147318580D01*
X55497027Y-147329420D01*
X55479215Y-147334468D01*
X55478691Y-147334514D01*
X55476937Y-147320828D01*
X55475444Y-147283076D01*
X55474326Y-147226224D01*
X55473697Y-147155234D01*
X55473600Y-147112073D01*
X55473398Y-147026973D01*
X55472358Y-146965981D01*
X55469831Y-146924177D01*
X55465164Y-146896642D01*
X55457707Y-146878456D01*
X55446811Y-146864698D01*
X55440007Y-146858073D01*
X55393272Y-146831375D01*
X55342272Y-146829375D01*
X55296001Y-146851955D01*
X55287444Y-146860107D01*
X55274893Y-146875436D01*
X55266188Y-146893618D01*
X55260631Y-146919909D01*
X55257526Y-146959562D01*
X55256176Y-147017832D01*
X55255886Y-147098173D01*
X55255886Y-147302646D01*
X55210177Y-147318580D01*
X55177713Y-147329420D01*
X55159901Y-147334468D01*
X55159377Y-147334514D01*
X55158037Y-147320623D01*
X55156828Y-147281439D01*
X55155801Y-147220700D01*
X55155002Y-147142141D01*
X55154481Y-147049498D01*
X55154286Y-146946509D01*
X55154286Y-146549342D01*
X55201457Y-146529444D01*
X55248629Y-146509547D01*
X55255886Y-146631289D01*
G36*
X54048303Y-146711239D02*
G01*
X54105527Y-146749735D01*
X54149749Y-146805335D01*
X54176167Y-146876086D01*
X54181510Y-146928162D01*
X54180903Y-146949893D01*
X54175822Y-146966531D01*
X54161855Y-146981437D01*
X54134589Y-146997973D01*
X54089612Y-147019498D01*
X54022511Y-147049374D01*
X54022171Y-147049524D01*
X53960407Y-147077813D01*
X53909759Y-147102933D01*
X53875404Y-147122179D01*
X53862518Y-147132848D01*
X53862514Y-147132934D01*
X53873872Y-147156166D01*
X53900431Y-147181774D01*
X53930923Y-147200221D01*
X53946370Y-147203886D01*
X53988515Y-147191212D01*
X54024808Y-147159471D01*
X54042517Y-147124572D01*
X54059552Y-147098845D01*
X54092922Y-147069546D01*
X54132149Y-147044235D01*
X54166756Y-147030471D01*
X54173993Y-147029714D01*
X54182139Y-147042160D01*
X54182630Y-147073972D01*
X54176643Y-147116866D01*
X54165357Y-147162558D01*
X54149950Y-147202761D01*
X54149171Y-147204322D01*
X54102804Y-147269062D01*
X54042711Y-147313097D01*
X53974465Y-147334711D01*
X53903638Y-147332185D01*
X53835804Y-147303804D01*
X53832788Y-147301808D01*
X53779427Y-147253448D01*
X53744340Y-147190352D01*
X53724922Y-147107387D01*
X53722316Y-147084078D01*
X53717701Y-146974055D01*
X53723233Y-146922748D01*
X53862514Y-146922748D01*
X53864324Y-146954753D01*
X53874222Y-146964093D01*
X53898898Y-146957105D01*
X53937795Y-146940587D01*
X53981275Y-146919881D01*
X53982356Y-146919333D01*
X54019209Y-146899949D01*
X54034000Y-146887013D01*
X54030353Y-146873451D01*
X54014995Y-146855632D01*
X53975923Y-146829845D01*
X53933846Y-146827950D01*
X53896103Y-146846717D01*
X53870034Y-146882915D01*
X53862514Y-146922748D01*
X53723233Y-146922748D01*
X53727194Y-146886027D01*
X53751550Y-146816212D01*
X53785456Y-146767302D01*
X53846653Y-146717878D01*
X53914063Y-146693359D01*
X53982880Y-146691797D01*
X54048303Y-146711239D01*
X54048303Y-146711239D01*
G37*
X54048303Y-146711239D02*
X54105527Y-146749735D01*
X54149749Y-146805335D01*
X54176167Y-146876086D01*
X54181510Y-146928162D01*
X54180903Y-146949893D01*
X54175822Y-146966531D01*
X54161855Y-146981437D01*
X54134589Y-146997973D01*
X54089612Y-147019498D01*
X54022511Y-147049374D01*
X54022171Y-147049524D01*
X53960407Y-147077813D01*
X53909759Y-147102933D01*
X53875404Y-147122179D01*
X53862518Y-147132848D01*
X53862514Y-147132934D01*
X53873872Y-147156166D01*
X53900431Y-147181774D01*
X53930923Y-147200221D01*
X53946370Y-147203886D01*
X53988515Y-147191212D01*
X54024808Y-147159471D01*
X54042517Y-147124572D01*
X54059552Y-147098845D01*
X54092922Y-147069546D01*
X54132149Y-147044235D01*
X54166756Y-147030471D01*
X54173993Y-147029714D01*
X54182139Y-147042160D01*
X54182630Y-147073972D01*
X54176643Y-147116866D01*
X54165357Y-147162558D01*
X54149950Y-147202761D01*
X54149171Y-147204322D01*
X54102804Y-147269062D01*
X54042711Y-147313097D01*
X53974465Y-147334711D01*
X53903638Y-147332185D01*
X53835804Y-147303804D01*
X53832788Y-147301808D01*
X53779427Y-147253448D01*
X53744340Y-147190352D01*
X53724922Y-147107387D01*
X53722316Y-147084078D01*
X53717701Y-146974055D01*
X53723233Y-146922748D01*
X53862514Y-146922748D01*
X53864324Y-146954753D01*
X53874222Y-146964093D01*
X53898898Y-146957105D01*
X53937795Y-146940587D01*
X53981275Y-146919881D01*
X53982356Y-146919333D01*
X54019209Y-146899949D01*
X54034000Y-146887013D01*
X54030353Y-146873451D01*
X54014995Y-146855632D01*
X53975923Y-146829845D01*
X53933846Y-146827950D01*
X53896103Y-146846717D01*
X53870034Y-146882915D01*
X53862514Y-146922748D01*
X53723233Y-146922748D01*
X53727194Y-146886027D01*
X53751550Y-146816212D01*
X53785456Y-146767302D01*
X53846653Y-146717878D01*
X53914063Y-146693359D01*
X53982880Y-146691797D01*
X54048303Y-146711239D01*
G36*
X52921115Y-146701962D02*
G01*
X52989145Y-146737733D01*
X53039351Y-146795301D01*
X53057185Y-146832312D01*
X53071063Y-146887882D01*
X53078167Y-146958096D01*
X53078840Y-147034727D01*
X53073427Y-147109552D01*
X53062270Y-147174342D01*
X53045714Y-147220873D01*
X53040626Y-147228887D01*
X52980355Y-147288707D01*
X52908769Y-147324535D01*
X52831092Y-147335020D01*
X52752548Y-147318810D01*
X52730689Y-147309092D01*
X52688122Y-147279143D01*
X52650763Y-147239433D01*
X52647232Y-147234397D01*
X52632881Y-147210124D01*
X52623394Y-147184178D01*
X52617790Y-147150022D01*
X52615086Y-147101119D01*
X52614299Y-147030935D01*
X52614286Y-147015200D01*
X52614322Y-147010192D01*
X52759429Y-147010192D01*
X52760273Y-147076430D01*
X52763596Y-147120386D01*
X52770583Y-147148779D01*
X52782416Y-147168325D01*
X52788457Y-147174857D01*
X52823186Y-147199680D01*
X52856903Y-147198548D01*
X52890995Y-147177016D01*
X52911329Y-147154029D01*
X52923371Y-147120478D01*
X52930134Y-147067569D01*
X52930598Y-147061399D01*
X52931752Y-146965513D01*
X52919688Y-146894299D01*
X52894570Y-146848194D01*
X52856560Y-146827635D01*
X52842992Y-146826514D01*
X52807364Y-146832152D01*
X52782994Y-146851686D01*
X52768093Y-146889042D01*
X52760875Y-146948150D01*
X52759429Y-147010192D01*
X52614322Y-147010192D01*
X52614826Y-146940413D01*
X52617096Y-146888159D01*
X52622068Y-146851949D01*
X52630713Y-146825299D01*
X52644005Y-146801722D01*
X52646943Y-146797338D01*
X52696313Y-146738249D01*
X52750109Y-146703947D01*
X52815602Y-146690331D01*
X52837842Y-146689665D01*
X52921115Y-146701962D01*
X52921115Y-146701962D01*
G37*
X52921115Y-146701962D02*
X52989145Y-146737733D01*
X53039351Y-146795301D01*
X53057185Y-146832312D01*
X53071063Y-146887882D01*
X53078167Y-146958096D01*
X53078840Y-147034727D01*
X53073427Y-147109552D01*
X53062270Y-147174342D01*
X53045714Y-147220873D01*
X53040626Y-147228887D01*
X52980355Y-147288707D01*
X52908769Y-147324535D01*
X52831092Y-147335020D01*
X52752548Y-147318810D01*
X52730689Y-147309092D01*
X52688122Y-147279143D01*
X52650763Y-147239433D01*
X52647232Y-147234397D01*
X52632881Y-147210124D01*
X52623394Y-147184178D01*
X52617790Y-147150022D01*
X52615086Y-147101119D01*
X52614299Y-147030935D01*
X52614286Y-147015200D01*
X52614322Y-147010192D01*
X52759429Y-147010192D01*
X52760273Y-147076430D01*
X52763596Y-147120386D01*
X52770583Y-147148779D01*
X52782416Y-147168325D01*
X52788457Y-147174857D01*
X52823186Y-147199680D01*
X52856903Y-147198548D01*
X52890995Y-147177016D01*
X52911329Y-147154029D01*
X52923371Y-147120478D01*
X52930134Y-147067569D01*
X52930598Y-147061399D01*
X52931752Y-146965513D01*
X52919688Y-146894299D01*
X52894570Y-146848194D01*
X52856560Y-146827635D01*
X52842992Y-146826514D01*
X52807364Y-146832152D01*
X52782994Y-146851686D01*
X52768093Y-146889042D01*
X52760875Y-146948150D01*
X52759429Y-147010192D01*
X52614322Y-147010192D01*
X52614826Y-146940413D01*
X52617096Y-146888159D01*
X52622068Y-146851949D01*
X52630713Y-146825299D01*
X52644005Y-146801722D01*
X52646943Y-146797338D01*
X52696313Y-146738249D01*
X52750109Y-146703947D01*
X52815602Y-146690331D01*
X52837842Y-146689665D01*
X52921115Y-146701962D01*
G36*
X54596093Y-146707780D02*
G01*
X54642672Y-146734723D01*
X54675057Y-146761466D01*
X54698742Y-146789484D01*
X54715059Y-146823748D01*
X54725339Y-146869227D01*
X54730914Y-146930892D01*
X54733116Y-147013711D01*
X54733371Y-147073246D01*
X54733371Y-147292391D01*
X54671686Y-147320044D01*
X54610000Y-147347697D01*
X54602743Y-147107670D01*
X54599744Y-147018028D01*
X54596598Y-146952962D01*
X54592701Y-146908026D01*
X54587447Y-146878770D01*
X54580231Y-146860748D01*
X54570450Y-146849511D01*
X54567312Y-146847079D01*
X54519761Y-146828083D01*
X54471697Y-146835600D01*
X54443086Y-146855543D01*
X54431447Y-146869675D01*
X54423391Y-146888220D01*
X54418271Y-146916334D01*
X54415441Y-146959173D01*
X54414256Y-147021895D01*
X54414057Y-147087261D01*
X54414018Y-147169268D01*
X54412614Y-147227316D01*
X54407914Y-147266465D01*
X54397987Y-147291780D01*
X54380903Y-147308323D01*
X54354732Y-147321156D01*
X54319775Y-147334491D01*
X54281596Y-147349007D01*
X54286141Y-147091389D01*
X54287971Y-146998519D01*
X54290112Y-146929889D01*
X54293181Y-146880711D01*
X54297794Y-146846198D01*
X54304568Y-146821562D01*
X54314119Y-146802016D01*
X54325634Y-146784770D01*
X54381190Y-146729680D01*
X54448980Y-146697822D01*
X54522713Y-146690191D01*
X54596093Y-146707780D01*
X54596093Y-146707780D01*
G37*
X54596093Y-146707780D02*
X54642672Y-146734723D01*
X54675057Y-146761466D01*
X54698742Y-146789484D01*
X54715059Y-146823748D01*
X54725339Y-146869227D01*
X54730914Y-146930892D01*
X54733116Y-147013711D01*
X54733371Y-147073246D01*
X54733371Y-147292391D01*
X54671686Y-147320044D01*
X54610000Y-147347697D01*
X54602743Y-147107670D01*
X54599744Y-147018028D01*
X54596598Y-146952962D01*
X54592701Y-146908026D01*
X54587447Y-146878770D01*
X54580231Y-146860748D01*
X54570450Y-146849511D01*
X54567312Y-146847079D01*
X54519761Y-146828083D01*
X54471697Y-146835600D01*
X54443086Y-146855543D01*
X54431447Y-146869675D01*
X54423391Y-146888220D01*
X54418271Y-146916334D01*
X54415441Y-146959173D01*
X54414256Y-147021895D01*
X54414057Y-147087261D01*
X54414018Y-147169268D01*
X54412614Y-147227316D01*
X54407914Y-147266465D01*
X54397987Y-147291780D01*
X54380903Y-147308323D01*
X54354732Y-147321156D01*
X54319775Y-147334491D01*
X54281596Y-147349007D01*
X54286141Y-147091389D01*
X54287971Y-146998519D01*
X54290112Y-146929889D01*
X54293181Y-146880711D01*
X54297794Y-146846198D01*
X54304568Y-146821562D01*
X54314119Y-146802016D01*
X54325634Y-146784770D01*
X54381190Y-146729680D01*
X54448980Y-146697822D01*
X54522713Y-146690191D01*
X54596093Y-146707780D01*
G36*
X53479744Y-146699918D02*
G01*
X53535201Y-146727568D01*
X53584148Y-146778480D01*
X53597629Y-146797338D01*
X53612314Y-146822015D01*
X53621842Y-146848816D01*
X53627293Y-146884587D01*
X53629747Y-146936169D01*
X53630286Y-147004267D01*
X53627852Y-147097588D01*
X53619394Y-147167657D01*
X53603174Y-147219931D01*
X53577454Y-147259869D01*
X53540497Y-147292929D01*
X53537782Y-147294886D01*
X53501360Y-147314908D01*
X53457502Y-147324815D01*
X53401724Y-147327257D01*
X53311048Y-147327257D01*
X53311010Y-147415283D01*
X53310166Y-147464308D01*
X53305024Y-147493065D01*
X53291587Y-147510311D01*
X53265858Y-147524808D01*
X53259679Y-147527769D01*
X53230764Y-147541648D01*
X53208376Y-147550414D01*
X53191729Y-147551171D01*
X53180036Y-147541023D01*
X53172510Y-147517073D01*
X53168366Y-147476426D01*
X53166815Y-147416186D01*
X53167071Y-147333455D01*
X53168349Y-147225339D01*
X53168748Y-147193000D01*
X53170185Y-147081524D01*
X53171472Y-147008603D01*
X53310971Y-147008603D01*
X53311755Y-147070499D01*
X53315240Y-147110997D01*
X53323124Y-147137708D01*
X53337105Y-147158244D01*
X53346597Y-147168260D01*
X53385404Y-147197567D01*
X53419763Y-147199952D01*
X53455216Y-147175750D01*
X53456114Y-147174857D01*
X53470539Y-147156153D01*
X53479313Y-147130732D01*
X53483739Y-147091584D01*
X53485118Y-147031697D01*
X53485143Y-147018430D01*
X53481812Y-146935901D01*
X53470969Y-146878691D01*
X53451340Y-146843766D01*
X53421650Y-146828094D01*
X53404491Y-146826514D01*
X53363766Y-146833926D01*
X53335832Y-146858330D01*
X53319017Y-146902980D01*
X53311650Y-146971130D01*
X53310971Y-147008603D01*
X53171472Y-147008603D01*
X53171708Y-146995245D01*
X53173677Y-146930333D01*
X53176450Y-146882958D01*
X53180388Y-146849290D01*
X53185849Y-146825498D01*
X53193192Y-146807753D01*
X53202777Y-146792224D01*
X53206887Y-146786381D01*
X53261405Y-146731185D01*
X53330336Y-146699890D01*
X53410072Y-146691165D01*
X53479744Y-146699918D01*
X53479744Y-146699918D01*
G37*
X53479744Y-146699918D02*
X53535201Y-146727568D01*
X53584148Y-146778480D01*
X53597629Y-146797338D01*
X53612314Y-146822015D01*
X53621842Y-146848816D01*
X53627293Y-146884587D01*
X53629747Y-146936169D01*
X53630286Y-147004267D01*
X53627852Y-147097588D01*
X53619394Y-147167657D01*
X53603174Y-147219931D01*
X53577454Y-147259869D01*
X53540497Y-147292929D01*
X53537782Y-147294886D01*
X53501360Y-147314908D01*
X53457502Y-147324815D01*
X53401724Y-147327257D01*
X53311048Y-147327257D01*
X53311010Y-147415283D01*
X53310166Y-147464308D01*
X53305024Y-147493065D01*
X53291587Y-147510311D01*
X53265858Y-147524808D01*
X53259679Y-147527769D01*
X53230764Y-147541648D01*
X53208376Y-147550414D01*
X53191729Y-147551171D01*
X53180036Y-147541023D01*
X53172510Y-147517073D01*
X53168366Y-147476426D01*
X53166815Y-147416186D01*
X53167071Y-147333455D01*
X53168349Y-147225339D01*
X53168748Y-147193000D01*
X53170185Y-147081524D01*
X53171472Y-147008603D01*
X53310971Y-147008603D01*
X53311755Y-147070499D01*
X53315240Y-147110997D01*
X53323124Y-147137708D01*
X53337105Y-147158244D01*
X53346597Y-147168260D01*
X53385404Y-147197567D01*
X53419763Y-147199952D01*
X53455216Y-147175750D01*
X53456114Y-147174857D01*
X53470539Y-147156153D01*
X53479313Y-147130732D01*
X53483739Y-147091584D01*
X53485118Y-147031697D01*
X53485143Y-147018430D01*
X53481812Y-146935901D01*
X53470969Y-146878691D01*
X53451340Y-146843766D01*
X53421650Y-146828094D01*
X53404491Y-146826514D01*
X53363766Y-146833926D01*
X53335832Y-146858330D01*
X53319017Y-146902980D01*
X53311650Y-146971130D01*
X53310971Y-147008603D01*
X53171472Y-147008603D01*
X53171708Y-146995245D01*
X53173677Y-146930333D01*
X53176450Y-146882958D01*
X53180388Y-146849290D01*
X53185849Y-146825498D01*
X53193192Y-146807753D01*
X53202777Y-146792224D01*
X53206887Y-146786381D01*
X53261405Y-146731185D01*
X53330336Y-146699890D01*
X53410072Y-146691165D01*
X53479744Y-146699918D01*
D13*
X69215000Y-140335000D02*
X69215000Y-126365000D01*
X83185000Y-140335000D02*
X69215000Y-140335000D01*
X83185000Y-126365000D02*
X83185000Y-140335000D01*
X69215000Y-126365000D02*
X83185000Y-126365000D01*
X43815000Y-140335000D02*
X43815000Y-126365000D01*
X57785000Y-140335000D02*
X43815000Y-140335000D01*
X57785000Y-126365000D02*
X57785000Y-140335000D01*
X43815000Y-126365000D02*
X57785000Y-126365000D01*
X69215000Y-120015000D02*
X69215000Y-106045000D01*
X83185000Y-120015000D02*
X69215000Y-120015000D01*
X83185000Y-106045000D02*
X83185000Y-120015000D01*
X69215000Y-106045000D02*
X83185000Y-106045000D01*
X43815000Y-120015000D02*
X43815000Y-106045000D01*
X57785000Y-120015000D02*
X43815000Y-120015000D01*
X57785000Y-106045000D02*
X57785000Y-120015000D01*
X43815000Y-106045000D02*
X57785000Y-106045000D01*
X69215000Y-99695000D02*
X69215000Y-85725000D01*
X83185000Y-99695000D02*
X69215000Y-99695000D01*
X83185000Y-85725000D02*
X83185000Y-99695000D01*
X69215000Y-85725000D02*
X83185000Y-85725000D01*
X83110000Y-67048748D02*
X83110000Y-67571252D01*
X84530000Y-67048748D02*
X84530000Y-67571252D01*
X50090000Y-60943748D02*
X50090000Y-61466252D01*
X51510000Y-60943748D02*
X51510000Y-61466252D01*
X79300000Y-67048748D02*
X79300000Y-67571252D01*
X80720000Y-67048748D02*
X80720000Y-67571252D01*
X46280000Y-60943748D02*
X46280000Y-61466252D01*
X47700000Y-60943748D02*
X47700000Y-61466252D01*
X75490000Y-67048748D02*
X75490000Y-67571252D01*
X76910000Y-67048748D02*
X76910000Y-67571252D01*
X42470000Y-60943748D02*
X42470000Y-61466252D01*
X43890000Y-60943748D02*
X43890000Y-61466252D01*
X78800000Y-62290000D02*
X77470000Y-62290000D01*
X78800000Y-60960000D02*
X78800000Y-62290000D01*
X78800000Y-59690000D02*
X76140000Y-59690000D01*
X76140000Y-59690000D02*
X76140000Y-57090000D01*
X78800000Y-59690000D02*
X78800000Y-57090000D01*
X78800000Y-57090000D02*
X76140000Y-57090000D01*
X78060000Y-137470000D02*
X75200000Y-137470000D01*
X78060000Y-139390000D02*
X78060000Y-137470000D01*
X75200000Y-139390000D02*
X78060000Y-139390000D01*
X52415000Y-137470000D02*
X49555000Y-137470000D01*
X52415000Y-139390000D02*
X52415000Y-137470000D01*
X49555000Y-139390000D02*
X52415000Y-139390000D01*
X78060000Y-117150000D02*
X75200000Y-117150000D01*
X78060000Y-119070000D02*
X78060000Y-117150000D01*
X75200000Y-119070000D02*
X78060000Y-119070000D01*
X52905000Y-117150000D02*
X50045000Y-117150000D01*
X52905000Y-119070000D02*
X52905000Y-117150000D01*
X50045000Y-119070000D02*
X52905000Y-119070000D01*
X77815000Y-96830000D02*
X74955000Y-96830000D01*
X77815000Y-98750000D02*
X77815000Y-96830000D01*
X74955000Y-98750000D02*
X77815000Y-98750000D01*
X52905000Y-96830000D02*
X50045000Y-96830000D01*
X52905000Y-98750000D02*
X52905000Y-96830000D01*
X50045000Y-98750000D02*
X52905000Y-98750000D01*
X55880000Y-49470000D02*
X57210000Y-49470000D01*
X57210000Y-49470000D02*
X57210000Y-50800000D01*
X57210000Y-52070000D02*
X57210000Y-80070000D01*
X54550000Y-80070000D02*
X57210000Y-80070000D01*
X54550000Y-52070000D02*
X54550000Y-80070000D01*
X54550000Y-52070000D02*
X57210000Y-52070000D01*
X71120000Y-49470000D02*
X72450000Y-49470000D01*
X72450000Y-49470000D02*
X72450000Y-50800000D01*
X72450000Y-52070000D02*
X72450000Y-80070000D01*
X69790000Y-80070000D02*
X72450000Y-80070000D01*
X69790000Y-52070000D02*
X69790000Y-80070000D01*
X69790000Y-52070000D02*
X72450000Y-52070000D01*
D10*
X49466666Y-85240761D02*
X49609523Y-85288380D01*
X49847619Y-85288380D01*
X49942857Y-85240761D01*
X49990476Y-85193142D01*
X50038095Y-85097904D01*
X50038095Y-85002666D01*
X49990476Y-84907428D01*
X49942857Y-84859809D01*
X49847619Y-84812190D01*
X49657142Y-84764571D01*
X49561904Y-84716952D01*
X49514285Y-84669333D01*
X49466666Y-84574095D01*
X49466666Y-84478857D01*
X49514285Y-84383619D01*
X49561904Y-84336000D01*
X49657142Y-84288380D01*
X49895238Y-84288380D01*
X50038095Y-84336000D01*
X50371428Y-84288380D02*
X50609523Y-85288380D01*
X50800000Y-84574095D01*
X50990476Y-85288380D01*
X51228571Y-84288380D01*
X52133333Y-85288380D02*
X51561904Y-85288380D01*
X51847619Y-85288380D02*
X51847619Y-84288380D01*
X51752380Y-84431238D01*
X51657142Y-84526476D01*
X51561904Y-84574095D01*
X74866666Y-125880761D02*
X75009523Y-125928380D01*
X75247619Y-125928380D01*
X75342857Y-125880761D01*
X75390476Y-125833142D01*
X75438095Y-125737904D01*
X75438095Y-125642666D01*
X75390476Y-125547428D01*
X75342857Y-125499809D01*
X75247619Y-125452190D01*
X75057142Y-125404571D01*
X74961904Y-125356952D01*
X74914285Y-125309333D01*
X74866666Y-125214095D01*
X74866666Y-125118857D01*
X74914285Y-125023619D01*
X74961904Y-124976000D01*
X75057142Y-124928380D01*
X75295238Y-124928380D01*
X75438095Y-124976000D01*
X75771428Y-124928380D02*
X76009523Y-125928380D01*
X76200000Y-125214095D01*
X76390476Y-125928380D01*
X76628571Y-124928380D01*
X77438095Y-124928380D02*
X77247619Y-124928380D01*
X77152380Y-124976000D01*
X77104761Y-125023619D01*
X77009523Y-125166476D01*
X76961904Y-125356952D01*
X76961904Y-125737904D01*
X77009523Y-125833142D01*
X77057142Y-125880761D01*
X77152380Y-125928380D01*
X77342857Y-125928380D01*
X77438095Y-125880761D01*
X77485714Y-125833142D01*
X77533333Y-125737904D01*
X77533333Y-125499809D01*
X77485714Y-125404571D01*
X77438095Y-125356952D01*
X77342857Y-125309333D01*
X77152380Y-125309333D01*
X77057142Y-125356952D01*
X77009523Y-125404571D01*
X76961904Y-125499809D01*
X49466666Y-125880761D02*
X49609523Y-125928380D01*
X49847619Y-125928380D01*
X49942857Y-125880761D01*
X49990476Y-125833142D01*
X50038095Y-125737904D01*
X50038095Y-125642666D01*
X49990476Y-125547428D01*
X49942857Y-125499809D01*
X49847619Y-125452190D01*
X49657142Y-125404571D01*
X49561904Y-125356952D01*
X49514285Y-125309333D01*
X49466666Y-125214095D01*
X49466666Y-125118857D01*
X49514285Y-125023619D01*
X49561904Y-124976000D01*
X49657142Y-124928380D01*
X49895238Y-124928380D01*
X50038095Y-124976000D01*
X50371428Y-124928380D02*
X50609523Y-125928380D01*
X50800000Y-125214095D01*
X50990476Y-125928380D01*
X51228571Y-124928380D01*
X52085714Y-124928380D02*
X51609523Y-124928380D01*
X51561904Y-125404571D01*
X51609523Y-125356952D01*
X51704761Y-125309333D01*
X51942857Y-125309333D01*
X52038095Y-125356952D01*
X52085714Y-125404571D01*
X52133333Y-125499809D01*
X52133333Y-125737904D01*
X52085714Y-125833142D01*
X52038095Y-125880761D01*
X51942857Y-125928380D01*
X51704761Y-125928380D01*
X51609523Y-125880761D01*
X51561904Y-125833142D01*
X74866666Y-105560761D02*
X75009523Y-105608380D01*
X75247619Y-105608380D01*
X75342857Y-105560761D01*
X75390476Y-105513142D01*
X75438095Y-105417904D01*
X75438095Y-105322666D01*
X75390476Y-105227428D01*
X75342857Y-105179809D01*
X75247619Y-105132190D01*
X75057142Y-105084571D01*
X74961904Y-105036952D01*
X74914285Y-104989333D01*
X74866666Y-104894095D01*
X74866666Y-104798857D01*
X74914285Y-104703619D01*
X74961904Y-104656000D01*
X75057142Y-104608380D01*
X75295238Y-104608380D01*
X75438095Y-104656000D01*
X75771428Y-104608380D02*
X76009523Y-105608380D01*
X76200000Y-104894095D01*
X76390476Y-105608380D01*
X76628571Y-104608380D01*
X77438095Y-104941714D02*
X77438095Y-105608380D01*
X77200000Y-104560761D02*
X76961904Y-105275047D01*
X77580952Y-105275047D01*
X49466666Y-105560761D02*
X49609523Y-105608380D01*
X49847619Y-105608380D01*
X49942857Y-105560761D01*
X49990476Y-105513142D01*
X50038095Y-105417904D01*
X50038095Y-105322666D01*
X49990476Y-105227428D01*
X49942857Y-105179809D01*
X49847619Y-105132190D01*
X49657142Y-105084571D01*
X49561904Y-105036952D01*
X49514285Y-104989333D01*
X49466666Y-104894095D01*
X49466666Y-104798857D01*
X49514285Y-104703619D01*
X49561904Y-104656000D01*
X49657142Y-104608380D01*
X49895238Y-104608380D01*
X50038095Y-104656000D01*
X50371428Y-104608380D02*
X50609523Y-105608380D01*
X50800000Y-104894095D01*
X50990476Y-105608380D01*
X51228571Y-104608380D01*
X51514285Y-104608380D02*
X52133333Y-104608380D01*
X51800000Y-104989333D01*
X51942857Y-104989333D01*
X52038095Y-105036952D01*
X52085714Y-105084571D01*
X52133333Y-105179809D01*
X52133333Y-105417904D01*
X52085714Y-105513142D01*
X52038095Y-105560761D01*
X51942857Y-105608380D01*
X51657142Y-105608380D01*
X51561904Y-105560761D01*
X51514285Y-105513142D01*
X74866666Y-85240761D02*
X75009523Y-85288380D01*
X75247619Y-85288380D01*
X75342857Y-85240761D01*
X75390476Y-85193142D01*
X75438095Y-85097904D01*
X75438095Y-85002666D01*
X75390476Y-84907428D01*
X75342857Y-84859809D01*
X75247619Y-84812190D01*
X75057142Y-84764571D01*
X74961904Y-84716952D01*
X74914285Y-84669333D01*
X74866666Y-84574095D01*
X74866666Y-84478857D01*
X74914285Y-84383619D01*
X74961904Y-84336000D01*
X75057142Y-84288380D01*
X75295238Y-84288380D01*
X75438095Y-84336000D01*
X75771428Y-84288380D02*
X76009523Y-85288380D01*
X76200000Y-84574095D01*
X76390476Y-85288380D01*
X76628571Y-84288380D01*
X76961904Y-84383619D02*
X77009523Y-84336000D01*
X77104761Y-84288380D01*
X77342857Y-84288380D01*
X77438095Y-84336000D01*
X77485714Y-84383619D01*
X77533333Y-84478857D01*
X77533333Y-84574095D01*
X77485714Y-84716952D01*
X76914285Y-85288380D01*
X77533333Y-85288380D01*
X85922380Y-67476666D02*
X85446190Y-67810000D01*
X85922380Y-68048095D02*
X84922380Y-68048095D01*
X84922380Y-67667142D01*
X84970000Y-67571904D01*
X85017619Y-67524285D01*
X85112857Y-67476666D01*
X85255714Y-67476666D01*
X85350952Y-67524285D01*
X85398571Y-67571904D01*
X85446190Y-67667142D01*
X85446190Y-68048095D01*
X84922380Y-66619523D02*
X84922380Y-66810000D01*
X84970000Y-66905238D01*
X85017619Y-66952857D01*
X85160476Y-67048095D01*
X85350952Y-67095714D01*
X85731904Y-67095714D01*
X85827142Y-67048095D01*
X85874761Y-67000476D01*
X85922380Y-66905238D01*
X85922380Y-66714761D01*
X85874761Y-66619523D01*
X85827142Y-66571904D01*
X85731904Y-66524285D01*
X85493809Y-66524285D01*
X85398571Y-66571904D01*
X85350952Y-66619523D01*
X85303333Y-66714761D01*
X85303333Y-66905238D01*
X85350952Y-67000476D01*
X85398571Y-67048095D01*
X85493809Y-67095714D01*
X52902380Y-61371666D02*
X52426190Y-61705000D01*
X52902380Y-61943095D02*
X51902380Y-61943095D01*
X51902380Y-61562142D01*
X51950000Y-61466904D01*
X51997619Y-61419285D01*
X52092857Y-61371666D01*
X52235714Y-61371666D01*
X52330952Y-61419285D01*
X52378571Y-61466904D01*
X52426190Y-61562142D01*
X52426190Y-61943095D01*
X51902380Y-60466904D02*
X51902380Y-60943095D01*
X52378571Y-60990714D01*
X52330952Y-60943095D01*
X52283333Y-60847857D01*
X52283333Y-60609761D01*
X52330952Y-60514523D01*
X52378571Y-60466904D01*
X52473809Y-60419285D01*
X52711904Y-60419285D01*
X52807142Y-60466904D01*
X52854761Y-60514523D01*
X52902380Y-60609761D01*
X52902380Y-60847857D01*
X52854761Y-60943095D01*
X52807142Y-60990714D01*
X82112380Y-67476666D02*
X81636190Y-67810000D01*
X82112380Y-68048095D02*
X81112380Y-68048095D01*
X81112380Y-67667142D01*
X81160000Y-67571904D01*
X81207619Y-67524285D01*
X81302857Y-67476666D01*
X81445714Y-67476666D01*
X81540952Y-67524285D01*
X81588571Y-67571904D01*
X81636190Y-67667142D01*
X81636190Y-68048095D01*
X81445714Y-66619523D02*
X82112380Y-66619523D01*
X81064761Y-66857619D02*
X81779047Y-67095714D01*
X81779047Y-66476666D01*
X49092380Y-61371666D02*
X48616190Y-61705000D01*
X49092380Y-61943095D02*
X48092380Y-61943095D01*
X48092380Y-61562142D01*
X48140000Y-61466904D01*
X48187619Y-61419285D01*
X48282857Y-61371666D01*
X48425714Y-61371666D01*
X48520952Y-61419285D01*
X48568571Y-61466904D01*
X48616190Y-61562142D01*
X48616190Y-61943095D01*
X48092380Y-61038333D02*
X48092380Y-60419285D01*
X48473333Y-60752619D01*
X48473333Y-60609761D01*
X48520952Y-60514523D01*
X48568571Y-60466904D01*
X48663809Y-60419285D01*
X48901904Y-60419285D01*
X48997142Y-60466904D01*
X49044761Y-60514523D01*
X49092380Y-60609761D01*
X49092380Y-60895476D01*
X49044761Y-60990714D01*
X48997142Y-61038333D01*
X78302380Y-67476666D02*
X77826190Y-67810000D01*
X78302380Y-68048095D02*
X77302380Y-68048095D01*
X77302380Y-67667142D01*
X77350000Y-67571904D01*
X77397619Y-67524285D01*
X77492857Y-67476666D01*
X77635714Y-67476666D01*
X77730952Y-67524285D01*
X77778571Y-67571904D01*
X77826190Y-67667142D01*
X77826190Y-68048095D01*
X77397619Y-67095714D02*
X77350000Y-67048095D01*
X77302380Y-66952857D01*
X77302380Y-66714761D01*
X77350000Y-66619523D01*
X77397619Y-66571904D01*
X77492857Y-66524285D01*
X77588095Y-66524285D01*
X77730952Y-66571904D01*
X78302380Y-67143333D01*
X78302380Y-66524285D01*
X45282380Y-61371666D02*
X44806190Y-61705000D01*
X45282380Y-61943095D02*
X44282380Y-61943095D01*
X44282380Y-61562142D01*
X44330000Y-61466904D01*
X44377619Y-61419285D01*
X44472857Y-61371666D01*
X44615714Y-61371666D01*
X44710952Y-61419285D01*
X44758571Y-61466904D01*
X44806190Y-61562142D01*
X44806190Y-61943095D01*
X45282380Y-60419285D02*
X45282380Y-60990714D01*
X45282380Y-60705000D02*
X44282380Y-60705000D01*
X44425238Y-60800238D01*
X44520476Y-60895476D01*
X44568095Y-60990714D01*
X77136666Y-62742380D02*
X77136666Y-63456666D01*
X77089047Y-63599523D01*
X76993809Y-63694761D01*
X76850952Y-63742380D01*
X76755714Y-63742380D01*
X77517619Y-62742380D02*
X78136666Y-62742380D01*
X77803333Y-63123333D01*
X77946190Y-63123333D01*
X78041428Y-63170952D01*
X78089047Y-63218571D01*
X78136666Y-63313809D01*
X78136666Y-63551904D01*
X78089047Y-63647142D01*
X78041428Y-63694761D01*
X77946190Y-63742380D01*
X77660476Y-63742380D01*
X77565238Y-63694761D01*
X77517619Y-63647142D01*
X55546666Y-80732380D02*
X55546666Y-81446666D01*
X55499047Y-81589523D01*
X55403809Y-81684761D01*
X55260952Y-81732380D01*
X55165714Y-81732380D01*
X55975238Y-80827619D02*
X56022857Y-80780000D01*
X56118095Y-80732380D01*
X56356190Y-80732380D01*
X56451428Y-80780000D01*
X56499047Y-80827619D01*
X56546666Y-80922857D01*
X56546666Y-81018095D01*
X56499047Y-81160952D01*
X55927619Y-81732380D01*
X56546666Y-81732380D01*
X70786666Y-80732380D02*
X70786666Y-81446666D01*
X70739047Y-81589523D01*
X70643809Y-81684761D01*
X70500952Y-81732380D01*
X70405714Y-81732380D01*
X71786666Y-81732380D02*
X71215238Y-81732380D01*
X71500952Y-81732380D02*
X71500952Y-80732380D01*
X71405714Y-80875238D01*
X71310476Y-80970476D01*
X71215238Y-81018095D01*
M02*
