M48
; DRILL file {KiCad 5.1.4} date Di 29 Okt 2019 06:47:27 CET
; FORMAT={-:-/ absolute / inch / decimal}
; #@! TF.CreationDate,2019-10-29T06:47:27+01:00
; #@! TF.GenerationSoftware,Kicad,Pcbnew,5.1.4
; #@! TF.FileFunction,NonPlated,1,2,NPTH
FMAT,2
INCH
T1C0.0669
T2C0.1260
T3C0.1575
%
G90
G05
T1
X1.8Y-4.45
X2.2Y-4.45
X2.8Y-4.45
X3.2Y-4.45
X1.8Y-3.65
X2.2Y-3.65
X2.8Y-3.65
X3.2Y-3.65
X2.8Y-5.25
X3.2Y-5.25
X1.8Y-5.25
X2.2Y-5.25
T2
X1.7Y-5.7
X3.3Y-2.1
X3.3Y-5.7
X1.7Y-2.1
T3
X2.0Y-4.45
X3.0Y-4.45
X2.0Y-3.65
X3.0Y-3.65
X3.0Y-5.25
X2.0Y-5.25
T0
M30
