G04 #@! TF.GenerationSoftware,KiCad,Pcbnew,5.1.4*
G04 #@! TF.CreationDate,2019-10-29T06:47:26+01:00*
G04 #@! TF.ProjectId,MediaKeys,4d656469-614b-4657-9973-2e6b69636164,rev?*
G04 #@! TF.SameCoordinates,Original*
G04 #@! TF.FileFunction,Soldermask,Top*
G04 #@! TF.FilePolarity,Negative*
%FSLAX46Y46*%
G04 Gerber Fmt 4.6, Leading zero omitted, Abs format (unit mm)*
G04 Created by KiCad (PCBNEW 5.1.4) date 2019-10-29 06:47:26*
%MOMM*%
%LPD*%
G04 APERTURE LIST*
%ADD10C,0.100000*%
G04 APERTURE END LIST*
D10*
G36*
X84195256Y-143171298D02*
G01*
X84301579Y-143192447D01*
X84602042Y-143316903D01*
X84872451Y-143497585D01*
X85102415Y-143727549D01*
X85283097Y-143997958D01*
X85407553Y-144298421D01*
X85471000Y-144617391D01*
X85471000Y-144942609D01*
X85407553Y-145261579D01*
X85283097Y-145562042D01*
X85102415Y-145832451D01*
X84872451Y-146062415D01*
X84602042Y-146243097D01*
X84301579Y-146367553D01*
X84195256Y-146388702D01*
X83982611Y-146431000D01*
X83657389Y-146431000D01*
X83444744Y-146388702D01*
X83338421Y-146367553D01*
X83037958Y-146243097D01*
X82767549Y-146062415D01*
X82537585Y-145832451D01*
X82356903Y-145562042D01*
X82232447Y-145261579D01*
X82169000Y-144942609D01*
X82169000Y-144617391D01*
X82232447Y-144298421D01*
X82356903Y-143997958D01*
X82537585Y-143727549D01*
X82767549Y-143497585D01*
X83037958Y-143316903D01*
X83338421Y-143192447D01*
X83444744Y-143171298D01*
X83657389Y-143129000D01*
X83982611Y-143129000D01*
X84195256Y-143171298D01*
X84195256Y-143171298D01*
G37*
G36*
X43555256Y-143171298D02*
G01*
X43661579Y-143192447D01*
X43962042Y-143316903D01*
X44232451Y-143497585D01*
X44462415Y-143727549D01*
X44643097Y-143997958D01*
X44767553Y-144298421D01*
X44831000Y-144617391D01*
X44831000Y-144942609D01*
X44767553Y-145261579D01*
X44643097Y-145562042D01*
X44462415Y-145832451D01*
X44232451Y-146062415D01*
X43962042Y-146243097D01*
X43661579Y-146367553D01*
X43555256Y-146388702D01*
X43342611Y-146431000D01*
X43017389Y-146431000D01*
X42804744Y-146388702D01*
X42698421Y-146367553D01*
X42397958Y-146243097D01*
X42127549Y-146062415D01*
X41897585Y-145832451D01*
X41716903Y-145562042D01*
X41592447Y-145261579D01*
X41529000Y-144942609D01*
X41529000Y-144617391D01*
X41592447Y-144298421D01*
X41716903Y-143997958D01*
X41897585Y-143727549D01*
X42127549Y-143497585D01*
X42397958Y-143316903D01*
X42698421Y-143192447D01*
X42804744Y-143171298D01*
X43017389Y-143129000D01*
X43342611Y-143129000D01*
X43555256Y-143171298D01*
X43555256Y-143171298D01*
G37*
G36*
X77688674Y-137683465D02*
G01*
X77726367Y-137694899D01*
X77761103Y-137713466D01*
X77791548Y-137738452D01*
X77816534Y-137768897D01*
X77835101Y-137803633D01*
X77846535Y-137841326D01*
X77851000Y-137886661D01*
X77851000Y-138973339D01*
X77846535Y-139018674D01*
X77835101Y-139056367D01*
X77816534Y-139091103D01*
X77791548Y-139121548D01*
X77761103Y-139146534D01*
X77726367Y-139165101D01*
X77688674Y-139176535D01*
X77643339Y-139181000D01*
X76806661Y-139181000D01*
X76761326Y-139176535D01*
X76723633Y-139165101D01*
X76688897Y-139146534D01*
X76658452Y-139121548D01*
X76633466Y-139091103D01*
X76614899Y-139056367D01*
X76603465Y-139018674D01*
X76599000Y-138973339D01*
X76599000Y-137886661D01*
X76603465Y-137841326D01*
X76614899Y-137803633D01*
X76633466Y-137768897D01*
X76658452Y-137738452D01*
X76688897Y-137713466D01*
X76723633Y-137694899D01*
X76761326Y-137683465D01*
X76806661Y-137679000D01*
X77643339Y-137679000D01*
X77688674Y-137683465D01*
X77688674Y-137683465D01*
G37*
G36*
X49993674Y-137683465D02*
G01*
X50031367Y-137694899D01*
X50066103Y-137713466D01*
X50096548Y-137738452D01*
X50121534Y-137768897D01*
X50140101Y-137803633D01*
X50151535Y-137841326D01*
X50156000Y-137886661D01*
X50156000Y-138973339D01*
X50151535Y-139018674D01*
X50140101Y-139056367D01*
X50121534Y-139091103D01*
X50096548Y-139121548D01*
X50066103Y-139146534D01*
X50031367Y-139165101D01*
X49993674Y-139176535D01*
X49948339Y-139181000D01*
X49111661Y-139181000D01*
X49066326Y-139176535D01*
X49028633Y-139165101D01*
X48993897Y-139146534D01*
X48963452Y-139121548D01*
X48938466Y-139091103D01*
X48919899Y-139056367D01*
X48908465Y-139018674D01*
X48904000Y-138973339D01*
X48904000Y-137886661D01*
X48908465Y-137841326D01*
X48919899Y-137803633D01*
X48938466Y-137768897D01*
X48963452Y-137738452D01*
X48993897Y-137713466D01*
X49028633Y-137694899D01*
X49066326Y-137683465D01*
X49111661Y-137679000D01*
X49948339Y-137679000D01*
X49993674Y-137683465D01*
X49993674Y-137683465D01*
G37*
G36*
X75638674Y-137683465D02*
G01*
X75676367Y-137694899D01*
X75711103Y-137713466D01*
X75741548Y-137738452D01*
X75766534Y-137768897D01*
X75785101Y-137803633D01*
X75796535Y-137841326D01*
X75801000Y-137886661D01*
X75801000Y-138973339D01*
X75796535Y-139018674D01*
X75785101Y-139056367D01*
X75766534Y-139091103D01*
X75741548Y-139121548D01*
X75711103Y-139146534D01*
X75676367Y-139165101D01*
X75638674Y-139176535D01*
X75593339Y-139181000D01*
X74756661Y-139181000D01*
X74711326Y-139176535D01*
X74673633Y-139165101D01*
X74638897Y-139146534D01*
X74608452Y-139121548D01*
X74583466Y-139091103D01*
X74564899Y-139056367D01*
X74553465Y-139018674D01*
X74549000Y-138973339D01*
X74549000Y-137886661D01*
X74553465Y-137841326D01*
X74564899Y-137803633D01*
X74583466Y-137768897D01*
X74608452Y-137738452D01*
X74638897Y-137713466D01*
X74673633Y-137694899D01*
X74711326Y-137683465D01*
X74756661Y-137679000D01*
X75593339Y-137679000D01*
X75638674Y-137683465D01*
X75638674Y-137683465D01*
G37*
G36*
X52043674Y-137683465D02*
G01*
X52081367Y-137694899D01*
X52116103Y-137713466D01*
X52146548Y-137738452D01*
X52171534Y-137768897D01*
X52190101Y-137803633D01*
X52201535Y-137841326D01*
X52206000Y-137886661D01*
X52206000Y-138973339D01*
X52201535Y-139018674D01*
X52190101Y-139056367D01*
X52171534Y-139091103D01*
X52146548Y-139121548D01*
X52116103Y-139146534D01*
X52081367Y-139165101D01*
X52043674Y-139176535D01*
X51998339Y-139181000D01*
X51161661Y-139181000D01*
X51116326Y-139176535D01*
X51078633Y-139165101D01*
X51043897Y-139146534D01*
X51013452Y-139121548D01*
X50988466Y-139091103D01*
X50969899Y-139056367D01*
X50958465Y-139018674D01*
X50954000Y-138973339D01*
X50954000Y-137886661D01*
X50958465Y-137841326D01*
X50969899Y-137803633D01*
X50988466Y-137768897D01*
X51013452Y-137738452D01*
X51043897Y-137713466D01*
X51078633Y-137694899D01*
X51116326Y-137683465D01*
X51161661Y-137679000D01*
X51998339Y-137679000D01*
X52043674Y-137683465D01*
X52043674Y-137683465D01*
G37*
G36*
X76798254Y-131377818D02*
G01*
X77171511Y-131532426D01*
X77171513Y-131532427D01*
X77507436Y-131756884D01*
X77793116Y-132042564D01*
X78017574Y-132378489D01*
X78172182Y-132751746D01*
X78251000Y-133147993D01*
X78251000Y-133552007D01*
X78172182Y-133948254D01*
X78017574Y-134321511D01*
X78017573Y-134321513D01*
X77793116Y-134657436D01*
X77507436Y-134943116D01*
X77171513Y-135167573D01*
X77171512Y-135167574D01*
X77171511Y-135167574D01*
X76798254Y-135322182D01*
X76402007Y-135401000D01*
X75997993Y-135401000D01*
X75601746Y-135322182D01*
X75228489Y-135167574D01*
X75228488Y-135167574D01*
X75228487Y-135167573D01*
X74892564Y-134943116D01*
X74606884Y-134657436D01*
X74382427Y-134321513D01*
X74382426Y-134321511D01*
X74227818Y-133948254D01*
X74149000Y-133552007D01*
X74149000Y-133147993D01*
X74227818Y-132751746D01*
X74382426Y-132378489D01*
X74606884Y-132042564D01*
X74892564Y-131756884D01*
X75228487Y-131532427D01*
X75228489Y-131532426D01*
X75601746Y-131377818D01*
X75997993Y-131299000D01*
X76402007Y-131299000D01*
X76798254Y-131377818D01*
X76798254Y-131377818D01*
G37*
G36*
X51398254Y-131377818D02*
G01*
X51771511Y-131532426D01*
X51771513Y-131532427D01*
X52107436Y-131756884D01*
X52393116Y-132042564D01*
X52617574Y-132378489D01*
X52772182Y-132751746D01*
X52851000Y-133147993D01*
X52851000Y-133552007D01*
X52772182Y-133948254D01*
X52617574Y-134321511D01*
X52617573Y-134321513D01*
X52393116Y-134657436D01*
X52107436Y-134943116D01*
X51771513Y-135167573D01*
X51771512Y-135167574D01*
X51771511Y-135167574D01*
X51398254Y-135322182D01*
X51002007Y-135401000D01*
X50597993Y-135401000D01*
X50201746Y-135322182D01*
X49828489Y-135167574D01*
X49828488Y-135167574D01*
X49828487Y-135167573D01*
X49492564Y-134943116D01*
X49206884Y-134657436D01*
X48982427Y-134321513D01*
X48982426Y-134321511D01*
X48827818Y-133948254D01*
X48749000Y-133552007D01*
X48749000Y-133147993D01*
X48827818Y-132751746D01*
X48982426Y-132378489D01*
X49206884Y-132042564D01*
X49492564Y-131756884D01*
X49828487Y-131532427D01*
X49828489Y-131532426D01*
X50201746Y-131377818D01*
X50597993Y-131299000D01*
X51002007Y-131299000D01*
X51398254Y-131377818D01*
X51398254Y-131377818D01*
G37*
G36*
X81393512Y-132453927D02*
G01*
X81542812Y-132483624D01*
X81706784Y-132551544D01*
X81854354Y-132650147D01*
X81979853Y-132775646D01*
X82078456Y-132923216D01*
X82146376Y-133087188D01*
X82181000Y-133261259D01*
X82181000Y-133438741D01*
X82146376Y-133612812D01*
X82078456Y-133776784D01*
X81979853Y-133924354D01*
X81854354Y-134049853D01*
X81706784Y-134148456D01*
X81542812Y-134216376D01*
X81393512Y-134246073D01*
X81368742Y-134251000D01*
X81191258Y-134251000D01*
X81166488Y-134246073D01*
X81017188Y-134216376D01*
X80853216Y-134148456D01*
X80705646Y-134049853D01*
X80580147Y-133924354D01*
X80481544Y-133776784D01*
X80413624Y-133612812D01*
X80379000Y-133438741D01*
X80379000Y-133261259D01*
X80413624Y-133087188D01*
X80481544Y-132923216D01*
X80580147Y-132775646D01*
X80705646Y-132650147D01*
X80853216Y-132551544D01*
X81017188Y-132483624D01*
X81166488Y-132453927D01*
X81191258Y-132449000D01*
X81368742Y-132449000D01*
X81393512Y-132453927D01*
X81393512Y-132453927D01*
G37*
G36*
X71233512Y-132453927D02*
G01*
X71382812Y-132483624D01*
X71546784Y-132551544D01*
X71694354Y-132650147D01*
X71819853Y-132775646D01*
X71918456Y-132923216D01*
X71986376Y-133087188D01*
X72021000Y-133261259D01*
X72021000Y-133438741D01*
X71986376Y-133612812D01*
X71918456Y-133776784D01*
X71819853Y-133924354D01*
X71694354Y-134049853D01*
X71546784Y-134148456D01*
X71382812Y-134216376D01*
X71233512Y-134246073D01*
X71208742Y-134251000D01*
X71031258Y-134251000D01*
X71006488Y-134246073D01*
X70857188Y-134216376D01*
X70693216Y-134148456D01*
X70545646Y-134049853D01*
X70420147Y-133924354D01*
X70321544Y-133776784D01*
X70253624Y-133612812D01*
X70219000Y-133438741D01*
X70219000Y-133261259D01*
X70253624Y-133087188D01*
X70321544Y-132923216D01*
X70420147Y-132775646D01*
X70545646Y-132650147D01*
X70693216Y-132551544D01*
X70857188Y-132483624D01*
X71006488Y-132453927D01*
X71031258Y-132449000D01*
X71208742Y-132449000D01*
X71233512Y-132453927D01*
X71233512Y-132453927D01*
G37*
G36*
X45833512Y-132453927D02*
G01*
X45982812Y-132483624D01*
X46146784Y-132551544D01*
X46294354Y-132650147D01*
X46419853Y-132775646D01*
X46518456Y-132923216D01*
X46586376Y-133087188D01*
X46621000Y-133261259D01*
X46621000Y-133438741D01*
X46586376Y-133612812D01*
X46518456Y-133776784D01*
X46419853Y-133924354D01*
X46294354Y-134049853D01*
X46146784Y-134148456D01*
X45982812Y-134216376D01*
X45833512Y-134246073D01*
X45808742Y-134251000D01*
X45631258Y-134251000D01*
X45606488Y-134246073D01*
X45457188Y-134216376D01*
X45293216Y-134148456D01*
X45145646Y-134049853D01*
X45020147Y-133924354D01*
X44921544Y-133776784D01*
X44853624Y-133612812D01*
X44819000Y-133438741D01*
X44819000Y-133261259D01*
X44853624Y-133087188D01*
X44921544Y-132923216D01*
X45020147Y-132775646D01*
X45145646Y-132650147D01*
X45293216Y-132551544D01*
X45457188Y-132483624D01*
X45606488Y-132453927D01*
X45631258Y-132449000D01*
X45808742Y-132449000D01*
X45833512Y-132453927D01*
X45833512Y-132453927D01*
G37*
G36*
X55993512Y-132453927D02*
G01*
X56142812Y-132483624D01*
X56306784Y-132551544D01*
X56454354Y-132650147D01*
X56579853Y-132775646D01*
X56678456Y-132923216D01*
X56746376Y-133087188D01*
X56781000Y-133261259D01*
X56781000Y-133438741D01*
X56746376Y-133612812D01*
X56678456Y-133776784D01*
X56579853Y-133924354D01*
X56454354Y-134049853D01*
X56306784Y-134148456D01*
X56142812Y-134216376D01*
X55993512Y-134246073D01*
X55968742Y-134251000D01*
X55791258Y-134251000D01*
X55766488Y-134246073D01*
X55617188Y-134216376D01*
X55453216Y-134148456D01*
X55305646Y-134049853D01*
X55180147Y-133924354D01*
X55081544Y-133776784D01*
X55013624Y-133612812D01*
X54979000Y-133438741D01*
X54979000Y-133261259D01*
X55013624Y-133087188D01*
X55081544Y-132923216D01*
X55180147Y-132775646D01*
X55305646Y-132650147D01*
X55453216Y-132551544D01*
X55617188Y-132483624D01*
X55766488Y-132453927D01*
X55791258Y-132449000D01*
X55968742Y-132449000D01*
X55993512Y-132453927D01*
X55993512Y-132453927D01*
G37*
G36*
X47214549Y-129681116D02*
G01*
X47325734Y-129703232D01*
X47535203Y-129789997D01*
X47723720Y-129915960D01*
X47884040Y-130076280D01*
X48010003Y-130264797D01*
X48096768Y-130474266D01*
X48141000Y-130696636D01*
X48141000Y-130923364D01*
X48096768Y-131145734D01*
X48010003Y-131355203D01*
X47884040Y-131543720D01*
X47723720Y-131704040D01*
X47535203Y-131830003D01*
X47325734Y-131916768D01*
X47214549Y-131938884D01*
X47103365Y-131961000D01*
X46876635Y-131961000D01*
X46765451Y-131938884D01*
X46654266Y-131916768D01*
X46444797Y-131830003D01*
X46256280Y-131704040D01*
X46095960Y-131543720D01*
X45969997Y-131355203D01*
X45883232Y-131145734D01*
X45839000Y-130923364D01*
X45839000Y-130696636D01*
X45883232Y-130474266D01*
X45969997Y-130264797D01*
X46095960Y-130076280D01*
X46256280Y-129915960D01*
X46444797Y-129789997D01*
X46654266Y-129703232D01*
X46765451Y-129681116D01*
X46876635Y-129659000D01*
X47103365Y-129659000D01*
X47214549Y-129681116D01*
X47214549Y-129681116D01*
G37*
G36*
X72614549Y-129681116D02*
G01*
X72725734Y-129703232D01*
X72935203Y-129789997D01*
X73123720Y-129915960D01*
X73284040Y-130076280D01*
X73410003Y-130264797D01*
X73496768Y-130474266D01*
X73541000Y-130696636D01*
X73541000Y-130923364D01*
X73496768Y-131145734D01*
X73410003Y-131355203D01*
X73284040Y-131543720D01*
X73123720Y-131704040D01*
X72935203Y-131830003D01*
X72725734Y-131916768D01*
X72614549Y-131938884D01*
X72503365Y-131961000D01*
X72276635Y-131961000D01*
X72165451Y-131938884D01*
X72054266Y-131916768D01*
X71844797Y-131830003D01*
X71656280Y-131704040D01*
X71495960Y-131543720D01*
X71369997Y-131355203D01*
X71283232Y-131145734D01*
X71239000Y-130923364D01*
X71239000Y-130696636D01*
X71283232Y-130474266D01*
X71369997Y-130264797D01*
X71495960Y-130076280D01*
X71656280Y-129915960D01*
X71844797Y-129789997D01*
X72054266Y-129703232D01*
X72165451Y-129681116D01*
X72276635Y-129659000D01*
X72503365Y-129659000D01*
X72614549Y-129681116D01*
X72614549Y-129681116D01*
G37*
G36*
X78964549Y-127141116D02*
G01*
X79075734Y-127163232D01*
X79285203Y-127249997D01*
X79473720Y-127375960D01*
X79634040Y-127536280D01*
X79760003Y-127724797D01*
X79846768Y-127934266D01*
X79891000Y-128156636D01*
X79891000Y-128383364D01*
X79846768Y-128605734D01*
X79760003Y-128815203D01*
X79634040Y-129003720D01*
X79473720Y-129164040D01*
X79285203Y-129290003D01*
X79075734Y-129376768D01*
X78964549Y-129398884D01*
X78853365Y-129421000D01*
X78626635Y-129421000D01*
X78515451Y-129398884D01*
X78404266Y-129376768D01*
X78194797Y-129290003D01*
X78006280Y-129164040D01*
X77845960Y-129003720D01*
X77719997Y-128815203D01*
X77633232Y-128605734D01*
X77589000Y-128383364D01*
X77589000Y-128156636D01*
X77633232Y-127934266D01*
X77719997Y-127724797D01*
X77845960Y-127536280D01*
X78006280Y-127375960D01*
X78194797Y-127249997D01*
X78404266Y-127163232D01*
X78515451Y-127141116D01*
X78626635Y-127119000D01*
X78853365Y-127119000D01*
X78964549Y-127141116D01*
X78964549Y-127141116D01*
G37*
G36*
X53564549Y-127141116D02*
G01*
X53675734Y-127163232D01*
X53885203Y-127249997D01*
X54073720Y-127375960D01*
X54234040Y-127536280D01*
X54360003Y-127724797D01*
X54446768Y-127934266D01*
X54491000Y-128156636D01*
X54491000Y-128383364D01*
X54446768Y-128605734D01*
X54360003Y-128815203D01*
X54234040Y-129003720D01*
X54073720Y-129164040D01*
X53885203Y-129290003D01*
X53675734Y-129376768D01*
X53564549Y-129398884D01*
X53453365Y-129421000D01*
X53226635Y-129421000D01*
X53115451Y-129398884D01*
X53004266Y-129376768D01*
X52794797Y-129290003D01*
X52606280Y-129164040D01*
X52445960Y-129003720D01*
X52319997Y-128815203D01*
X52233232Y-128605734D01*
X52189000Y-128383364D01*
X52189000Y-128156636D01*
X52233232Y-127934266D01*
X52319997Y-127724797D01*
X52445960Y-127536280D01*
X52606280Y-127375960D01*
X52794797Y-127249997D01*
X53004266Y-127163232D01*
X53115451Y-127141116D01*
X53226635Y-127119000D01*
X53453365Y-127119000D01*
X53564549Y-127141116D01*
X53564549Y-127141116D01*
G37*
G36*
X50483674Y-117363465D02*
G01*
X50521367Y-117374899D01*
X50556103Y-117393466D01*
X50586548Y-117418452D01*
X50611534Y-117448897D01*
X50630101Y-117483633D01*
X50641535Y-117521326D01*
X50646000Y-117566661D01*
X50646000Y-118653339D01*
X50641535Y-118698674D01*
X50630101Y-118736367D01*
X50611534Y-118771103D01*
X50586548Y-118801548D01*
X50556103Y-118826534D01*
X50521367Y-118845101D01*
X50483674Y-118856535D01*
X50438339Y-118861000D01*
X49601661Y-118861000D01*
X49556326Y-118856535D01*
X49518633Y-118845101D01*
X49483897Y-118826534D01*
X49453452Y-118801548D01*
X49428466Y-118771103D01*
X49409899Y-118736367D01*
X49398465Y-118698674D01*
X49394000Y-118653339D01*
X49394000Y-117566661D01*
X49398465Y-117521326D01*
X49409899Y-117483633D01*
X49428466Y-117448897D01*
X49453452Y-117418452D01*
X49483897Y-117393466D01*
X49518633Y-117374899D01*
X49556326Y-117363465D01*
X49601661Y-117359000D01*
X50438339Y-117359000D01*
X50483674Y-117363465D01*
X50483674Y-117363465D01*
G37*
G36*
X77688674Y-117363465D02*
G01*
X77726367Y-117374899D01*
X77761103Y-117393466D01*
X77791548Y-117418452D01*
X77816534Y-117448897D01*
X77835101Y-117483633D01*
X77846535Y-117521326D01*
X77851000Y-117566661D01*
X77851000Y-118653339D01*
X77846535Y-118698674D01*
X77835101Y-118736367D01*
X77816534Y-118771103D01*
X77791548Y-118801548D01*
X77761103Y-118826534D01*
X77726367Y-118845101D01*
X77688674Y-118856535D01*
X77643339Y-118861000D01*
X76806661Y-118861000D01*
X76761326Y-118856535D01*
X76723633Y-118845101D01*
X76688897Y-118826534D01*
X76658452Y-118801548D01*
X76633466Y-118771103D01*
X76614899Y-118736367D01*
X76603465Y-118698674D01*
X76599000Y-118653339D01*
X76599000Y-117566661D01*
X76603465Y-117521326D01*
X76614899Y-117483633D01*
X76633466Y-117448897D01*
X76658452Y-117418452D01*
X76688897Y-117393466D01*
X76723633Y-117374899D01*
X76761326Y-117363465D01*
X76806661Y-117359000D01*
X77643339Y-117359000D01*
X77688674Y-117363465D01*
X77688674Y-117363465D01*
G37*
G36*
X75638674Y-117363465D02*
G01*
X75676367Y-117374899D01*
X75711103Y-117393466D01*
X75741548Y-117418452D01*
X75766534Y-117448897D01*
X75785101Y-117483633D01*
X75796535Y-117521326D01*
X75801000Y-117566661D01*
X75801000Y-118653339D01*
X75796535Y-118698674D01*
X75785101Y-118736367D01*
X75766534Y-118771103D01*
X75741548Y-118801548D01*
X75711103Y-118826534D01*
X75676367Y-118845101D01*
X75638674Y-118856535D01*
X75593339Y-118861000D01*
X74756661Y-118861000D01*
X74711326Y-118856535D01*
X74673633Y-118845101D01*
X74638897Y-118826534D01*
X74608452Y-118801548D01*
X74583466Y-118771103D01*
X74564899Y-118736367D01*
X74553465Y-118698674D01*
X74549000Y-118653339D01*
X74549000Y-117566661D01*
X74553465Y-117521326D01*
X74564899Y-117483633D01*
X74583466Y-117448897D01*
X74608452Y-117418452D01*
X74638897Y-117393466D01*
X74673633Y-117374899D01*
X74711326Y-117363465D01*
X74756661Y-117359000D01*
X75593339Y-117359000D01*
X75638674Y-117363465D01*
X75638674Y-117363465D01*
G37*
G36*
X52533674Y-117363465D02*
G01*
X52571367Y-117374899D01*
X52606103Y-117393466D01*
X52636548Y-117418452D01*
X52661534Y-117448897D01*
X52680101Y-117483633D01*
X52691535Y-117521326D01*
X52696000Y-117566661D01*
X52696000Y-118653339D01*
X52691535Y-118698674D01*
X52680101Y-118736367D01*
X52661534Y-118771103D01*
X52636548Y-118801548D01*
X52606103Y-118826534D01*
X52571367Y-118845101D01*
X52533674Y-118856535D01*
X52488339Y-118861000D01*
X51651661Y-118861000D01*
X51606326Y-118856535D01*
X51568633Y-118845101D01*
X51533897Y-118826534D01*
X51503452Y-118801548D01*
X51478466Y-118771103D01*
X51459899Y-118736367D01*
X51448465Y-118698674D01*
X51444000Y-118653339D01*
X51444000Y-117566661D01*
X51448465Y-117521326D01*
X51459899Y-117483633D01*
X51478466Y-117448897D01*
X51503452Y-117418452D01*
X51533897Y-117393466D01*
X51568633Y-117374899D01*
X51606326Y-117363465D01*
X51651661Y-117359000D01*
X52488339Y-117359000D01*
X52533674Y-117363465D01*
X52533674Y-117363465D01*
G37*
G36*
X51398254Y-111057818D02*
G01*
X51771511Y-111212426D01*
X51771513Y-111212427D01*
X52107436Y-111436884D01*
X52393116Y-111722564D01*
X52617574Y-112058489D01*
X52772182Y-112431746D01*
X52851000Y-112827993D01*
X52851000Y-113232007D01*
X52772182Y-113628254D01*
X52617574Y-114001511D01*
X52617573Y-114001513D01*
X52393116Y-114337436D01*
X52107436Y-114623116D01*
X51771513Y-114847573D01*
X51771512Y-114847574D01*
X51771511Y-114847574D01*
X51398254Y-115002182D01*
X51002007Y-115081000D01*
X50597993Y-115081000D01*
X50201746Y-115002182D01*
X49828489Y-114847574D01*
X49828488Y-114847574D01*
X49828487Y-114847573D01*
X49492564Y-114623116D01*
X49206884Y-114337436D01*
X48982427Y-114001513D01*
X48982426Y-114001511D01*
X48827818Y-113628254D01*
X48749000Y-113232007D01*
X48749000Y-112827993D01*
X48827818Y-112431746D01*
X48982426Y-112058489D01*
X49206884Y-111722564D01*
X49492564Y-111436884D01*
X49828487Y-111212427D01*
X49828489Y-111212426D01*
X50201746Y-111057818D01*
X50597993Y-110979000D01*
X51002007Y-110979000D01*
X51398254Y-111057818D01*
X51398254Y-111057818D01*
G37*
G36*
X76798254Y-111057818D02*
G01*
X77171511Y-111212426D01*
X77171513Y-111212427D01*
X77507436Y-111436884D01*
X77793116Y-111722564D01*
X78017574Y-112058489D01*
X78172182Y-112431746D01*
X78251000Y-112827993D01*
X78251000Y-113232007D01*
X78172182Y-113628254D01*
X78017574Y-114001511D01*
X78017573Y-114001513D01*
X77793116Y-114337436D01*
X77507436Y-114623116D01*
X77171513Y-114847573D01*
X77171512Y-114847574D01*
X77171511Y-114847574D01*
X76798254Y-115002182D01*
X76402007Y-115081000D01*
X75997993Y-115081000D01*
X75601746Y-115002182D01*
X75228489Y-114847574D01*
X75228488Y-114847574D01*
X75228487Y-114847573D01*
X74892564Y-114623116D01*
X74606884Y-114337436D01*
X74382427Y-114001513D01*
X74382426Y-114001511D01*
X74227818Y-113628254D01*
X74149000Y-113232007D01*
X74149000Y-112827993D01*
X74227818Y-112431746D01*
X74382426Y-112058489D01*
X74606884Y-111722564D01*
X74892564Y-111436884D01*
X75228487Y-111212427D01*
X75228489Y-111212426D01*
X75601746Y-111057818D01*
X75997993Y-110979000D01*
X76402007Y-110979000D01*
X76798254Y-111057818D01*
X76798254Y-111057818D01*
G37*
G36*
X55993512Y-112133927D02*
G01*
X56142812Y-112163624D01*
X56306784Y-112231544D01*
X56454354Y-112330147D01*
X56579853Y-112455646D01*
X56678456Y-112603216D01*
X56746376Y-112767188D01*
X56781000Y-112941259D01*
X56781000Y-113118741D01*
X56746376Y-113292812D01*
X56678456Y-113456784D01*
X56579853Y-113604354D01*
X56454354Y-113729853D01*
X56306784Y-113828456D01*
X56142812Y-113896376D01*
X55993512Y-113926073D01*
X55968742Y-113931000D01*
X55791258Y-113931000D01*
X55766488Y-113926073D01*
X55617188Y-113896376D01*
X55453216Y-113828456D01*
X55305646Y-113729853D01*
X55180147Y-113604354D01*
X55081544Y-113456784D01*
X55013624Y-113292812D01*
X54979000Y-113118741D01*
X54979000Y-112941259D01*
X55013624Y-112767188D01*
X55081544Y-112603216D01*
X55180147Y-112455646D01*
X55305646Y-112330147D01*
X55453216Y-112231544D01*
X55617188Y-112163624D01*
X55766488Y-112133927D01*
X55791258Y-112129000D01*
X55968742Y-112129000D01*
X55993512Y-112133927D01*
X55993512Y-112133927D01*
G37*
G36*
X81393512Y-112133927D02*
G01*
X81542812Y-112163624D01*
X81706784Y-112231544D01*
X81854354Y-112330147D01*
X81979853Y-112455646D01*
X82078456Y-112603216D01*
X82146376Y-112767188D01*
X82181000Y-112941259D01*
X82181000Y-113118741D01*
X82146376Y-113292812D01*
X82078456Y-113456784D01*
X81979853Y-113604354D01*
X81854354Y-113729853D01*
X81706784Y-113828456D01*
X81542812Y-113896376D01*
X81393512Y-113926073D01*
X81368742Y-113931000D01*
X81191258Y-113931000D01*
X81166488Y-113926073D01*
X81017188Y-113896376D01*
X80853216Y-113828456D01*
X80705646Y-113729853D01*
X80580147Y-113604354D01*
X80481544Y-113456784D01*
X80413624Y-113292812D01*
X80379000Y-113118741D01*
X80379000Y-112941259D01*
X80413624Y-112767188D01*
X80481544Y-112603216D01*
X80580147Y-112455646D01*
X80705646Y-112330147D01*
X80853216Y-112231544D01*
X81017188Y-112163624D01*
X81166488Y-112133927D01*
X81191258Y-112129000D01*
X81368742Y-112129000D01*
X81393512Y-112133927D01*
X81393512Y-112133927D01*
G37*
G36*
X45833512Y-112133927D02*
G01*
X45982812Y-112163624D01*
X46146784Y-112231544D01*
X46294354Y-112330147D01*
X46419853Y-112455646D01*
X46518456Y-112603216D01*
X46586376Y-112767188D01*
X46621000Y-112941259D01*
X46621000Y-113118741D01*
X46586376Y-113292812D01*
X46518456Y-113456784D01*
X46419853Y-113604354D01*
X46294354Y-113729853D01*
X46146784Y-113828456D01*
X45982812Y-113896376D01*
X45833512Y-113926073D01*
X45808742Y-113931000D01*
X45631258Y-113931000D01*
X45606488Y-113926073D01*
X45457188Y-113896376D01*
X45293216Y-113828456D01*
X45145646Y-113729853D01*
X45020147Y-113604354D01*
X44921544Y-113456784D01*
X44853624Y-113292812D01*
X44819000Y-113118741D01*
X44819000Y-112941259D01*
X44853624Y-112767188D01*
X44921544Y-112603216D01*
X45020147Y-112455646D01*
X45145646Y-112330147D01*
X45293216Y-112231544D01*
X45457188Y-112163624D01*
X45606488Y-112133927D01*
X45631258Y-112129000D01*
X45808742Y-112129000D01*
X45833512Y-112133927D01*
X45833512Y-112133927D01*
G37*
G36*
X71233512Y-112133927D02*
G01*
X71382812Y-112163624D01*
X71546784Y-112231544D01*
X71694354Y-112330147D01*
X71819853Y-112455646D01*
X71918456Y-112603216D01*
X71986376Y-112767188D01*
X72021000Y-112941259D01*
X72021000Y-113118741D01*
X71986376Y-113292812D01*
X71918456Y-113456784D01*
X71819853Y-113604354D01*
X71694354Y-113729853D01*
X71546784Y-113828456D01*
X71382812Y-113896376D01*
X71233512Y-113926073D01*
X71208742Y-113931000D01*
X71031258Y-113931000D01*
X71006488Y-113926073D01*
X70857188Y-113896376D01*
X70693216Y-113828456D01*
X70545646Y-113729853D01*
X70420147Y-113604354D01*
X70321544Y-113456784D01*
X70253624Y-113292812D01*
X70219000Y-113118741D01*
X70219000Y-112941259D01*
X70253624Y-112767188D01*
X70321544Y-112603216D01*
X70420147Y-112455646D01*
X70545646Y-112330147D01*
X70693216Y-112231544D01*
X70857188Y-112163624D01*
X71006488Y-112133927D01*
X71031258Y-112129000D01*
X71208742Y-112129000D01*
X71233512Y-112133927D01*
X71233512Y-112133927D01*
G37*
G36*
X72614549Y-109361116D02*
G01*
X72725734Y-109383232D01*
X72935203Y-109469997D01*
X73123720Y-109595960D01*
X73284040Y-109756280D01*
X73410003Y-109944797D01*
X73496768Y-110154266D01*
X73541000Y-110376636D01*
X73541000Y-110603364D01*
X73496768Y-110825734D01*
X73410003Y-111035203D01*
X73284040Y-111223720D01*
X73123720Y-111384040D01*
X72935203Y-111510003D01*
X72725734Y-111596768D01*
X72614549Y-111618884D01*
X72503365Y-111641000D01*
X72276635Y-111641000D01*
X72165451Y-111618884D01*
X72054266Y-111596768D01*
X71844797Y-111510003D01*
X71656280Y-111384040D01*
X71495960Y-111223720D01*
X71369997Y-111035203D01*
X71283232Y-110825734D01*
X71239000Y-110603364D01*
X71239000Y-110376636D01*
X71283232Y-110154266D01*
X71369997Y-109944797D01*
X71495960Y-109756280D01*
X71656280Y-109595960D01*
X71844797Y-109469997D01*
X72054266Y-109383232D01*
X72165451Y-109361116D01*
X72276635Y-109339000D01*
X72503365Y-109339000D01*
X72614549Y-109361116D01*
X72614549Y-109361116D01*
G37*
G36*
X47214549Y-109361116D02*
G01*
X47325734Y-109383232D01*
X47535203Y-109469997D01*
X47723720Y-109595960D01*
X47884040Y-109756280D01*
X48010003Y-109944797D01*
X48096768Y-110154266D01*
X48141000Y-110376636D01*
X48141000Y-110603364D01*
X48096768Y-110825734D01*
X48010003Y-111035203D01*
X47884040Y-111223720D01*
X47723720Y-111384040D01*
X47535203Y-111510003D01*
X47325734Y-111596768D01*
X47214549Y-111618884D01*
X47103365Y-111641000D01*
X46876635Y-111641000D01*
X46765451Y-111618884D01*
X46654266Y-111596768D01*
X46444797Y-111510003D01*
X46256280Y-111384040D01*
X46095960Y-111223720D01*
X45969997Y-111035203D01*
X45883232Y-110825734D01*
X45839000Y-110603364D01*
X45839000Y-110376636D01*
X45883232Y-110154266D01*
X45969997Y-109944797D01*
X46095960Y-109756280D01*
X46256280Y-109595960D01*
X46444797Y-109469997D01*
X46654266Y-109383232D01*
X46765451Y-109361116D01*
X46876635Y-109339000D01*
X47103365Y-109339000D01*
X47214549Y-109361116D01*
X47214549Y-109361116D01*
G37*
G36*
X78964549Y-106821116D02*
G01*
X79075734Y-106843232D01*
X79285203Y-106929997D01*
X79473720Y-107055960D01*
X79634040Y-107216280D01*
X79760003Y-107404797D01*
X79846768Y-107614266D01*
X79891000Y-107836636D01*
X79891000Y-108063364D01*
X79846768Y-108285734D01*
X79760003Y-108495203D01*
X79634040Y-108683720D01*
X79473720Y-108844040D01*
X79285203Y-108970003D01*
X79075734Y-109056768D01*
X78964549Y-109078884D01*
X78853365Y-109101000D01*
X78626635Y-109101000D01*
X78515451Y-109078884D01*
X78404266Y-109056768D01*
X78194797Y-108970003D01*
X78006280Y-108844040D01*
X77845960Y-108683720D01*
X77719997Y-108495203D01*
X77633232Y-108285734D01*
X77589000Y-108063364D01*
X77589000Y-107836636D01*
X77633232Y-107614266D01*
X77719997Y-107404797D01*
X77845960Y-107216280D01*
X78006280Y-107055960D01*
X78194797Y-106929997D01*
X78404266Y-106843232D01*
X78515451Y-106821116D01*
X78626635Y-106799000D01*
X78853365Y-106799000D01*
X78964549Y-106821116D01*
X78964549Y-106821116D01*
G37*
G36*
X53564549Y-106821116D02*
G01*
X53675734Y-106843232D01*
X53885203Y-106929997D01*
X54073720Y-107055960D01*
X54234040Y-107216280D01*
X54360003Y-107404797D01*
X54446768Y-107614266D01*
X54491000Y-107836636D01*
X54491000Y-108063364D01*
X54446768Y-108285734D01*
X54360003Y-108495203D01*
X54234040Y-108683720D01*
X54073720Y-108844040D01*
X53885203Y-108970003D01*
X53675734Y-109056768D01*
X53564549Y-109078884D01*
X53453365Y-109101000D01*
X53226635Y-109101000D01*
X53115451Y-109078884D01*
X53004266Y-109056768D01*
X52794797Y-108970003D01*
X52606280Y-108844040D01*
X52445960Y-108683720D01*
X52319997Y-108495203D01*
X52233232Y-108285734D01*
X52189000Y-108063364D01*
X52189000Y-107836636D01*
X52233232Y-107614266D01*
X52319997Y-107404797D01*
X52445960Y-107216280D01*
X52606280Y-107055960D01*
X52794797Y-106929997D01*
X53004266Y-106843232D01*
X53115451Y-106821116D01*
X53226635Y-106799000D01*
X53453365Y-106799000D01*
X53564549Y-106821116D01*
X53564549Y-106821116D01*
G37*
G36*
X77443674Y-97043465D02*
G01*
X77481367Y-97054899D01*
X77516103Y-97073466D01*
X77546548Y-97098452D01*
X77571534Y-97128897D01*
X77590101Y-97163633D01*
X77601535Y-97201326D01*
X77606000Y-97246661D01*
X77606000Y-98333339D01*
X77601535Y-98378674D01*
X77590101Y-98416367D01*
X77571534Y-98451103D01*
X77546548Y-98481548D01*
X77516103Y-98506534D01*
X77481367Y-98525101D01*
X77443674Y-98536535D01*
X77398339Y-98541000D01*
X76561661Y-98541000D01*
X76516326Y-98536535D01*
X76478633Y-98525101D01*
X76443897Y-98506534D01*
X76413452Y-98481548D01*
X76388466Y-98451103D01*
X76369899Y-98416367D01*
X76358465Y-98378674D01*
X76354000Y-98333339D01*
X76354000Y-97246661D01*
X76358465Y-97201326D01*
X76369899Y-97163633D01*
X76388466Y-97128897D01*
X76413452Y-97098452D01*
X76443897Y-97073466D01*
X76478633Y-97054899D01*
X76516326Y-97043465D01*
X76561661Y-97039000D01*
X77398339Y-97039000D01*
X77443674Y-97043465D01*
X77443674Y-97043465D01*
G37*
G36*
X75393674Y-97043465D02*
G01*
X75431367Y-97054899D01*
X75466103Y-97073466D01*
X75496548Y-97098452D01*
X75521534Y-97128897D01*
X75540101Y-97163633D01*
X75551535Y-97201326D01*
X75556000Y-97246661D01*
X75556000Y-98333339D01*
X75551535Y-98378674D01*
X75540101Y-98416367D01*
X75521534Y-98451103D01*
X75496548Y-98481548D01*
X75466103Y-98506534D01*
X75431367Y-98525101D01*
X75393674Y-98536535D01*
X75348339Y-98541000D01*
X74511661Y-98541000D01*
X74466326Y-98536535D01*
X74428633Y-98525101D01*
X74393897Y-98506534D01*
X74363452Y-98481548D01*
X74338466Y-98451103D01*
X74319899Y-98416367D01*
X74308465Y-98378674D01*
X74304000Y-98333339D01*
X74304000Y-97246661D01*
X74308465Y-97201326D01*
X74319899Y-97163633D01*
X74338466Y-97128897D01*
X74363452Y-97098452D01*
X74393897Y-97073466D01*
X74428633Y-97054899D01*
X74466326Y-97043465D01*
X74511661Y-97039000D01*
X75348339Y-97039000D01*
X75393674Y-97043465D01*
X75393674Y-97043465D01*
G37*
G36*
X50483674Y-97043465D02*
G01*
X50521367Y-97054899D01*
X50556103Y-97073466D01*
X50586548Y-97098452D01*
X50611534Y-97128897D01*
X50630101Y-97163633D01*
X50641535Y-97201326D01*
X50646000Y-97246661D01*
X50646000Y-98333339D01*
X50641535Y-98378674D01*
X50630101Y-98416367D01*
X50611534Y-98451103D01*
X50586548Y-98481548D01*
X50556103Y-98506534D01*
X50521367Y-98525101D01*
X50483674Y-98536535D01*
X50438339Y-98541000D01*
X49601661Y-98541000D01*
X49556326Y-98536535D01*
X49518633Y-98525101D01*
X49483897Y-98506534D01*
X49453452Y-98481548D01*
X49428466Y-98451103D01*
X49409899Y-98416367D01*
X49398465Y-98378674D01*
X49394000Y-98333339D01*
X49394000Y-97246661D01*
X49398465Y-97201326D01*
X49409899Y-97163633D01*
X49428466Y-97128897D01*
X49453452Y-97098452D01*
X49483897Y-97073466D01*
X49518633Y-97054899D01*
X49556326Y-97043465D01*
X49601661Y-97039000D01*
X50438339Y-97039000D01*
X50483674Y-97043465D01*
X50483674Y-97043465D01*
G37*
G36*
X52533674Y-97043465D02*
G01*
X52571367Y-97054899D01*
X52606103Y-97073466D01*
X52636548Y-97098452D01*
X52661534Y-97128897D01*
X52680101Y-97163633D01*
X52691535Y-97201326D01*
X52696000Y-97246661D01*
X52696000Y-98333339D01*
X52691535Y-98378674D01*
X52680101Y-98416367D01*
X52661534Y-98451103D01*
X52636548Y-98481548D01*
X52606103Y-98506534D01*
X52571367Y-98525101D01*
X52533674Y-98536535D01*
X52488339Y-98541000D01*
X51651661Y-98541000D01*
X51606326Y-98536535D01*
X51568633Y-98525101D01*
X51533897Y-98506534D01*
X51503452Y-98481548D01*
X51478466Y-98451103D01*
X51459899Y-98416367D01*
X51448465Y-98378674D01*
X51444000Y-98333339D01*
X51444000Y-97246661D01*
X51448465Y-97201326D01*
X51459899Y-97163633D01*
X51478466Y-97128897D01*
X51503452Y-97098452D01*
X51533897Y-97073466D01*
X51568633Y-97054899D01*
X51606326Y-97043465D01*
X51651661Y-97039000D01*
X52488339Y-97039000D01*
X52533674Y-97043465D01*
X52533674Y-97043465D01*
G37*
G36*
X76798254Y-90737818D02*
G01*
X77171511Y-90892426D01*
X77171513Y-90892427D01*
X77507436Y-91116884D01*
X77793116Y-91402564D01*
X78017574Y-91738489D01*
X78172182Y-92111746D01*
X78251000Y-92507993D01*
X78251000Y-92912007D01*
X78172182Y-93308254D01*
X78017574Y-93681511D01*
X78017573Y-93681513D01*
X77793116Y-94017436D01*
X77507436Y-94303116D01*
X77171513Y-94527573D01*
X77171512Y-94527574D01*
X77171511Y-94527574D01*
X76798254Y-94682182D01*
X76402007Y-94761000D01*
X75997993Y-94761000D01*
X75601746Y-94682182D01*
X75228489Y-94527574D01*
X75228488Y-94527574D01*
X75228487Y-94527573D01*
X74892564Y-94303116D01*
X74606884Y-94017436D01*
X74382427Y-93681513D01*
X74382426Y-93681511D01*
X74227818Y-93308254D01*
X74149000Y-92912007D01*
X74149000Y-92507993D01*
X74227818Y-92111746D01*
X74382426Y-91738489D01*
X74606884Y-91402564D01*
X74892564Y-91116884D01*
X75228487Y-90892427D01*
X75228489Y-90892426D01*
X75601746Y-90737818D01*
X75997993Y-90659000D01*
X76402007Y-90659000D01*
X76798254Y-90737818D01*
X76798254Y-90737818D01*
G37*
G36*
X51398254Y-90737818D02*
G01*
X51771511Y-90892426D01*
X51771513Y-90892427D01*
X52107436Y-91116884D01*
X52393116Y-91402564D01*
X52617574Y-91738489D01*
X52772182Y-92111746D01*
X52851000Y-92507993D01*
X52851000Y-92912007D01*
X52772182Y-93308254D01*
X52617574Y-93681511D01*
X52617573Y-93681513D01*
X52393116Y-94017436D01*
X52107436Y-94303116D01*
X51771513Y-94527573D01*
X51771512Y-94527574D01*
X51771511Y-94527574D01*
X51398254Y-94682182D01*
X51002007Y-94761000D01*
X50597993Y-94761000D01*
X50201746Y-94682182D01*
X49828489Y-94527574D01*
X49828488Y-94527574D01*
X49828487Y-94527573D01*
X49492564Y-94303116D01*
X49206884Y-94017436D01*
X48982427Y-93681513D01*
X48982426Y-93681511D01*
X48827818Y-93308254D01*
X48749000Y-92912007D01*
X48749000Y-92507993D01*
X48827818Y-92111746D01*
X48982426Y-91738489D01*
X49206884Y-91402564D01*
X49492564Y-91116884D01*
X49828487Y-90892427D01*
X49828489Y-90892426D01*
X50201746Y-90737818D01*
X50597993Y-90659000D01*
X51002007Y-90659000D01*
X51398254Y-90737818D01*
X51398254Y-90737818D01*
G37*
G36*
X45833512Y-91813927D02*
G01*
X45982812Y-91843624D01*
X46146784Y-91911544D01*
X46294354Y-92010147D01*
X46419853Y-92135646D01*
X46518456Y-92283216D01*
X46586376Y-92447188D01*
X46621000Y-92621259D01*
X46621000Y-92798741D01*
X46586376Y-92972812D01*
X46518456Y-93136784D01*
X46419853Y-93284354D01*
X46294354Y-93409853D01*
X46146784Y-93508456D01*
X45982812Y-93576376D01*
X45833512Y-93606073D01*
X45808742Y-93611000D01*
X45631258Y-93611000D01*
X45606488Y-93606073D01*
X45457188Y-93576376D01*
X45293216Y-93508456D01*
X45145646Y-93409853D01*
X45020147Y-93284354D01*
X44921544Y-93136784D01*
X44853624Y-92972812D01*
X44819000Y-92798741D01*
X44819000Y-92621259D01*
X44853624Y-92447188D01*
X44921544Y-92283216D01*
X45020147Y-92135646D01*
X45145646Y-92010147D01*
X45293216Y-91911544D01*
X45457188Y-91843624D01*
X45606488Y-91813927D01*
X45631258Y-91809000D01*
X45808742Y-91809000D01*
X45833512Y-91813927D01*
X45833512Y-91813927D01*
G37*
G36*
X55993512Y-91813927D02*
G01*
X56142812Y-91843624D01*
X56306784Y-91911544D01*
X56454354Y-92010147D01*
X56579853Y-92135646D01*
X56678456Y-92283216D01*
X56746376Y-92447188D01*
X56781000Y-92621259D01*
X56781000Y-92798741D01*
X56746376Y-92972812D01*
X56678456Y-93136784D01*
X56579853Y-93284354D01*
X56454354Y-93409853D01*
X56306784Y-93508456D01*
X56142812Y-93576376D01*
X55993512Y-93606073D01*
X55968742Y-93611000D01*
X55791258Y-93611000D01*
X55766488Y-93606073D01*
X55617188Y-93576376D01*
X55453216Y-93508456D01*
X55305646Y-93409853D01*
X55180147Y-93284354D01*
X55081544Y-93136784D01*
X55013624Y-92972812D01*
X54979000Y-92798741D01*
X54979000Y-92621259D01*
X55013624Y-92447188D01*
X55081544Y-92283216D01*
X55180147Y-92135646D01*
X55305646Y-92010147D01*
X55453216Y-91911544D01*
X55617188Y-91843624D01*
X55766488Y-91813927D01*
X55791258Y-91809000D01*
X55968742Y-91809000D01*
X55993512Y-91813927D01*
X55993512Y-91813927D01*
G37*
G36*
X71233512Y-91813927D02*
G01*
X71382812Y-91843624D01*
X71546784Y-91911544D01*
X71694354Y-92010147D01*
X71819853Y-92135646D01*
X71918456Y-92283216D01*
X71986376Y-92447188D01*
X72021000Y-92621259D01*
X72021000Y-92798741D01*
X71986376Y-92972812D01*
X71918456Y-93136784D01*
X71819853Y-93284354D01*
X71694354Y-93409853D01*
X71546784Y-93508456D01*
X71382812Y-93576376D01*
X71233512Y-93606073D01*
X71208742Y-93611000D01*
X71031258Y-93611000D01*
X71006488Y-93606073D01*
X70857188Y-93576376D01*
X70693216Y-93508456D01*
X70545646Y-93409853D01*
X70420147Y-93284354D01*
X70321544Y-93136784D01*
X70253624Y-92972812D01*
X70219000Y-92798741D01*
X70219000Y-92621259D01*
X70253624Y-92447188D01*
X70321544Y-92283216D01*
X70420147Y-92135646D01*
X70545646Y-92010147D01*
X70693216Y-91911544D01*
X70857188Y-91843624D01*
X71006488Y-91813927D01*
X71031258Y-91809000D01*
X71208742Y-91809000D01*
X71233512Y-91813927D01*
X71233512Y-91813927D01*
G37*
G36*
X81393512Y-91813927D02*
G01*
X81542812Y-91843624D01*
X81706784Y-91911544D01*
X81854354Y-92010147D01*
X81979853Y-92135646D01*
X82078456Y-92283216D01*
X82146376Y-92447188D01*
X82181000Y-92621259D01*
X82181000Y-92798741D01*
X82146376Y-92972812D01*
X82078456Y-93136784D01*
X81979853Y-93284354D01*
X81854354Y-93409853D01*
X81706784Y-93508456D01*
X81542812Y-93576376D01*
X81393512Y-93606073D01*
X81368742Y-93611000D01*
X81191258Y-93611000D01*
X81166488Y-93606073D01*
X81017188Y-93576376D01*
X80853216Y-93508456D01*
X80705646Y-93409853D01*
X80580147Y-93284354D01*
X80481544Y-93136784D01*
X80413624Y-92972812D01*
X80379000Y-92798741D01*
X80379000Y-92621259D01*
X80413624Y-92447188D01*
X80481544Y-92283216D01*
X80580147Y-92135646D01*
X80705646Y-92010147D01*
X80853216Y-91911544D01*
X81017188Y-91843624D01*
X81166488Y-91813927D01*
X81191258Y-91809000D01*
X81368742Y-91809000D01*
X81393512Y-91813927D01*
X81393512Y-91813927D01*
G37*
G36*
X72614549Y-89041116D02*
G01*
X72725734Y-89063232D01*
X72935203Y-89149997D01*
X73123720Y-89275960D01*
X73284040Y-89436280D01*
X73410003Y-89624797D01*
X73496768Y-89834266D01*
X73541000Y-90056636D01*
X73541000Y-90283364D01*
X73496768Y-90505734D01*
X73410003Y-90715203D01*
X73284040Y-90903720D01*
X73123720Y-91064040D01*
X72935203Y-91190003D01*
X72725734Y-91276768D01*
X72614549Y-91298884D01*
X72503365Y-91321000D01*
X72276635Y-91321000D01*
X72165451Y-91298884D01*
X72054266Y-91276768D01*
X71844797Y-91190003D01*
X71656280Y-91064040D01*
X71495960Y-90903720D01*
X71369997Y-90715203D01*
X71283232Y-90505734D01*
X71239000Y-90283364D01*
X71239000Y-90056636D01*
X71283232Y-89834266D01*
X71369997Y-89624797D01*
X71495960Y-89436280D01*
X71656280Y-89275960D01*
X71844797Y-89149997D01*
X72054266Y-89063232D01*
X72165451Y-89041116D01*
X72276635Y-89019000D01*
X72503365Y-89019000D01*
X72614549Y-89041116D01*
X72614549Y-89041116D01*
G37*
G36*
X47214549Y-89041116D02*
G01*
X47325734Y-89063232D01*
X47535203Y-89149997D01*
X47723720Y-89275960D01*
X47884040Y-89436280D01*
X48010003Y-89624797D01*
X48096768Y-89834266D01*
X48141000Y-90056636D01*
X48141000Y-90283364D01*
X48096768Y-90505734D01*
X48010003Y-90715203D01*
X47884040Y-90903720D01*
X47723720Y-91064040D01*
X47535203Y-91190003D01*
X47325734Y-91276768D01*
X47214549Y-91298884D01*
X47103365Y-91321000D01*
X46876635Y-91321000D01*
X46765451Y-91298884D01*
X46654266Y-91276768D01*
X46444797Y-91190003D01*
X46256280Y-91064040D01*
X46095960Y-90903720D01*
X45969997Y-90715203D01*
X45883232Y-90505734D01*
X45839000Y-90283364D01*
X45839000Y-90056636D01*
X45883232Y-89834266D01*
X45969997Y-89624797D01*
X46095960Y-89436280D01*
X46256280Y-89275960D01*
X46444797Y-89149997D01*
X46654266Y-89063232D01*
X46765451Y-89041116D01*
X46876635Y-89019000D01*
X47103365Y-89019000D01*
X47214549Y-89041116D01*
X47214549Y-89041116D01*
G37*
G36*
X78964549Y-86501116D02*
G01*
X79075734Y-86523232D01*
X79285203Y-86609997D01*
X79473720Y-86735960D01*
X79634040Y-86896280D01*
X79760003Y-87084797D01*
X79846768Y-87294266D01*
X79891000Y-87516636D01*
X79891000Y-87743364D01*
X79846768Y-87965734D01*
X79760003Y-88175203D01*
X79634040Y-88363720D01*
X79473720Y-88524040D01*
X79285203Y-88650003D01*
X79075734Y-88736768D01*
X78964549Y-88758884D01*
X78853365Y-88781000D01*
X78626635Y-88781000D01*
X78515451Y-88758884D01*
X78404266Y-88736768D01*
X78194797Y-88650003D01*
X78006280Y-88524040D01*
X77845960Y-88363720D01*
X77719997Y-88175203D01*
X77633232Y-87965734D01*
X77589000Y-87743364D01*
X77589000Y-87516636D01*
X77633232Y-87294266D01*
X77719997Y-87084797D01*
X77845960Y-86896280D01*
X78006280Y-86735960D01*
X78194797Y-86609997D01*
X78404266Y-86523232D01*
X78515451Y-86501116D01*
X78626635Y-86479000D01*
X78853365Y-86479000D01*
X78964549Y-86501116D01*
X78964549Y-86501116D01*
G37*
G36*
X53564549Y-86501116D02*
G01*
X53675734Y-86523232D01*
X53885203Y-86609997D01*
X54073720Y-86735960D01*
X54234040Y-86896280D01*
X54360003Y-87084797D01*
X54446768Y-87294266D01*
X54491000Y-87516636D01*
X54491000Y-87743364D01*
X54446768Y-87965734D01*
X54360003Y-88175203D01*
X54234040Y-88363720D01*
X54073720Y-88524040D01*
X53885203Y-88650003D01*
X53675734Y-88736768D01*
X53564549Y-88758884D01*
X53453365Y-88781000D01*
X53226635Y-88781000D01*
X53115451Y-88758884D01*
X53004266Y-88736768D01*
X52794797Y-88650003D01*
X52606280Y-88524040D01*
X52445960Y-88363720D01*
X52319997Y-88175203D01*
X52233232Y-87965734D01*
X52189000Y-87743364D01*
X52189000Y-87516636D01*
X52233232Y-87294266D01*
X52319997Y-87084797D01*
X52445960Y-86896280D01*
X52606280Y-86735960D01*
X52794797Y-86609997D01*
X53004266Y-86523232D01*
X53115451Y-86501116D01*
X53226635Y-86479000D01*
X53453365Y-86479000D01*
X53564549Y-86501116D01*
X53564549Y-86501116D01*
G37*
G36*
X71230443Y-77845519D02*
G01*
X71296627Y-77852037D01*
X71466466Y-77903557D01*
X71622991Y-77987222D01*
X71658729Y-78016552D01*
X71760186Y-78099814D01*
X71843448Y-78201271D01*
X71872778Y-78237009D01*
X71956443Y-78393534D01*
X72007963Y-78563373D01*
X72025359Y-78740000D01*
X72007963Y-78916627D01*
X71956443Y-79086466D01*
X71872778Y-79242991D01*
X71843448Y-79278729D01*
X71760186Y-79380186D01*
X71658729Y-79463448D01*
X71622991Y-79492778D01*
X71466466Y-79576443D01*
X71296627Y-79627963D01*
X71230442Y-79634482D01*
X71164260Y-79641000D01*
X71075740Y-79641000D01*
X71009558Y-79634482D01*
X70943373Y-79627963D01*
X70773534Y-79576443D01*
X70617009Y-79492778D01*
X70581271Y-79463448D01*
X70479814Y-79380186D01*
X70396552Y-79278729D01*
X70367222Y-79242991D01*
X70283557Y-79086466D01*
X70232037Y-78916627D01*
X70214641Y-78740000D01*
X70232037Y-78563373D01*
X70283557Y-78393534D01*
X70367222Y-78237009D01*
X70396552Y-78201271D01*
X70479814Y-78099814D01*
X70581271Y-78016552D01*
X70617009Y-77987222D01*
X70773534Y-77903557D01*
X70943373Y-77852037D01*
X71009557Y-77845519D01*
X71075740Y-77839000D01*
X71164260Y-77839000D01*
X71230443Y-77845519D01*
X71230443Y-77845519D01*
G37*
G36*
X55990443Y-77845519D02*
G01*
X56056627Y-77852037D01*
X56226466Y-77903557D01*
X56382991Y-77987222D01*
X56418729Y-78016552D01*
X56520186Y-78099814D01*
X56603448Y-78201271D01*
X56632778Y-78237009D01*
X56716443Y-78393534D01*
X56767963Y-78563373D01*
X56785359Y-78740000D01*
X56767963Y-78916627D01*
X56716443Y-79086466D01*
X56632778Y-79242991D01*
X56603448Y-79278729D01*
X56520186Y-79380186D01*
X56418729Y-79463448D01*
X56382991Y-79492778D01*
X56226466Y-79576443D01*
X56056627Y-79627963D01*
X55990442Y-79634482D01*
X55924260Y-79641000D01*
X55835740Y-79641000D01*
X55769558Y-79634482D01*
X55703373Y-79627963D01*
X55533534Y-79576443D01*
X55377009Y-79492778D01*
X55341271Y-79463448D01*
X55239814Y-79380186D01*
X55156552Y-79278729D01*
X55127222Y-79242991D01*
X55043557Y-79086466D01*
X54992037Y-78916627D01*
X54974641Y-78740000D01*
X54992037Y-78563373D01*
X55043557Y-78393534D01*
X55127222Y-78237009D01*
X55156552Y-78201271D01*
X55239814Y-78099814D01*
X55341271Y-78016552D01*
X55377009Y-77987222D01*
X55533534Y-77903557D01*
X55703373Y-77852037D01*
X55769557Y-77845519D01*
X55835740Y-77839000D01*
X55924260Y-77839000D01*
X55990443Y-77845519D01*
X55990443Y-77845519D01*
G37*
G36*
X55990442Y-75305518D02*
G01*
X56056627Y-75312037D01*
X56226466Y-75363557D01*
X56382991Y-75447222D01*
X56418729Y-75476552D01*
X56520186Y-75559814D01*
X56603448Y-75661271D01*
X56632778Y-75697009D01*
X56716443Y-75853534D01*
X56767963Y-76023373D01*
X56785359Y-76200000D01*
X56767963Y-76376627D01*
X56716443Y-76546466D01*
X56632778Y-76702991D01*
X56603448Y-76738729D01*
X56520186Y-76840186D01*
X56418729Y-76923448D01*
X56382991Y-76952778D01*
X56226466Y-77036443D01*
X56056627Y-77087963D01*
X55990442Y-77094482D01*
X55924260Y-77101000D01*
X55835740Y-77101000D01*
X55769558Y-77094482D01*
X55703373Y-77087963D01*
X55533534Y-77036443D01*
X55377009Y-76952778D01*
X55341271Y-76923448D01*
X55239814Y-76840186D01*
X55156552Y-76738729D01*
X55127222Y-76702991D01*
X55043557Y-76546466D01*
X54992037Y-76376627D01*
X54974641Y-76200000D01*
X54992037Y-76023373D01*
X55043557Y-75853534D01*
X55127222Y-75697009D01*
X55156552Y-75661271D01*
X55239814Y-75559814D01*
X55341271Y-75476552D01*
X55377009Y-75447222D01*
X55533534Y-75363557D01*
X55703373Y-75312037D01*
X55769558Y-75305518D01*
X55835740Y-75299000D01*
X55924260Y-75299000D01*
X55990442Y-75305518D01*
X55990442Y-75305518D01*
G37*
G36*
X71230442Y-75305518D02*
G01*
X71296627Y-75312037D01*
X71466466Y-75363557D01*
X71622991Y-75447222D01*
X71658729Y-75476552D01*
X71760186Y-75559814D01*
X71843448Y-75661271D01*
X71872778Y-75697009D01*
X71956443Y-75853534D01*
X72007963Y-76023373D01*
X72025359Y-76200000D01*
X72007963Y-76376627D01*
X71956443Y-76546466D01*
X71872778Y-76702991D01*
X71843448Y-76738729D01*
X71760186Y-76840186D01*
X71658729Y-76923448D01*
X71622991Y-76952778D01*
X71466466Y-77036443D01*
X71296627Y-77087963D01*
X71230442Y-77094482D01*
X71164260Y-77101000D01*
X71075740Y-77101000D01*
X71009558Y-77094482D01*
X70943373Y-77087963D01*
X70773534Y-77036443D01*
X70617009Y-76952778D01*
X70581271Y-76923448D01*
X70479814Y-76840186D01*
X70396552Y-76738729D01*
X70367222Y-76702991D01*
X70283557Y-76546466D01*
X70232037Y-76376627D01*
X70214641Y-76200000D01*
X70232037Y-76023373D01*
X70283557Y-75853534D01*
X70367222Y-75697009D01*
X70396552Y-75661271D01*
X70479814Y-75559814D01*
X70581271Y-75476552D01*
X70617009Y-75447222D01*
X70773534Y-75363557D01*
X70943373Y-75312037D01*
X71009558Y-75305518D01*
X71075740Y-75299000D01*
X71164260Y-75299000D01*
X71230442Y-75305518D01*
X71230442Y-75305518D01*
G37*
G36*
X55990442Y-72765518D02*
G01*
X56056627Y-72772037D01*
X56226466Y-72823557D01*
X56382991Y-72907222D01*
X56418729Y-72936552D01*
X56520186Y-73019814D01*
X56603448Y-73121271D01*
X56632778Y-73157009D01*
X56716443Y-73313534D01*
X56767963Y-73483373D01*
X56785359Y-73660000D01*
X56767963Y-73836627D01*
X56716443Y-74006466D01*
X56632778Y-74162991D01*
X56603448Y-74198729D01*
X56520186Y-74300186D01*
X56418729Y-74383448D01*
X56382991Y-74412778D01*
X56226466Y-74496443D01*
X56056627Y-74547963D01*
X55990442Y-74554482D01*
X55924260Y-74561000D01*
X55835740Y-74561000D01*
X55769558Y-74554482D01*
X55703373Y-74547963D01*
X55533534Y-74496443D01*
X55377009Y-74412778D01*
X55341271Y-74383448D01*
X55239814Y-74300186D01*
X55156552Y-74198729D01*
X55127222Y-74162991D01*
X55043557Y-74006466D01*
X54992037Y-73836627D01*
X54974641Y-73660000D01*
X54992037Y-73483373D01*
X55043557Y-73313534D01*
X55127222Y-73157009D01*
X55156552Y-73121271D01*
X55239814Y-73019814D01*
X55341271Y-72936552D01*
X55377009Y-72907222D01*
X55533534Y-72823557D01*
X55703373Y-72772037D01*
X55769558Y-72765518D01*
X55835740Y-72759000D01*
X55924260Y-72759000D01*
X55990442Y-72765518D01*
X55990442Y-72765518D01*
G37*
G36*
X71230442Y-72765518D02*
G01*
X71296627Y-72772037D01*
X71466466Y-72823557D01*
X71622991Y-72907222D01*
X71658729Y-72936552D01*
X71760186Y-73019814D01*
X71843448Y-73121271D01*
X71872778Y-73157009D01*
X71956443Y-73313534D01*
X72007963Y-73483373D01*
X72025359Y-73660000D01*
X72007963Y-73836627D01*
X71956443Y-74006466D01*
X71872778Y-74162991D01*
X71843448Y-74198729D01*
X71760186Y-74300186D01*
X71658729Y-74383448D01*
X71622991Y-74412778D01*
X71466466Y-74496443D01*
X71296627Y-74547963D01*
X71230442Y-74554482D01*
X71164260Y-74561000D01*
X71075740Y-74561000D01*
X71009558Y-74554482D01*
X70943373Y-74547963D01*
X70773534Y-74496443D01*
X70617009Y-74412778D01*
X70581271Y-74383448D01*
X70479814Y-74300186D01*
X70396552Y-74198729D01*
X70367222Y-74162991D01*
X70283557Y-74006466D01*
X70232037Y-73836627D01*
X70214641Y-73660000D01*
X70232037Y-73483373D01*
X70283557Y-73313534D01*
X70367222Y-73157009D01*
X70396552Y-73121271D01*
X70479814Y-73019814D01*
X70581271Y-72936552D01*
X70617009Y-72907222D01*
X70773534Y-72823557D01*
X70943373Y-72772037D01*
X71009558Y-72765518D01*
X71075740Y-72759000D01*
X71164260Y-72759000D01*
X71230442Y-72765518D01*
X71230442Y-72765518D01*
G37*
G36*
X71230442Y-70225518D02*
G01*
X71296627Y-70232037D01*
X71466466Y-70283557D01*
X71622991Y-70367222D01*
X71658729Y-70396552D01*
X71760186Y-70479814D01*
X71843448Y-70581271D01*
X71872778Y-70617009D01*
X71956443Y-70773534D01*
X72007963Y-70943373D01*
X72025359Y-71120000D01*
X72007963Y-71296627D01*
X71956443Y-71466466D01*
X71872778Y-71622991D01*
X71843448Y-71658729D01*
X71760186Y-71760186D01*
X71658729Y-71843448D01*
X71622991Y-71872778D01*
X71466466Y-71956443D01*
X71296627Y-72007963D01*
X71230443Y-72014481D01*
X71164260Y-72021000D01*
X71075740Y-72021000D01*
X71009557Y-72014481D01*
X70943373Y-72007963D01*
X70773534Y-71956443D01*
X70617009Y-71872778D01*
X70581271Y-71843448D01*
X70479814Y-71760186D01*
X70396552Y-71658729D01*
X70367222Y-71622991D01*
X70283557Y-71466466D01*
X70232037Y-71296627D01*
X70214641Y-71120000D01*
X70232037Y-70943373D01*
X70283557Y-70773534D01*
X70367222Y-70617009D01*
X70396552Y-70581271D01*
X70479814Y-70479814D01*
X70581271Y-70396552D01*
X70617009Y-70367222D01*
X70773534Y-70283557D01*
X70943373Y-70232037D01*
X71009558Y-70225518D01*
X71075740Y-70219000D01*
X71164260Y-70219000D01*
X71230442Y-70225518D01*
X71230442Y-70225518D01*
G37*
G36*
X55990442Y-70225518D02*
G01*
X56056627Y-70232037D01*
X56226466Y-70283557D01*
X56382991Y-70367222D01*
X56418729Y-70396552D01*
X56520186Y-70479814D01*
X56603448Y-70581271D01*
X56632778Y-70617009D01*
X56716443Y-70773534D01*
X56767963Y-70943373D01*
X56785359Y-71120000D01*
X56767963Y-71296627D01*
X56716443Y-71466466D01*
X56632778Y-71622991D01*
X56603448Y-71658729D01*
X56520186Y-71760186D01*
X56418729Y-71843448D01*
X56382991Y-71872778D01*
X56226466Y-71956443D01*
X56056627Y-72007963D01*
X55990443Y-72014481D01*
X55924260Y-72021000D01*
X55835740Y-72021000D01*
X55769557Y-72014481D01*
X55703373Y-72007963D01*
X55533534Y-71956443D01*
X55377009Y-71872778D01*
X55341271Y-71843448D01*
X55239814Y-71760186D01*
X55156552Y-71658729D01*
X55127222Y-71622991D01*
X55043557Y-71466466D01*
X54992037Y-71296627D01*
X54974641Y-71120000D01*
X54992037Y-70943373D01*
X55043557Y-70773534D01*
X55127222Y-70617009D01*
X55156552Y-70581271D01*
X55239814Y-70479814D01*
X55341271Y-70396552D01*
X55377009Y-70367222D01*
X55533534Y-70283557D01*
X55703373Y-70232037D01*
X55769558Y-70225518D01*
X55835740Y-70219000D01*
X55924260Y-70219000D01*
X55990442Y-70225518D01*
X55990442Y-70225518D01*
G37*
G36*
X55990443Y-67685519D02*
G01*
X56056627Y-67692037D01*
X56226466Y-67743557D01*
X56382991Y-67827222D01*
X56418729Y-67856552D01*
X56520186Y-67939814D01*
X56603448Y-68041271D01*
X56632778Y-68077009D01*
X56716443Y-68233534D01*
X56767963Y-68403373D01*
X56785359Y-68580000D01*
X56767963Y-68756627D01*
X56716443Y-68926466D01*
X56632778Y-69082991D01*
X56603448Y-69118729D01*
X56520186Y-69220186D01*
X56418729Y-69303448D01*
X56382991Y-69332778D01*
X56226466Y-69416443D01*
X56056627Y-69467963D01*
X55990442Y-69474482D01*
X55924260Y-69481000D01*
X55835740Y-69481000D01*
X55769558Y-69474482D01*
X55703373Y-69467963D01*
X55533534Y-69416443D01*
X55377009Y-69332778D01*
X55341271Y-69303448D01*
X55239814Y-69220186D01*
X55156552Y-69118729D01*
X55127222Y-69082991D01*
X55043557Y-68926466D01*
X54992037Y-68756627D01*
X54974641Y-68580000D01*
X54992037Y-68403373D01*
X55043557Y-68233534D01*
X55127222Y-68077009D01*
X55156552Y-68041271D01*
X55239814Y-67939814D01*
X55341271Y-67856552D01*
X55377009Y-67827222D01*
X55533534Y-67743557D01*
X55703373Y-67692037D01*
X55769557Y-67685519D01*
X55835740Y-67679000D01*
X55924260Y-67679000D01*
X55990443Y-67685519D01*
X55990443Y-67685519D01*
G37*
G36*
X71230443Y-67685519D02*
G01*
X71296627Y-67692037D01*
X71466466Y-67743557D01*
X71622991Y-67827222D01*
X71658729Y-67856552D01*
X71760186Y-67939814D01*
X71843448Y-68041271D01*
X71872778Y-68077009D01*
X71956443Y-68233534D01*
X72007963Y-68403373D01*
X72025359Y-68580000D01*
X72007963Y-68756627D01*
X71956443Y-68926466D01*
X71872778Y-69082991D01*
X71843448Y-69118729D01*
X71760186Y-69220186D01*
X71658729Y-69303448D01*
X71622991Y-69332778D01*
X71466466Y-69416443D01*
X71296627Y-69467963D01*
X71230442Y-69474482D01*
X71164260Y-69481000D01*
X71075740Y-69481000D01*
X71009558Y-69474482D01*
X70943373Y-69467963D01*
X70773534Y-69416443D01*
X70617009Y-69332778D01*
X70581271Y-69303448D01*
X70479814Y-69220186D01*
X70396552Y-69118729D01*
X70367222Y-69082991D01*
X70283557Y-68926466D01*
X70232037Y-68756627D01*
X70214641Y-68580000D01*
X70232037Y-68403373D01*
X70283557Y-68233534D01*
X70367222Y-68077009D01*
X70396552Y-68041271D01*
X70479814Y-67939814D01*
X70581271Y-67856552D01*
X70617009Y-67827222D01*
X70773534Y-67743557D01*
X70943373Y-67692037D01*
X71009557Y-67685519D01*
X71075740Y-67679000D01*
X71164260Y-67679000D01*
X71230443Y-67685519D01*
X71230443Y-67685519D01*
G37*
G36*
X76788674Y-67713465D02*
G01*
X76826367Y-67724899D01*
X76861103Y-67743466D01*
X76891548Y-67768452D01*
X76916534Y-67798897D01*
X76935101Y-67833633D01*
X76946535Y-67871326D01*
X76951000Y-67916661D01*
X76951000Y-68753339D01*
X76946535Y-68798674D01*
X76935101Y-68836367D01*
X76916534Y-68871103D01*
X76891548Y-68901548D01*
X76861103Y-68926534D01*
X76826367Y-68945101D01*
X76788674Y-68956535D01*
X76743339Y-68961000D01*
X75656661Y-68961000D01*
X75611326Y-68956535D01*
X75573633Y-68945101D01*
X75538897Y-68926534D01*
X75508452Y-68901548D01*
X75483466Y-68871103D01*
X75464899Y-68836367D01*
X75453465Y-68798674D01*
X75449000Y-68753339D01*
X75449000Y-67916661D01*
X75453465Y-67871326D01*
X75464899Y-67833633D01*
X75483466Y-67798897D01*
X75508452Y-67768452D01*
X75538897Y-67743466D01*
X75573633Y-67724899D01*
X75611326Y-67713465D01*
X75656661Y-67709000D01*
X76743339Y-67709000D01*
X76788674Y-67713465D01*
X76788674Y-67713465D01*
G37*
G36*
X84408674Y-67713465D02*
G01*
X84446367Y-67724899D01*
X84481103Y-67743466D01*
X84511548Y-67768452D01*
X84536534Y-67798897D01*
X84555101Y-67833633D01*
X84566535Y-67871326D01*
X84571000Y-67916661D01*
X84571000Y-68753339D01*
X84566535Y-68798674D01*
X84555101Y-68836367D01*
X84536534Y-68871103D01*
X84511548Y-68901548D01*
X84481103Y-68926534D01*
X84446367Y-68945101D01*
X84408674Y-68956535D01*
X84363339Y-68961000D01*
X83276661Y-68961000D01*
X83231326Y-68956535D01*
X83193633Y-68945101D01*
X83158897Y-68926534D01*
X83128452Y-68901548D01*
X83103466Y-68871103D01*
X83084899Y-68836367D01*
X83073465Y-68798674D01*
X83069000Y-68753339D01*
X83069000Y-67916661D01*
X83073465Y-67871326D01*
X83084899Y-67833633D01*
X83103466Y-67798897D01*
X83128452Y-67768452D01*
X83158897Y-67743466D01*
X83193633Y-67724899D01*
X83231326Y-67713465D01*
X83276661Y-67709000D01*
X84363339Y-67709000D01*
X84408674Y-67713465D01*
X84408674Y-67713465D01*
G37*
G36*
X80598674Y-67713465D02*
G01*
X80636367Y-67724899D01*
X80671103Y-67743466D01*
X80701548Y-67768452D01*
X80726534Y-67798897D01*
X80745101Y-67833633D01*
X80756535Y-67871326D01*
X80761000Y-67916661D01*
X80761000Y-68753339D01*
X80756535Y-68798674D01*
X80745101Y-68836367D01*
X80726534Y-68871103D01*
X80701548Y-68901548D01*
X80671103Y-68926534D01*
X80636367Y-68945101D01*
X80598674Y-68956535D01*
X80553339Y-68961000D01*
X79466661Y-68961000D01*
X79421326Y-68956535D01*
X79383633Y-68945101D01*
X79348897Y-68926534D01*
X79318452Y-68901548D01*
X79293466Y-68871103D01*
X79274899Y-68836367D01*
X79263465Y-68798674D01*
X79259000Y-68753339D01*
X79259000Y-67916661D01*
X79263465Y-67871326D01*
X79274899Y-67833633D01*
X79293466Y-67798897D01*
X79318452Y-67768452D01*
X79348897Y-67743466D01*
X79383633Y-67724899D01*
X79421326Y-67713465D01*
X79466661Y-67709000D01*
X80553339Y-67709000D01*
X80598674Y-67713465D01*
X80598674Y-67713465D01*
G37*
G36*
X71230442Y-65145518D02*
G01*
X71296627Y-65152037D01*
X71466466Y-65203557D01*
X71622991Y-65287222D01*
X71658729Y-65316552D01*
X71760186Y-65399814D01*
X71843448Y-65501271D01*
X71872778Y-65537009D01*
X71956443Y-65693534D01*
X72007963Y-65863373D01*
X72025359Y-66040000D01*
X72007963Y-66216627D01*
X71956443Y-66386466D01*
X71872778Y-66542991D01*
X71843448Y-66578729D01*
X71760186Y-66680186D01*
X71676732Y-66748674D01*
X71622991Y-66792778D01*
X71466466Y-66876443D01*
X71296627Y-66927963D01*
X71230442Y-66934482D01*
X71164260Y-66941000D01*
X71075740Y-66941000D01*
X71009558Y-66934482D01*
X70943373Y-66927963D01*
X70773534Y-66876443D01*
X70617009Y-66792778D01*
X70563268Y-66748674D01*
X70479814Y-66680186D01*
X70396552Y-66578729D01*
X70367222Y-66542991D01*
X70283557Y-66386466D01*
X70232037Y-66216627D01*
X70214641Y-66040000D01*
X70232037Y-65863373D01*
X70283557Y-65693534D01*
X70367222Y-65537009D01*
X70396552Y-65501271D01*
X70479814Y-65399814D01*
X70581271Y-65316552D01*
X70617009Y-65287222D01*
X70773534Y-65203557D01*
X70943373Y-65152037D01*
X71009558Y-65145518D01*
X71075740Y-65139000D01*
X71164260Y-65139000D01*
X71230442Y-65145518D01*
X71230442Y-65145518D01*
G37*
G36*
X55990442Y-65145518D02*
G01*
X56056627Y-65152037D01*
X56226466Y-65203557D01*
X56382991Y-65287222D01*
X56418729Y-65316552D01*
X56520186Y-65399814D01*
X56603448Y-65501271D01*
X56632778Y-65537009D01*
X56716443Y-65693534D01*
X56767963Y-65863373D01*
X56785359Y-66040000D01*
X56767963Y-66216627D01*
X56716443Y-66386466D01*
X56632778Y-66542991D01*
X56603448Y-66578729D01*
X56520186Y-66680186D01*
X56436732Y-66748674D01*
X56382991Y-66792778D01*
X56226466Y-66876443D01*
X56056627Y-66927963D01*
X55990442Y-66934482D01*
X55924260Y-66941000D01*
X55835740Y-66941000D01*
X55769558Y-66934482D01*
X55703373Y-66927963D01*
X55533534Y-66876443D01*
X55377009Y-66792778D01*
X55323268Y-66748674D01*
X55239814Y-66680186D01*
X55156552Y-66578729D01*
X55127222Y-66542991D01*
X55043557Y-66386466D01*
X54992037Y-66216627D01*
X54974641Y-66040000D01*
X54992037Y-65863373D01*
X55043557Y-65693534D01*
X55127222Y-65537009D01*
X55156552Y-65501271D01*
X55239814Y-65399814D01*
X55341271Y-65316552D01*
X55377009Y-65287222D01*
X55533534Y-65203557D01*
X55703373Y-65152037D01*
X55769558Y-65145518D01*
X55835740Y-65139000D01*
X55924260Y-65139000D01*
X55990442Y-65145518D01*
X55990442Y-65145518D01*
G37*
G36*
X84408674Y-65663465D02*
G01*
X84446367Y-65674899D01*
X84481103Y-65693466D01*
X84511548Y-65718452D01*
X84536534Y-65748897D01*
X84555101Y-65783633D01*
X84566535Y-65821326D01*
X84571000Y-65866661D01*
X84571000Y-66703339D01*
X84566535Y-66748674D01*
X84555101Y-66786367D01*
X84536534Y-66821103D01*
X84511548Y-66851548D01*
X84481103Y-66876534D01*
X84446367Y-66895101D01*
X84408674Y-66906535D01*
X84363339Y-66911000D01*
X83276661Y-66911000D01*
X83231326Y-66906535D01*
X83193633Y-66895101D01*
X83158897Y-66876534D01*
X83128452Y-66851548D01*
X83103466Y-66821103D01*
X83084899Y-66786367D01*
X83073465Y-66748674D01*
X83069000Y-66703339D01*
X83069000Y-65866661D01*
X83073465Y-65821326D01*
X83084899Y-65783633D01*
X83103466Y-65748897D01*
X83128452Y-65718452D01*
X83158897Y-65693466D01*
X83193633Y-65674899D01*
X83231326Y-65663465D01*
X83276661Y-65659000D01*
X84363339Y-65659000D01*
X84408674Y-65663465D01*
X84408674Y-65663465D01*
G37*
G36*
X80598674Y-65663465D02*
G01*
X80636367Y-65674899D01*
X80671103Y-65693466D01*
X80701548Y-65718452D01*
X80726534Y-65748897D01*
X80745101Y-65783633D01*
X80756535Y-65821326D01*
X80761000Y-65866661D01*
X80761000Y-66703339D01*
X80756535Y-66748674D01*
X80745101Y-66786367D01*
X80726534Y-66821103D01*
X80701548Y-66851548D01*
X80671103Y-66876534D01*
X80636367Y-66895101D01*
X80598674Y-66906535D01*
X80553339Y-66911000D01*
X79466661Y-66911000D01*
X79421326Y-66906535D01*
X79383633Y-66895101D01*
X79348897Y-66876534D01*
X79318452Y-66851548D01*
X79293466Y-66821103D01*
X79274899Y-66786367D01*
X79263465Y-66748674D01*
X79259000Y-66703339D01*
X79259000Y-65866661D01*
X79263465Y-65821326D01*
X79274899Y-65783633D01*
X79293466Y-65748897D01*
X79318452Y-65718452D01*
X79348897Y-65693466D01*
X79383633Y-65674899D01*
X79421326Y-65663465D01*
X79466661Y-65659000D01*
X80553339Y-65659000D01*
X80598674Y-65663465D01*
X80598674Y-65663465D01*
G37*
G36*
X76788674Y-65663465D02*
G01*
X76826367Y-65674899D01*
X76861103Y-65693466D01*
X76891548Y-65718452D01*
X76916534Y-65748897D01*
X76935101Y-65783633D01*
X76946535Y-65821326D01*
X76951000Y-65866661D01*
X76951000Y-66703339D01*
X76946535Y-66748674D01*
X76935101Y-66786367D01*
X76916534Y-66821103D01*
X76891548Y-66851548D01*
X76861103Y-66876534D01*
X76826367Y-66895101D01*
X76788674Y-66906535D01*
X76743339Y-66911000D01*
X75656661Y-66911000D01*
X75611326Y-66906535D01*
X75573633Y-66895101D01*
X75538897Y-66876534D01*
X75508452Y-66851548D01*
X75483466Y-66821103D01*
X75464899Y-66786367D01*
X75453465Y-66748674D01*
X75449000Y-66703339D01*
X75449000Y-65866661D01*
X75453465Y-65821326D01*
X75464899Y-65783633D01*
X75483466Y-65748897D01*
X75508452Y-65718452D01*
X75538897Y-65693466D01*
X75573633Y-65674899D01*
X75611326Y-65663465D01*
X75656661Y-65659000D01*
X76743339Y-65659000D01*
X76788674Y-65663465D01*
X76788674Y-65663465D01*
G37*
G36*
X71230442Y-62605518D02*
G01*
X71296627Y-62612037D01*
X71466466Y-62663557D01*
X71466468Y-62663558D01*
X71522811Y-62693674D01*
X71622991Y-62747222D01*
X71645997Y-62766103D01*
X71760186Y-62859814D01*
X71843448Y-62961271D01*
X71872778Y-62997009D01*
X71956443Y-63153534D01*
X72007963Y-63323373D01*
X72025359Y-63500000D01*
X72007963Y-63676627D01*
X71956443Y-63846466D01*
X71872778Y-64002991D01*
X71843448Y-64038729D01*
X71760186Y-64140186D01*
X71658729Y-64223448D01*
X71622991Y-64252778D01*
X71466466Y-64336443D01*
X71296627Y-64387963D01*
X71230442Y-64394482D01*
X71164260Y-64401000D01*
X71075740Y-64401000D01*
X71009558Y-64394482D01*
X70943373Y-64387963D01*
X70773534Y-64336443D01*
X70617009Y-64252778D01*
X70581271Y-64223448D01*
X70479814Y-64140186D01*
X70396552Y-64038729D01*
X70367222Y-64002991D01*
X70283557Y-63846466D01*
X70232037Y-63676627D01*
X70214641Y-63500000D01*
X70232037Y-63323373D01*
X70283557Y-63153534D01*
X70367222Y-62997009D01*
X70396552Y-62961271D01*
X70479814Y-62859814D01*
X70594003Y-62766103D01*
X70617009Y-62747222D01*
X70717189Y-62693674D01*
X70773532Y-62663558D01*
X70773534Y-62663557D01*
X70943373Y-62612037D01*
X71009558Y-62605518D01*
X71075740Y-62599000D01*
X71164260Y-62599000D01*
X71230442Y-62605518D01*
X71230442Y-62605518D01*
G37*
G36*
X55990442Y-62605518D02*
G01*
X56056627Y-62612037D01*
X56226466Y-62663557D01*
X56226468Y-62663558D01*
X56282811Y-62693674D01*
X56382991Y-62747222D01*
X56405997Y-62766103D01*
X56520186Y-62859814D01*
X56603448Y-62961271D01*
X56632778Y-62997009D01*
X56716443Y-63153534D01*
X56767963Y-63323373D01*
X56785359Y-63500000D01*
X56767963Y-63676627D01*
X56716443Y-63846466D01*
X56632778Y-64002991D01*
X56603448Y-64038729D01*
X56520186Y-64140186D01*
X56418729Y-64223448D01*
X56382991Y-64252778D01*
X56226466Y-64336443D01*
X56056627Y-64387963D01*
X55990442Y-64394482D01*
X55924260Y-64401000D01*
X55835740Y-64401000D01*
X55769558Y-64394482D01*
X55703373Y-64387963D01*
X55533534Y-64336443D01*
X55377009Y-64252778D01*
X55341271Y-64223448D01*
X55239814Y-64140186D01*
X55156552Y-64038729D01*
X55127222Y-64002991D01*
X55043557Y-63846466D01*
X54992037Y-63676627D01*
X54974641Y-63500000D01*
X54992037Y-63323373D01*
X55043557Y-63153534D01*
X55127222Y-62997009D01*
X55156552Y-62961271D01*
X55239814Y-62859814D01*
X55354003Y-62766103D01*
X55377009Y-62747222D01*
X55477189Y-62693674D01*
X55533532Y-62663558D01*
X55533534Y-62663557D01*
X55703373Y-62612037D01*
X55769558Y-62605518D01*
X55835740Y-62599000D01*
X55924260Y-62599000D01*
X55990442Y-62605518D01*
X55990442Y-62605518D01*
G37*
G36*
X51388674Y-61608465D02*
G01*
X51426367Y-61619899D01*
X51461103Y-61638466D01*
X51491548Y-61663452D01*
X51516534Y-61693897D01*
X51535101Y-61728633D01*
X51546535Y-61766326D01*
X51551000Y-61811661D01*
X51551000Y-62648339D01*
X51546535Y-62693674D01*
X51535101Y-62731367D01*
X51516534Y-62766103D01*
X51491548Y-62796548D01*
X51461103Y-62821534D01*
X51426367Y-62840101D01*
X51388674Y-62851535D01*
X51343339Y-62856000D01*
X50256661Y-62856000D01*
X50211326Y-62851535D01*
X50173633Y-62840101D01*
X50138897Y-62821534D01*
X50108452Y-62796548D01*
X50083466Y-62766103D01*
X50064899Y-62731367D01*
X50053465Y-62693674D01*
X50049000Y-62648339D01*
X50049000Y-61811661D01*
X50053465Y-61766326D01*
X50064899Y-61728633D01*
X50083466Y-61693897D01*
X50108452Y-61663452D01*
X50138897Y-61638466D01*
X50173633Y-61619899D01*
X50211326Y-61608465D01*
X50256661Y-61604000D01*
X51343339Y-61604000D01*
X51388674Y-61608465D01*
X51388674Y-61608465D01*
G37*
G36*
X43768674Y-61608465D02*
G01*
X43806367Y-61619899D01*
X43841103Y-61638466D01*
X43871548Y-61663452D01*
X43896534Y-61693897D01*
X43915101Y-61728633D01*
X43926535Y-61766326D01*
X43931000Y-61811661D01*
X43931000Y-62648339D01*
X43926535Y-62693674D01*
X43915101Y-62731367D01*
X43896534Y-62766103D01*
X43871548Y-62796548D01*
X43841103Y-62821534D01*
X43806367Y-62840101D01*
X43768674Y-62851535D01*
X43723339Y-62856000D01*
X42636661Y-62856000D01*
X42591326Y-62851535D01*
X42553633Y-62840101D01*
X42518897Y-62821534D01*
X42488452Y-62796548D01*
X42463466Y-62766103D01*
X42444899Y-62731367D01*
X42433465Y-62693674D01*
X42429000Y-62648339D01*
X42429000Y-61811661D01*
X42433465Y-61766326D01*
X42444899Y-61728633D01*
X42463466Y-61693897D01*
X42488452Y-61663452D01*
X42518897Y-61638466D01*
X42553633Y-61619899D01*
X42591326Y-61608465D01*
X42636661Y-61604000D01*
X43723339Y-61604000D01*
X43768674Y-61608465D01*
X43768674Y-61608465D01*
G37*
G36*
X47578674Y-61608465D02*
G01*
X47616367Y-61619899D01*
X47651103Y-61638466D01*
X47681548Y-61663452D01*
X47706534Y-61693897D01*
X47725101Y-61728633D01*
X47736535Y-61766326D01*
X47741000Y-61811661D01*
X47741000Y-62648339D01*
X47736535Y-62693674D01*
X47725101Y-62731367D01*
X47706534Y-62766103D01*
X47681548Y-62796548D01*
X47651103Y-62821534D01*
X47616367Y-62840101D01*
X47578674Y-62851535D01*
X47533339Y-62856000D01*
X46446661Y-62856000D01*
X46401326Y-62851535D01*
X46363633Y-62840101D01*
X46328897Y-62821534D01*
X46298452Y-62796548D01*
X46273466Y-62766103D01*
X46254899Y-62731367D01*
X46243465Y-62693674D01*
X46239000Y-62648339D01*
X46239000Y-61811661D01*
X46243465Y-61766326D01*
X46254899Y-61728633D01*
X46273466Y-61693897D01*
X46298452Y-61663452D01*
X46328897Y-61638466D01*
X46363633Y-61619899D01*
X46401326Y-61608465D01*
X46446661Y-61604000D01*
X47533339Y-61604000D01*
X47578674Y-61608465D01*
X47578674Y-61608465D01*
G37*
G36*
X55990442Y-60065518D02*
G01*
X56056627Y-60072037D01*
X56226466Y-60123557D01*
X56382991Y-60207222D01*
X56418729Y-60236552D01*
X56520186Y-60319814D01*
X56603448Y-60421271D01*
X56632778Y-60457009D01*
X56716443Y-60613534D01*
X56767963Y-60783373D01*
X56785359Y-60960000D01*
X56767963Y-61136627D01*
X56716443Y-61306466D01*
X56632778Y-61462991D01*
X56603448Y-61498729D01*
X56520186Y-61600186D01*
X56418729Y-61683448D01*
X56382991Y-61712778D01*
X56353329Y-61728633D01*
X56272164Y-61772017D01*
X56226466Y-61796443D01*
X56056627Y-61847963D01*
X55990443Y-61854481D01*
X55924260Y-61861000D01*
X55835740Y-61861000D01*
X55769557Y-61854481D01*
X55703373Y-61847963D01*
X55533534Y-61796443D01*
X55487837Y-61772017D01*
X55406671Y-61728633D01*
X55377009Y-61712778D01*
X55341271Y-61683448D01*
X55239814Y-61600186D01*
X55156552Y-61498729D01*
X55127222Y-61462991D01*
X55043557Y-61306466D01*
X54992037Y-61136627D01*
X54974641Y-60960000D01*
X54992037Y-60783373D01*
X55043557Y-60613534D01*
X55127222Y-60457009D01*
X55156552Y-60421271D01*
X55239814Y-60319814D01*
X55341271Y-60236552D01*
X55377009Y-60207222D01*
X55533534Y-60123557D01*
X55703373Y-60072037D01*
X55769558Y-60065518D01*
X55835740Y-60059000D01*
X55924260Y-60059000D01*
X55990442Y-60065518D01*
X55990442Y-60065518D01*
G37*
G36*
X71230442Y-60065518D02*
G01*
X71296627Y-60072037D01*
X71466466Y-60123557D01*
X71622991Y-60207222D01*
X71658729Y-60236552D01*
X71760186Y-60319814D01*
X71843448Y-60421271D01*
X71872778Y-60457009D01*
X71956443Y-60613534D01*
X72007963Y-60783373D01*
X72025359Y-60960000D01*
X72007963Y-61136627D01*
X71956443Y-61306466D01*
X71872778Y-61462991D01*
X71843448Y-61498729D01*
X71760186Y-61600186D01*
X71658729Y-61683448D01*
X71622991Y-61712778D01*
X71593329Y-61728633D01*
X71512164Y-61772017D01*
X71466466Y-61796443D01*
X71296627Y-61847963D01*
X71230443Y-61854481D01*
X71164260Y-61861000D01*
X71075740Y-61861000D01*
X71009557Y-61854481D01*
X70943373Y-61847963D01*
X70773534Y-61796443D01*
X70727837Y-61772017D01*
X70646671Y-61728633D01*
X70617009Y-61712778D01*
X70581271Y-61683448D01*
X70479814Y-61600186D01*
X70396552Y-61498729D01*
X70367222Y-61462991D01*
X70283557Y-61306466D01*
X70232037Y-61136627D01*
X70214641Y-60960000D01*
X70232037Y-60783373D01*
X70283557Y-60613534D01*
X70367222Y-60457009D01*
X70396552Y-60421271D01*
X70479814Y-60319814D01*
X70581271Y-60236552D01*
X70617009Y-60207222D01*
X70773534Y-60123557D01*
X70943373Y-60072037D01*
X71009558Y-60065518D01*
X71075740Y-60059000D01*
X71164260Y-60059000D01*
X71230442Y-60065518D01*
X71230442Y-60065518D01*
G37*
G36*
X78371000Y-61861000D02*
G01*
X76569000Y-61861000D01*
X76569000Y-60059000D01*
X78371000Y-60059000D01*
X78371000Y-61861000D01*
X78371000Y-61861000D01*
G37*
G36*
X51388674Y-59558465D02*
G01*
X51426367Y-59569899D01*
X51461103Y-59588466D01*
X51491548Y-59613452D01*
X51516534Y-59643897D01*
X51535101Y-59678633D01*
X51546535Y-59716326D01*
X51551000Y-59761661D01*
X51551000Y-60598339D01*
X51546535Y-60643674D01*
X51535101Y-60681367D01*
X51516534Y-60716103D01*
X51491548Y-60746548D01*
X51461103Y-60771534D01*
X51426367Y-60790101D01*
X51388674Y-60801535D01*
X51343339Y-60806000D01*
X50256661Y-60806000D01*
X50211326Y-60801535D01*
X50173633Y-60790101D01*
X50138897Y-60771534D01*
X50108452Y-60746548D01*
X50083466Y-60716103D01*
X50064899Y-60681367D01*
X50053465Y-60643674D01*
X50049000Y-60598339D01*
X50049000Y-59761661D01*
X50053465Y-59716326D01*
X50064899Y-59678633D01*
X50083466Y-59643897D01*
X50108452Y-59613452D01*
X50138897Y-59588466D01*
X50173633Y-59569899D01*
X50211326Y-59558465D01*
X50256661Y-59554000D01*
X51343339Y-59554000D01*
X51388674Y-59558465D01*
X51388674Y-59558465D01*
G37*
G36*
X47578674Y-59558465D02*
G01*
X47616367Y-59569899D01*
X47651103Y-59588466D01*
X47681548Y-59613452D01*
X47706534Y-59643897D01*
X47725101Y-59678633D01*
X47736535Y-59716326D01*
X47741000Y-59761661D01*
X47741000Y-60598339D01*
X47736535Y-60643674D01*
X47725101Y-60681367D01*
X47706534Y-60716103D01*
X47681548Y-60746548D01*
X47651103Y-60771534D01*
X47616367Y-60790101D01*
X47578674Y-60801535D01*
X47533339Y-60806000D01*
X46446661Y-60806000D01*
X46401326Y-60801535D01*
X46363633Y-60790101D01*
X46328897Y-60771534D01*
X46298452Y-60746548D01*
X46273466Y-60716103D01*
X46254899Y-60681367D01*
X46243465Y-60643674D01*
X46239000Y-60598339D01*
X46239000Y-59761661D01*
X46243465Y-59716326D01*
X46254899Y-59678633D01*
X46273466Y-59643897D01*
X46298452Y-59613452D01*
X46328897Y-59588466D01*
X46363633Y-59569899D01*
X46401326Y-59558465D01*
X46446661Y-59554000D01*
X47533339Y-59554000D01*
X47578674Y-59558465D01*
X47578674Y-59558465D01*
G37*
G36*
X43768674Y-59558465D02*
G01*
X43806367Y-59569899D01*
X43841103Y-59588466D01*
X43871548Y-59613452D01*
X43896534Y-59643897D01*
X43915101Y-59678633D01*
X43926535Y-59716326D01*
X43931000Y-59761661D01*
X43931000Y-60598339D01*
X43926535Y-60643674D01*
X43915101Y-60681367D01*
X43896534Y-60716103D01*
X43871548Y-60746548D01*
X43841103Y-60771534D01*
X43806367Y-60790101D01*
X43768674Y-60801535D01*
X43723339Y-60806000D01*
X42636661Y-60806000D01*
X42591326Y-60801535D01*
X42553633Y-60790101D01*
X42518897Y-60771534D01*
X42488452Y-60746548D01*
X42463466Y-60716103D01*
X42444899Y-60681367D01*
X42433465Y-60643674D01*
X42429000Y-60598339D01*
X42429000Y-59761661D01*
X42433465Y-59716326D01*
X42444899Y-59678633D01*
X42463466Y-59643897D01*
X42488452Y-59613452D01*
X42518897Y-59588466D01*
X42553633Y-59569899D01*
X42591326Y-59558465D01*
X42636661Y-59554000D01*
X43723339Y-59554000D01*
X43768674Y-59558465D01*
X43768674Y-59558465D01*
G37*
G36*
X77580443Y-57525519D02*
G01*
X77646627Y-57532037D01*
X77816466Y-57583557D01*
X77972991Y-57667222D01*
X78008729Y-57696552D01*
X78110186Y-57779814D01*
X78193448Y-57881271D01*
X78222778Y-57917009D01*
X78306443Y-58073534D01*
X78357963Y-58243373D01*
X78375359Y-58420000D01*
X78357963Y-58596627D01*
X78306443Y-58766466D01*
X78222778Y-58922991D01*
X78193448Y-58958729D01*
X78110186Y-59060186D01*
X78008729Y-59143448D01*
X77972991Y-59172778D01*
X77816466Y-59256443D01*
X77646627Y-59307963D01*
X77580442Y-59314482D01*
X77514260Y-59321000D01*
X77425740Y-59321000D01*
X77359558Y-59314482D01*
X77293373Y-59307963D01*
X77123534Y-59256443D01*
X76967009Y-59172778D01*
X76931271Y-59143448D01*
X76829814Y-59060186D01*
X76746552Y-58958729D01*
X76717222Y-58922991D01*
X76633557Y-58766466D01*
X76582037Y-58596627D01*
X76564641Y-58420000D01*
X76582037Y-58243373D01*
X76633557Y-58073534D01*
X76717222Y-57917009D01*
X76746552Y-57881271D01*
X76829814Y-57779814D01*
X76931271Y-57696552D01*
X76967009Y-57667222D01*
X77123534Y-57583557D01*
X77293373Y-57532037D01*
X77359557Y-57525519D01*
X77425740Y-57519000D01*
X77514260Y-57519000D01*
X77580443Y-57525519D01*
X77580443Y-57525519D01*
G37*
G36*
X55990443Y-57525519D02*
G01*
X56056627Y-57532037D01*
X56226466Y-57583557D01*
X56382991Y-57667222D01*
X56418729Y-57696552D01*
X56520186Y-57779814D01*
X56603448Y-57881271D01*
X56632778Y-57917009D01*
X56716443Y-58073534D01*
X56767963Y-58243373D01*
X56785359Y-58420000D01*
X56767963Y-58596627D01*
X56716443Y-58766466D01*
X56632778Y-58922991D01*
X56603448Y-58958729D01*
X56520186Y-59060186D01*
X56418729Y-59143448D01*
X56382991Y-59172778D01*
X56226466Y-59256443D01*
X56056627Y-59307963D01*
X55990442Y-59314482D01*
X55924260Y-59321000D01*
X55835740Y-59321000D01*
X55769558Y-59314482D01*
X55703373Y-59307963D01*
X55533534Y-59256443D01*
X55377009Y-59172778D01*
X55341271Y-59143448D01*
X55239814Y-59060186D01*
X55156552Y-58958729D01*
X55127222Y-58922991D01*
X55043557Y-58766466D01*
X54992037Y-58596627D01*
X54974641Y-58420000D01*
X54992037Y-58243373D01*
X55043557Y-58073534D01*
X55127222Y-57917009D01*
X55156552Y-57881271D01*
X55239814Y-57779814D01*
X55341271Y-57696552D01*
X55377009Y-57667222D01*
X55533534Y-57583557D01*
X55703373Y-57532037D01*
X55769557Y-57525519D01*
X55835740Y-57519000D01*
X55924260Y-57519000D01*
X55990443Y-57525519D01*
X55990443Y-57525519D01*
G37*
G36*
X71230443Y-57525519D02*
G01*
X71296627Y-57532037D01*
X71466466Y-57583557D01*
X71622991Y-57667222D01*
X71658729Y-57696552D01*
X71760186Y-57779814D01*
X71843448Y-57881271D01*
X71872778Y-57917009D01*
X71956443Y-58073534D01*
X72007963Y-58243373D01*
X72025359Y-58420000D01*
X72007963Y-58596627D01*
X71956443Y-58766466D01*
X71872778Y-58922991D01*
X71843448Y-58958729D01*
X71760186Y-59060186D01*
X71658729Y-59143448D01*
X71622991Y-59172778D01*
X71466466Y-59256443D01*
X71296627Y-59307963D01*
X71230442Y-59314482D01*
X71164260Y-59321000D01*
X71075740Y-59321000D01*
X71009558Y-59314482D01*
X70943373Y-59307963D01*
X70773534Y-59256443D01*
X70617009Y-59172778D01*
X70581271Y-59143448D01*
X70479814Y-59060186D01*
X70396552Y-58958729D01*
X70367222Y-58922991D01*
X70283557Y-58766466D01*
X70232037Y-58596627D01*
X70214641Y-58420000D01*
X70232037Y-58243373D01*
X70283557Y-58073534D01*
X70367222Y-57917009D01*
X70396552Y-57881271D01*
X70479814Y-57779814D01*
X70581271Y-57696552D01*
X70617009Y-57667222D01*
X70773534Y-57583557D01*
X70943373Y-57532037D01*
X71009557Y-57525519D01*
X71075740Y-57519000D01*
X71164260Y-57519000D01*
X71230443Y-57525519D01*
X71230443Y-57525519D01*
G37*
G36*
X55990443Y-54985519D02*
G01*
X56056627Y-54992037D01*
X56226466Y-55043557D01*
X56382991Y-55127222D01*
X56418729Y-55156552D01*
X56520186Y-55239814D01*
X56603448Y-55341271D01*
X56632778Y-55377009D01*
X56716443Y-55533534D01*
X56767963Y-55703373D01*
X56785359Y-55880000D01*
X56767963Y-56056627D01*
X56716443Y-56226466D01*
X56632778Y-56382991D01*
X56603448Y-56418729D01*
X56520186Y-56520186D01*
X56418729Y-56603448D01*
X56382991Y-56632778D01*
X56226466Y-56716443D01*
X56056627Y-56767963D01*
X55990443Y-56774481D01*
X55924260Y-56781000D01*
X55835740Y-56781000D01*
X55769557Y-56774481D01*
X55703373Y-56767963D01*
X55533534Y-56716443D01*
X55377009Y-56632778D01*
X55341271Y-56603448D01*
X55239814Y-56520186D01*
X55156552Y-56418729D01*
X55127222Y-56382991D01*
X55043557Y-56226466D01*
X54992037Y-56056627D01*
X54974641Y-55880000D01*
X54992037Y-55703373D01*
X55043557Y-55533534D01*
X55127222Y-55377009D01*
X55156552Y-55341271D01*
X55239814Y-55239814D01*
X55341271Y-55156552D01*
X55377009Y-55127222D01*
X55533534Y-55043557D01*
X55703373Y-54992037D01*
X55769557Y-54985519D01*
X55835740Y-54979000D01*
X55924260Y-54979000D01*
X55990443Y-54985519D01*
X55990443Y-54985519D01*
G37*
G36*
X71230443Y-54985519D02*
G01*
X71296627Y-54992037D01*
X71466466Y-55043557D01*
X71622991Y-55127222D01*
X71658729Y-55156552D01*
X71760186Y-55239814D01*
X71843448Y-55341271D01*
X71872778Y-55377009D01*
X71956443Y-55533534D01*
X72007963Y-55703373D01*
X72025359Y-55880000D01*
X72007963Y-56056627D01*
X71956443Y-56226466D01*
X71872778Y-56382991D01*
X71843448Y-56418729D01*
X71760186Y-56520186D01*
X71658729Y-56603448D01*
X71622991Y-56632778D01*
X71466466Y-56716443D01*
X71296627Y-56767963D01*
X71230443Y-56774481D01*
X71164260Y-56781000D01*
X71075740Y-56781000D01*
X71009557Y-56774481D01*
X70943373Y-56767963D01*
X70773534Y-56716443D01*
X70617009Y-56632778D01*
X70581271Y-56603448D01*
X70479814Y-56520186D01*
X70396552Y-56418729D01*
X70367222Y-56382991D01*
X70283557Y-56226466D01*
X70232037Y-56056627D01*
X70214641Y-55880000D01*
X70232037Y-55703373D01*
X70283557Y-55533534D01*
X70367222Y-55377009D01*
X70396552Y-55341271D01*
X70479814Y-55239814D01*
X70581271Y-55156552D01*
X70617009Y-55127222D01*
X70773534Y-55043557D01*
X70943373Y-54992037D01*
X71009557Y-54985519D01*
X71075740Y-54979000D01*
X71164260Y-54979000D01*
X71230443Y-54985519D01*
X71230443Y-54985519D01*
G37*
G36*
X84195256Y-51731298D02*
G01*
X84301579Y-51752447D01*
X84602042Y-51876903D01*
X84872451Y-52057585D01*
X85102415Y-52287549D01*
X85283097Y-52557958D01*
X85407553Y-52858421D01*
X85471000Y-53177391D01*
X85471000Y-53502609D01*
X85407553Y-53821579D01*
X85283097Y-54122042D01*
X85102415Y-54392451D01*
X84872451Y-54622415D01*
X84602042Y-54803097D01*
X84301579Y-54927553D01*
X84195256Y-54948702D01*
X83982611Y-54991000D01*
X83657389Y-54991000D01*
X83444744Y-54948702D01*
X83338421Y-54927553D01*
X83037958Y-54803097D01*
X82767549Y-54622415D01*
X82537585Y-54392451D01*
X82356903Y-54122042D01*
X82232447Y-53821579D01*
X82169000Y-53502609D01*
X82169000Y-53177391D01*
X82232447Y-52858421D01*
X82356903Y-52557958D01*
X82537585Y-52287549D01*
X82767549Y-52057585D01*
X83037958Y-51876903D01*
X83338421Y-51752447D01*
X83444744Y-51731298D01*
X83657389Y-51689000D01*
X83982611Y-51689000D01*
X84195256Y-51731298D01*
X84195256Y-51731298D01*
G37*
G36*
X43555256Y-51731298D02*
G01*
X43661579Y-51752447D01*
X43962042Y-51876903D01*
X44232451Y-52057585D01*
X44462415Y-52287549D01*
X44643097Y-52557958D01*
X44767553Y-52858421D01*
X44831000Y-53177391D01*
X44831000Y-53502609D01*
X44767553Y-53821579D01*
X44643097Y-54122042D01*
X44462415Y-54392451D01*
X44232451Y-54622415D01*
X43962042Y-54803097D01*
X43661579Y-54927553D01*
X43555256Y-54948702D01*
X43342611Y-54991000D01*
X43017389Y-54991000D01*
X42804744Y-54948702D01*
X42698421Y-54927553D01*
X42397958Y-54803097D01*
X42127549Y-54622415D01*
X41897585Y-54392451D01*
X41716903Y-54122042D01*
X41592447Y-53821579D01*
X41529000Y-53502609D01*
X41529000Y-53177391D01*
X41592447Y-52858421D01*
X41716903Y-52557958D01*
X41897585Y-52287549D01*
X42127549Y-52057585D01*
X42397958Y-51876903D01*
X42698421Y-51752447D01*
X42804744Y-51731298D01*
X43017389Y-51689000D01*
X43342611Y-51689000D01*
X43555256Y-51731298D01*
X43555256Y-51731298D01*
G37*
G36*
X71230443Y-52445519D02*
G01*
X71296627Y-52452037D01*
X71466466Y-52503557D01*
X71622991Y-52587222D01*
X71658729Y-52616552D01*
X71760186Y-52699814D01*
X71843448Y-52801271D01*
X71872778Y-52837009D01*
X71956443Y-52993534D01*
X72007963Y-53163373D01*
X72025359Y-53340000D01*
X72007963Y-53516627D01*
X71956443Y-53686466D01*
X71872778Y-53842991D01*
X71843448Y-53878729D01*
X71760186Y-53980186D01*
X71658729Y-54063448D01*
X71622991Y-54092778D01*
X71466466Y-54176443D01*
X71296627Y-54227963D01*
X71230442Y-54234482D01*
X71164260Y-54241000D01*
X71075740Y-54241000D01*
X71009558Y-54234482D01*
X70943373Y-54227963D01*
X70773534Y-54176443D01*
X70617009Y-54092778D01*
X70581271Y-54063448D01*
X70479814Y-53980186D01*
X70396552Y-53878729D01*
X70367222Y-53842991D01*
X70283557Y-53686466D01*
X70232037Y-53516627D01*
X70214641Y-53340000D01*
X70232037Y-53163373D01*
X70283557Y-52993534D01*
X70367222Y-52837009D01*
X70396552Y-52801271D01*
X70479814Y-52699814D01*
X70581271Y-52616552D01*
X70617009Y-52587222D01*
X70773534Y-52503557D01*
X70943373Y-52452037D01*
X71009558Y-52445518D01*
X71075740Y-52439000D01*
X71164260Y-52439000D01*
X71230443Y-52445519D01*
X71230443Y-52445519D01*
G37*
G36*
X55990443Y-52445519D02*
G01*
X56056627Y-52452037D01*
X56226466Y-52503557D01*
X56382991Y-52587222D01*
X56418729Y-52616552D01*
X56520186Y-52699814D01*
X56603448Y-52801271D01*
X56632778Y-52837009D01*
X56716443Y-52993534D01*
X56767963Y-53163373D01*
X56785359Y-53340000D01*
X56767963Y-53516627D01*
X56716443Y-53686466D01*
X56632778Y-53842991D01*
X56603448Y-53878729D01*
X56520186Y-53980186D01*
X56418729Y-54063448D01*
X56382991Y-54092778D01*
X56226466Y-54176443D01*
X56056627Y-54227963D01*
X55990442Y-54234482D01*
X55924260Y-54241000D01*
X55835740Y-54241000D01*
X55769558Y-54234482D01*
X55703373Y-54227963D01*
X55533534Y-54176443D01*
X55377009Y-54092778D01*
X55341271Y-54063448D01*
X55239814Y-53980186D01*
X55156552Y-53878729D01*
X55127222Y-53842991D01*
X55043557Y-53686466D01*
X54992037Y-53516627D01*
X54974641Y-53340000D01*
X54992037Y-53163373D01*
X55043557Y-52993534D01*
X55127222Y-52837009D01*
X55156552Y-52801271D01*
X55239814Y-52699814D01*
X55341271Y-52616552D01*
X55377009Y-52587222D01*
X55533534Y-52503557D01*
X55703373Y-52452037D01*
X55769558Y-52445518D01*
X55835740Y-52439000D01*
X55924260Y-52439000D01*
X55990443Y-52445519D01*
X55990443Y-52445519D01*
G37*
G36*
X56781000Y-51701000D02*
G01*
X54979000Y-51701000D01*
X54979000Y-49899000D01*
X56781000Y-49899000D01*
X56781000Y-51701000D01*
X56781000Y-51701000D01*
G37*
G36*
X72021000Y-51701000D02*
G01*
X70219000Y-51701000D01*
X70219000Y-49899000D01*
X72021000Y-49899000D01*
X72021000Y-51701000D01*
X72021000Y-51701000D01*
G37*
M02*
